<?xml version="1.0" encoding="UTF-8"?>
<svg xmlns="http://www.w3.org/2000/svg" width="116" height="35" viewBox="0 0 116 35" fill="none">
  <path d="M62.8508 22.3366C62.8508 25.9292 58.38 25.716 58.38 25.716H53.9094V19.2243H58.38C62.9809 19.1934 62.8508 22.3366 62.8508 22.3366ZM53.9094 9.32391H57.3161C60.8536 9.51078 60.7201 12.1446 60.7201 12.1446C60.7201 15.4176 56.8084 15.471 56.8084 15.471H53.9094V9.32391ZM62.0238 16.7476C62.0238 16.7476 65.0839 15.4436 65.0566 11.9849C65.0566 11.9849 65.522 6.31672 58.0121 5.62536H49.6789V29.3878H59.2308C59.2308 29.3878 67.2118 29.4116 67.2118 22.6832C67.2117 22.6832 67.4004 18.1043 62.0238 16.7476ZM40.4577 0.969238H75.5422V34.0307H40.4577V0.969238ZM22.3928 22.3366C22.3928 25.9292 17.922 25.716 17.922 25.716H13.451V19.2243H17.922C22.5233 19.1934 22.3928 22.3366 22.3928 22.3366ZM13.451 9.32391H16.8584C20.396 9.51078 20.2622 12.1446 20.2622 12.1446C20.2622 15.4176 16.3508 15.471 16.3508 15.471H13.451V9.32391ZM21.5661 16.7476C21.5661 16.7476 24.6267 15.4436 24.5992 11.9849C24.5992 11.9849 25.0642 6.31672 17.5543 5.62536H9.22072V29.3878H18.7732C18.7732 29.3878 26.7541 29.4116 26.7541 22.6832C26.7541 22.6832 26.9422 18.1043 21.5661 16.7476ZM0 0.969238H35.0845V34.0307H0V0.969238ZM108.843 7.32894V11.7191C108.843 11.7191 104.558 9.08564 99.8223 9.03263C99.8223 9.03263 90.9876 8.85921 90.5894 17.5012C90.5894 17.5012 90.2703 25.4487 99.7158 25.9016C99.7158 25.9016 103.679 26.3789 109.055 22.9504V27.497C109.055 27.497 101.843 31.782 93.4886 28.4817C93.4886 28.4817 86.4654 25.917 86.1979 17.5012C86.1979 17.5012 85.9058 8.84541 95.2725 5.97209C95.2725 5.97209 97.7738 5.01451 102.269 5.44011C102.269 5.43999 104.956 5.70575 108.843 7.32894ZM80.9155 34.0307H116V0.969238H80.9155V34.0307Z" fill="white"></path>
</svg>
