<?xml version="1.0" encoding="UTF-8"?>
<svg xmlns="http://www.w3.org/2000/svg" width="200" height="80" viewBox="0 0 200 80" fill="none">
  <path fill-rule="evenodd" clip-rule="evenodd" d="M75.2397 29.0106C75.2347 29.0539 74.8817 32.4308 75.1821 36.4613C75.4559 40.1237 76.3334 45.1076 78.9619 48.0434C80.4629 49.7184 82.4238 50.5677 84.7921 50.5677C85.8178 50.5677 86.7818 50.3978 87.6706 50.0596C86.25 47.1372 85.2263 43.3254 84.6225 38.7063C83.9897 33.8616 84.0319 29.6837 84.0442 28.9683L75.2429 28.9869C75.2419 28.9931 75.2397 29.0013 75.2397 29.0106ZM90.6337 50.9132C91.0235 51.5027 91.4372 52.0243 91.8693 52.4706C93.2468 53.8941 94.8826 54.6188 96.7313 54.626H96.7592C98.6439 54.626 100.282 53.8869 101.626 52.4305C103.443 50.4636 105.9 46.0663 106.583 36.2912C106.989 30.4878 106.168 25.4244 106.149 25.1729H97.9731C98.0133 26.0254 98.1583 29.9445 97.6706 34.4429C96.7313 43.1058 94.2005 47.4115 92.2427 49.4969C91.7417 50.0329 91.2026 50.507 90.6337 50.9132ZM96.72 56.798C94.2694 56.7886 92.1121 55.8414 90.3126 53.9839C89.7592 53.4118 89.2324 52.7387 88.7396 51.9718C87.5226 52.4831 86.1996 52.7407 84.7921 52.7407C81.7819 52.7407 79.2768 51.648 77.3478 49.4937C74.3108 46.1023 73.1708 40.6216 72.8735 36.621C72.5557 32.3669 72.9323 28.8209 72.9352 28.7859C73.0485 27.6479 73.9229 26.814 75.0145 26.814L84.1213 26.7954C85.2767 26.7954 86.215 27.7355 86.215 28.89L86.214 28.9178C86.2109 29.0467 85.9371 41.3998 89.5647 49.004C89.9485 48.7112 90.3157 48.3794 90.6635 48.0093C96.721 41.5513 95.8096 25.2977 95.7992 25.1338L95.7983 25.1028L95.7971 25.0719C95.7971 24.5142 96.0029 23.9958 96.3764 23.6102C96.758 23.2165 97.2745 23 97.8332 23H106.185C107.307 23 108.2 23.8308 108.309 24.974C108.314 25.0389 109.323 30.3105 108.894 36.4427C108.493 42.1852 106.939 49.8781 103.218 53.9056C101.446 55.8258 99.2724 56.798 96.7592 56.798H96.72Z" fill="white"></path>
  <path fill-rule="evenodd" clip-rule="evenodd" d="M15.219 39.1033C18.7446 39.1033 19.7703 37.1355 19.7703 35.5243C19.7703 34.2729 19.0143 32.0845 16.0677 32.0845H12.0503V39.1033H15.219ZM31.5964 57.3031H22.3599L15.5317 43.977H12.0503V52.1615H15.8445V57.3031H0V52.1615H4.15222V32.0845H0V26.9398H18.8784C24.7714 26.9398 27.9811 30.8311 27.9811 35.4347C27.9811 38.925 26.2868 41.3824 22.762 42.9926L27.6694 52.1615H31.5964V57.3031Z" fill="white"></path>
  <path fill-rule="evenodd" clip-rule="evenodd" d="M35.3517 31.8625H31.7788V26.7178H46.7765V31.8625H43.2971L48.3402 47.0618H48.4276L53.5161 31.8625H50.1685V26.7178H62.9358V31.8625H59.3628L50.5696 57.3037H44.4566L35.3517 31.8625Z" fill="white"></path>
</svg>
