<?xml version="1.0" encoding="UTF-8"?>
<svg xmlns="http://www.w3.org/2000/svg" width="200" height="80" viewBox="0 0 200 80" fill="none">
  <path fill-rule="evenodd" clip-rule="evenodd" d="M36.9999 3H74V77H0V3H36.9999ZM9.43502 46.1007H13.137V47.2311C13.9001 46.6377 15.1435 45.8749 17.1218 45.8749C18.591 45.8749 19.7783 46.4965 20.4283 47.4572C21.5302 46.5813 22.8013 45.8749 24.5817 45.8749C27.8316 45.8749 29.1598 47.9372 29.1598 50.7637V59.9755H25.4014V51.3286C25.4014 49.7461 24.9211 48.8421 23.3101 48.8421C22.5186 48.8421 21.6146 49.2658 21.0494 49.6054C21.1063 49.8878 21.1909 50.4243 21.1909 50.961V59.9755H17.404V51.2714C17.404 49.5205 16.6978 48.8418 15.3975 48.8418C14.6347 48.8418 13.815 49.2934 13.2216 49.7176V59.9753H9.43502V46.1007ZM37.7781 45.8746C33.4547 45.8746 31.194 49.1245 31.194 53.0521C31.194 57.2621 33.3132 60.2016 38.3717 60.2016C40.067 60.2016 41.6213 59.8619 42.7517 59.4098V56.5275C41.7628 56.9796 40.3218 57.3749 38.6542 57.3749C35.9697 57.3749 35.1218 55.9059 35.0657 53.617H43.5996C43.6562 53.2215 43.6844 52.6566 43.6844 52.3169C43.6844 48.9822 42.2434 45.8746 37.7781 45.8746ZM39.9821 51.2711V51.4129H35.1785C35.3482 49.633 36.3091 48.6439 37.7781 48.6439C39.276 48.6439 39.9821 49.9434 39.9821 51.2711ZM45.1425 53.1931C45.1425 49.1248 47.6017 45.8749 51.5572 45.8749C52.9421 45.8749 53.7054 46.1853 54.0724 46.3552V40.7603H57.8306V59.9753H54.0724V58.901C53.4506 59.5798 52.3484 60.2016 50.7662 60.2016C46.9232 60.2016 45.1425 57.3475 45.1425 53.1931ZM54.0724 56.4714V49.1245C53.6762 48.9266 53.0551 48.7282 52.3203 48.7282C50.1441 48.7282 49.1275 50.3956 49.1275 53.0234C49.1275 55.3687 49.8334 57.2339 52.0093 57.2339C52.829 57.2342 53.5921 56.9517 54.0724 56.4714ZM62.6712 39.8552C61.3432 39.8552 60.382 40.8444 60.382 42.0314C60.382 43.2184 61.3429 44.2355 62.6712 44.2355C63.9712 44.2355 64.9324 43.2184 64.9324 42.0314C64.9324 40.8444 63.9712 39.8552 62.6712 39.8552ZM62.6571 46.1007H60.7495V59.9753H64.5651V46.1007H62.6571ZM64.5649 67.01H31.6351V65.3449V63.6799H64.5649V67.01ZM9.43502 67.01H29.1596V63.6799H9.43502V65.3449V67.01Z" fill="white"></path>
</svg>
