<?xml version="1.0" encoding="UTF-8"?>
<svg xmlns="http://www.w3.org/2000/svg" width="200" height="80" viewBox="0 0 200 80" fill="none">
  <path d="M65.2599 50.1452V37.7846L61.2178 45.8101H58.4059L54.3345 37.7846V50.1452H50.2046V28.9387H54.276L59.8119 40.3914L65.3186 28.9387H69.39V50.1452H65.2599Z" fill="white"></path>
  <path fill-rule="evenodd" clip-rule="evenodd" d="M81.9864 48.7975V50.1448V50.2035H85.7649V39.9809C85.7649 36.349 83.4802 34.5037 79.1451 34.5037C76.5676 34.5037 75.0737 34.9723 73.5506 36.6418L76.0111 39.0437C76.8312 38.1064 77.5049 37.7549 78.9987 37.7549C81.0783 37.7549 81.8985 38.4872 81.8985 40.1861V40.9475H78.2372C74.6344 40.9475 72.9355 42.9686 72.9355 45.429C72.9355 46.8057 73.4042 48.0652 74.2243 48.9147C75.1324 49.852 76.4211 50.2912 78.1786 50.2912C79.9653 50.2912 80.9319 49.852 81.9864 48.7975ZM78.8229 43.5837H81.8692V44.4332C81.8692 45.3998 81.7227 46.0149 81.3126 46.3956C80.639 47.04 79.9653 47.1279 78.8816 47.1279C77.3585 47.1279 76.6555 46.425 76.6555 45.3411C76.6555 44.2281 77.417 43.5837 78.8229 43.5837Z" fill="white"></path>
  <path d="M98.4753 50.1451L95.6048 45.4878L92.7637 50.1451H88.1064L93.4666 42.2366L88.3114 34.6503H92.9687L95.5756 39.0731L98.2118 34.6503H102.869L97.7138 42.2366L103.074 50.1451H98.4753Z" fill="white"></path>
  <path fill-rule="evenodd" clip-rule="evenodd" d="M115.083 50.1452H107.058V28.9387H114.849C118.364 28.9387 120.971 30.989 120.971 34.4747C120.971 36.7008 119.711 38.5461 117.661 39.249C119.946 40.0399 121.293 41.8852 121.293 44.3749C121.293 48.1534 118.803 50.1452 115.083 50.1452ZM114.673 30.374H108.669V38.6046H114.673C117.221 38.6046 119.389 37.4037 119.389 34.5039C119.389 31.6042 117.221 30.374 114.673 30.374ZM108.669 40.0107H114.908C117.778 40.0107 119.682 41.6217 119.711 44.3749C119.711 47.0989 117.807 48.71 114.908 48.71H108.669V40.0107Z" fill="white"></path>
  <path d="M130.666 36.9351C128.206 36.9351 126.829 38.9854 126.829 41.2701V50.1158H125.306V35.7635H126.829V37.6673C127.649 36.32 129.318 35.5877 131.017 35.5877C132.422 35.5877 133.419 35.9099 134.474 36.9644L133.36 38.0774C132.511 37.1987 131.867 36.9351 130.666 36.9351Z" fill="white"></path>
  <path fill-rule="evenodd" clip-rule="evenodd" d="M140.977 50.3209C142.998 50.3209 144.112 49.9402 145.342 48.7099H145.372V50.1451H146.895V40.3328C146.895 37.3159 145.137 35.617 141.329 35.617C138.986 35.617 137.492 36.115 136.262 37.8137L137.375 38.7511C138.283 37.433 139.308 36.935 141.329 36.935C144.258 36.935 145.372 38.1653 145.372 40.4499V42.0609H140.714C137.579 42.0609 135.706 43.584 135.706 46.191C135.706 47.2747 136.086 48.3291 136.759 49.0029C137.668 49.9695 138.839 50.3209 140.977 50.3209ZM137.229 46.191C137.229 44.2578 138.458 43.2912 140.89 43.2912H145.342V45.1657C145.342 46.4545 145.078 47.3919 144.551 47.8897C143.497 48.8857 142.296 49.0029 140.977 49.0029C138.371 49.0029 137.229 48.0948 137.229 46.191Z" fill="white"></path>
  <path fill-rule="evenodd" clip-rule="evenodd" d="M154.458 28.9387H152.314V30.8134H154.458V28.9387ZM154.257 35.7927H152.515V50.1452H154.257V35.7927Z" fill="white"></path>
  <path d="M169.477 41.2409C169.477 38.4581 168.1 36.9644 165.522 36.9644C162.945 36.9644 161.48 38.5168 161.48 41.2409V50.1451H159.957V35.7928H161.48V37.4915C162.564 36.2321 163.94 35.617 165.698 35.617C167.279 35.617 168.569 36.0563 169.505 36.9937C170.501 37.9602 171 39.2783 171 40.9772V50.1451H169.477V41.2409Z" fill="white"></path>
  <path fill-rule="evenodd" clip-rule="evenodd" d="M34.9385 33.9196L36.9028 35.8839V44.8344L35.6473 46.0899V51.2942L34.007 52.9344V54.5746L30.2 58.3816H27.4865L24.9148 60.9534H20.3586L19.5485 60.2244V55.2834L22.1203 57.6527H24.6313L26.1297 56.1542H28.9648L30.4633 54.6557C30.6051 54.7366 30.7671 54.7772 30.9291 54.7772C31.4758 54.7772 31.9213 54.3317 31.9213 53.7849C31.9213 53.2381 31.4758 52.7926 30.9291 52.7926C30.3823 52.7926 29.9368 53.2381 29.9368 53.7849C29.9368 53.9469 29.9773 54.1089 30.0582 54.2506L28.7218 55.5669H25.8868L24.3883 57.0654H22.3632L19.5283 54.4531V40.8047L25.6641 34.8309H29.309L32.2656 37.7875V41.5741L31.5163 42.3234C31.3746 42.2424 31.2126 42.2019 31.0506 42.2019C30.5037 42.2019 30.0582 42.6474 30.0582 43.1942C30.0582 43.7409 30.5037 44.1864 31.0506 44.1864C31.5973 44.1864 32.0428 43.7409 32.0428 43.1942C32.0428 43.0322 32.0023 42.8702 31.9213 42.7284L32.8528 41.7969V37.5241L29.5521 34.2031L25.8463 34.2234V32.5832C26.2716 32.4617 26.5551 32.0769 26.5551 31.6314C26.5551 31.0847 26.1096 30.6392 25.5628 30.6392C25.0161 30.6392 24.5706 31.0847 24.5706 31.6314C24.5706 32.0567 24.8743 32.4617 25.2793 32.5832V34.3247L19.5688 39.8732V30.2139H21.5533L21.938 29.8291C22.0798 29.9102 22.2418 29.9507 22.4038 29.9507C22.9506 29.9507 23.3961 29.5051 23.3961 28.9584C23.3961 28.4117 22.9506 27.9662 22.4038 27.9662C21.8571 27.9662 21.4116 28.4117 21.4116 28.9584C21.4116 29.1204 21.452 29.2824 21.533 29.4242L21.3103 29.6469H19.5688V26.2247L21.5938 24.3414H22.1203C22.1 24.4022 22.1 24.4629 22.1 24.5237C22.1 25.0704 22.5455 25.5159 23.0923 25.5159C23.639 25.5159 24.0845 25.0704 24.0845 24.5237C24.0845 23.9769 23.639 23.5314 23.0923 23.5314C22.8695 23.5314 22.6468 23.6124 22.4646 23.7542H21.3508L19.5688 25.3742V21.3242H20.8041C20.9255 21.7494 21.3103 22.0329 21.7557 22.0329C22.3026 22.0329 22.7481 21.5874 22.7481 21.0407C22.7481 20.4939 22.3026 20.0484 21.7557 20.0484C21.3305 20.0484 20.9255 20.3522 20.8041 20.7572H19.5688V20.4332L20.561 19.4409H23.5783L25.0566 20.9394H27.041L32.8933 26.7714V29.3229L34.9385 31.3682V33.9196ZM32.2858 32.1377V34.3854H33.8855C34.0475 34.3854 34.1893 34.2437 34.1893 34.0816C34.1893 33.9196 34.0475 33.7779 33.8855 33.7779H32.8933V31.8744L27.4055 28.8775V26.0019H28.0333L28.9648 26.9334C28.904 27.0752 28.8635 27.2169 28.8635 27.3789C28.8635 27.9257 29.309 28.3712 29.8558 28.3712C30.4025 28.3712 30.848 27.9257 30.848 27.3789C30.848 26.8322 30.4025 26.3867 29.8558 26.3867C29.6735 26.3867 29.5115 26.4272 29.3698 26.5082L28.256 25.3944H26.798V29.1407L32.2858 32.1377ZM20.6218 47.2644C20.6218 46.7176 21.0673 46.2721 21.614 46.2721C22.0595 46.2721 22.4443 46.5556 22.5658 46.9809H25.5425C25.6641 46.5759 26.0691 46.2721 26.4943 46.2721C27.041 46.2721 27.4865 46.7176 27.4865 47.2644C27.4865 47.8111 27.041 48.2566 26.4943 48.2566C26.0488 48.2566 25.6641 47.9732 25.5425 47.5479H22.5658C22.4443 47.9529 22.0393 48.2566 21.614 48.2566C21.0673 48.2566 20.6218 47.8111 20.6218 47.2644ZM35.1613 44.2472V40.8249C35.5663 40.7034 35.8498 40.3187 35.8295 39.9136C35.8295 39.3669 35.384 38.9214 34.8373 38.9214C34.2905 38.9214 33.845 39.3669 33.845 39.9136C33.845 40.3389 34.1488 40.7439 34.5538 40.8654V44.0446L33.3186 45.0976H33.2983V47.8719L31.6986 49.4716H29.7141V45.8266L27.1423 43.2549H25.5021L28.3371 40.4199L28.3573 40.3996L27.3853 39.4277V38.6177C27.7902 38.4759 28.0738 38.0912 28.0738 37.6659C28.0738 37.1192 27.6283 36.6737 27.0815 36.6737C26.5348 36.6737 26.0893 37.1192 26.0893 37.6659C26.0893 38.0912 26.3728 38.4962 26.798 38.6177V39.6707L27.527 40.3996L24.6718 43.2549H24.0036C23.8618 42.8499 23.477 42.5664 23.0518 42.5664C22.505 42.5664 22.0595 43.0119 22.0595 43.5586C22.0595 44.1054 22.505 44.5509 23.0518 44.5509C23.4973 44.5509 23.882 44.2472 24.0036 43.822H26.879L29.1066 46.0494V49.6337L27.7498 50.9904H23.9833C23.8618 50.5652 23.477 50.2817 23.0315 50.2817C22.4848 50.2817 22.0393 50.7272 22.0393 51.2739C22.0393 51.8207 22.4848 52.2662 23.0315 52.2662C23.4568 52.2662 23.8618 51.9624 23.9833 51.5574H27.9928L29.5318 50.0184H31.6783L32.9338 51.2739V52.2054C32.9338 52.3674 33.0755 52.5092 33.2375 52.5092C33.3995 52.5092 33.5413 52.3674 33.5413 52.2054V51.0309L32.2453 49.7349L33.9058 48.0744V45.3002L35.1411 44.2472H35.1613Z" fill="white"></path>
  <path fill-rule="evenodd" clip-rule="evenodd" d="M15.8433 57.4907L18.334 54.9999V60.1839V60.2042L17.5442 60.9331H12.988L10.4162 58.3614H7.70275L3.89575 54.5544V52.9141L2.2555 51.2739V46.0697L1 44.8142V35.8839L2.98449 33.9196V31.3682L5.02975 29.3027V26.7714L10.8618 20.9394H12.8462L14.3448 19.4409H17.362L18.334 20.4332H18.3137V24.1187L17.3418 23.1872H13.5753C13.4537 22.7619 13.069 22.4784 12.6235 22.4784C12.0768 22.4784 11.6313 22.9239 11.6313 23.4707C11.6313 24.0174 12.0768 24.4629 12.6235 24.4629C13.0487 24.4629 13.4537 24.1794 13.5753 23.7542H17.0785L18.3137 24.9894V29.7279H16.228L15.9648 29.4647C16.0255 29.3229 16.066 29.1812 16.066 29.0395C16.066 28.4927 15.6205 28.0472 15.0738 28.0472C14.527 28.0472 14.0815 28.4927 14.0815 29.0395C14.0815 29.5862 14.527 30.0317 15.0738 30.0317C15.256 30.0317 15.418 29.9709 15.58 29.8899L15.985 30.2949H18.3137V36.2687L15.742 35.5599V34.2234C16.1672 34.1019 16.4508 33.7172 16.4508 33.2716C16.4508 32.7249 16.0053 32.2794 15.4585 32.2794C14.9118 32.2794 14.4663 32.7249 14.4663 33.2716C14.4663 33.6969 14.77 34.1019 15.175 34.2234V35.8232L18.2732 36.8154V40.3187H15.0738L13.6968 38.9417C13.7777 38.7797 13.8182 38.6177 13.8182 38.4556C13.8182 37.9089 13.3727 37.4634 12.826 37.4634C12.2792 37.4634 11.8337 37.9089 11.8337 38.4556C11.8337 39.0024 12.2792 39.448 12.826 39.448C12.9678 39.448 13.1298 39.4074 13.2715 39.3466L14.8307 40.9059H18.2732V46.1506L16.633 47.7909L16.5925 47.7302C16.4508 47.6289 16.2888 47.5884 16.1268 47.5682C15.58 47.5277 15.1142 47.9529 15.0738 48.4997C15.0535 48.7629 15.1345 49.0261 15.3167 49.2287C15.499 49.4311 15.742 49.5527 16.0053 49.5729C16.2685 49.5931 16.5317 49.5122 16.7343 49.3299C16.9367 49.1476 17.0583 48.9047 17.0785 48.6414C17.0987 48.5199 17.0785 48.3984 17.038 48.2769L18.3137 47.0416V54.1899L15.58 56.9237H12.826L11.0238 55.1214H9.14049L7.86475 53.8456C7.94575 53.7039 7.98625 53.5419 7.98625 53.3799C7.98625 52.8332 7.54074 52.3877 6.994 52.3877C6.44725 52.3877 6.00174 52.8332 6.00174 53.3799C6.00174 53.9267 6.44725 54.3722 6.994 54.3722C7.156 54.3722 7.318 54.3317 7.45975 54.2506L8.89749 55.6884H10.801L12.6032 57.4907H15.8433ZM14.3448 43.8017H12.178L10.5175 42.1412C10.5985 41.9994 10.639 41.8374 10.639 41.6754C10.639 41.1286 10.1935 40.6831 9.64675 40.6831C9.1 40.6831 8.65449 41.1286 8.65449 41.6754C8.65449 42.2221 9.1 42.6676 9.64675 42.6676C9.80875 42.6676 9.97074 42.6271 10.1125 42.5462L11.935 44.3687H14.3448C14.4663 44.7939 14.851 45.0774 15.2965 45.0774C15.8433 45.0774 16.2888 44.6319 16.2888 44.0852C16.2888 43.5384 15.8433 43.0929 15.2965 43.0929C14.8712 43.0929 14.4663 43.3966 14.3448 43.8017ZM11.4894 30.8821C12.0363 30.8821 12.4818 31.3276 12.4818 31.8744C12.4818 32.4211 12.0363 32.8666 11.4894 32.8666C11.3275 32.8666 11.1655 32.8261 11.0238 32.7452L10.477 33.2919V37.9292H8.8165L7.1155 36.3091V35.2561C6.71049 35.1346 6.40675 34.7297 6.40675 34.3044C6.40675 33.7576 6.85225 33.3121 7.399 33.3121C7.94575 33.3121 8.39125 33.7576 8.39125 34.3044C8.39125 34.7499 8.10775 35.1346 7.6825 35.2561V35.9852L9.03925 37.3419H9.84924V33.0692L10.558 32.3605C10.477 32.2186 10.4365 32.0567 10.4365 31.8947C10.4972 31.3479 10.9427 30.8821 11.4894 30.8821ZM4.726 33.7982H3.73375C3.5515 33.7982 3.43 33.9196 3.43 34.0816C3.43 34.2437 3.57175 34.3854 3.73375 34.3854H5.31325V32.1377L10.2542 28.1484H10.2745V25.3944H8.8165L7.70275 26.5082C7.54074 26.4272 7.37875 26.3867 7.21675 26.3867C6.67 26.3867 6.2245 26.8322 6.2245 27.3789C6.2245 27.9257 6.67 28.3712 7.21675 28.3712C7.7635 28.3712 8.209 27.9257 8.209 27.3789C8.209 27.2169 8.1685 27.0752 8.10775 26.9334L9.0595 26.0222H9.68724V27.9257L4.74625 31.8947H4.726V33.7982ZM1.972 36.7344C1.81 36.7344 1.66825 36.5926 1.66825 36.4307C1.66825 36.2687 1.81 36.127 1.972 36.127H4.1995V37.5849C4.6045 37.7064 4.90825 38.1114 4.90825 38.5367C4.90825 39.0834 4.46274 39.5289 3.916 39.5289C3.36925 39.5289 2.92374 39.0834 2.92374 38.5367C2.92374 38.0912 3.20725 37.7064 3.63249 37.5849V36.7344H1.972ZM4.564 52.5092C4.726 52.5092 4.86775 52.3674 4.86775 52.2054H4.8475V50.2006L6.04225 49.0059H10.153V51.5371L11.7122 53.0964H13.798C13.879 53.2179 14.0005 53.3192 14.122 53.4001C14.284 53.4811 14.446 53.5216 14.608 53.5216C14.9522 53.5216 15.2965 53.3394 15.4787 53.0154C15.742 52.5294 15.58 51.9219 15.094 51.6587C14.608 51.3954 14.0005 51.5574 13.7373 52.0434C13.6562 52.1649 13.6157 52.3269 13.6157 52.4889H11.9148L10.6998 51.2739V48.8236L11.368 48.1554C11.5097 48.2364 11.6717 48.2769 11.8337 48.2769C12.3805 48.2769 12.826 47.8314 12.826 47.2847C12.826 46.7379 12.3805 46.2924 11.8337 46.2924C11.287 46.2924 10.8415 46.7379 10.8415 47.2847C10.8415 47.4467 10.882 47.6086 10.963 47.7504L10.2947 48.4186H6.00174L4.09825 46.5152V43.2346C4.52349 43.1131 4.807 42.7284 4.807 42.2829C4.807 41.7361 4.3615 41.2906 3.81474 41.2906C3.268 41.2906 2.8225 41.7361 2.8225 42.2829C2.8225 42.7082 3.12625 43.1131 3.53125 43.2346V46.7581L5.4955 48.7224L4.26025 49.9577V52.2054C4.26025 52.3674 4.40199 52.5092 4.564 52.5092Z" fill="white"></path>
</svg>
