<?xml version="1.0" encoding="UTF-8"?>
<svg xmlns="http://www.w3.org/2000/svg" width="200" height="80" viewBox="0 0 200 80" fill="none">
  <path fill-rule="evenodd" clip-rule="evenodd" d="M106.264 27.259C106.77 27.7673 107.023 28.3824 107.023 29.1037C107.023 29.8294 106.77 30.4476 106.264 30.9597C105.758 31.4711 105.142 31.7271 104.419 31.7271C103.697 31.7271 103.082 31.4711 102.574 30.9597C102.07 30.4476 101.819 29.8294 101.819 29.1037C101.819 28.3824 102.072 27.7673 102.578 27.259C103.088 26.747 103.701 26.4916 104.419 26.4916C105.141 26.4916 105.755 26.747 106.264 27.259ZM106.565 26.9657C105.972 26.3772 105.258 26.0839 104.419 26.0839C103.586 26.0839 102.874 26.3772 102.286 26.9657C101.695 27.5568 101.398 28.2699 101.398 29.1037C101.398 29.9444 101.691 30.6613 102.278 31.2524C102.866 31.8466 103.58 32.1437 104.419 32.1437C105.258 32.1437 105.972 31.8466 106.565 31.2524C107.157 30.6594 107.452 29.9413 107.452 29.1037C107.452 28.2673 107.157 27.5549 106.565 26.9657ZM104.868 28.9627C104.745 29.0126 104.559 29.0367 104.312 29.0367H103.783V27.833H104.282C104.607 27.833 104.844 27.8741 104.99 27.9563C105.138 28.0385 105.211 28.201 105.211 28.4437C105.211 28.6985 105.098 28.8723 104.868 28.9627ZM103.198 30.7574H103.783V29.445H104.246C104.558 29.445 104.775 29.4817 104.897 29.5531C105.108 29.6764 105.211 29.9312 105.211 30.3168V30.5798L105.225 30.6879C105.226 30.7011 105.23 30.7144 105.232 30.7245C105.235 30.7359 105.237 30.7466 105.24 30.7574H105.789L105.768 30.7169C105.755 30.6891 105.745 30.631 105.74 30.5431C105.734 30.4552 105.732 30.3724 105.732 30.2959V30.0519C105.732 29.885 105.671 29.7124 105.55 29.5367C105.429 29.3603 105.237 29.251 104.976 29.2111C105.182 29.1776 105.343 29.1239 105.46 29.0499C105.676 28.9096 105.785 28.6909 105.785 28.3938C105.785 27.9753 105.613 27.6952 105.269 27.5517C105.077 27.4727 104.775 27.4323 104.361 27.4323H103.198V30.7574Z" fill="white"></path>
  <path fill-rule="evenodd" clip-rule="evenodd" d="M30.1333 54.1995H37.4893V26.494H30.1333V54.1995Z" fill="white"></path>
  <path fill-rule="evenodd" clip-rule="evenodd" d="M14.4902 41.1332L19.9236 31.3266V41.1332H14.4902ZM19.8409 18.0096L0.000488281 54.1993H7.41586L10.4582 48.5883H19.9236V54.1462V54.1993H27.0592V54.1462V30.4498V18.0096H19.8409Z" fill="white"></path>
  <path fill-rule="evenodd" clip-rule="evenodd" d="M69.1136 43.2699H75.8904V37.4237H69.1174L69.1136 32.3462H75.8993V26.5H62.2407V54.1935H75.8873V48.3454H69.1136V43.2699Z" fill="white"></path>
  <path fill-rule="evenodd" clip-rule="evenodd" d="M51.2286 37.8784H47.6179V32.2889H51.2381C52.7539 32.2839 54.0859 33.4161 54.0859 35.0856C54.0859 36.5326 53.0008 37.8784 51.2286 37.8784ZM55.015 43.3118C56.9091 42.7549 60.7617 40.3388 60.7617 35.0679C60.7617 34.5641 60.7124 34.0754 60.6354 33.5981C60.6316 33.5703 60.6284 33.5419 60.624 33.5147C60.5855 33.2922 60.5381 33.0741 60.4844 32.8585C60.4756 32.8237 60.468 32.789 60.4592 32.7548C60.4042 32.5411 60.3404 32.3319 60.2703 32.1258C60.2583 32.0936 60.2476 32.0607 60.2362 32.0278C60.1623 31.8205 60.0834 31.6176 59.9962 31.4191C59.9848 31.3932 59.9722 31.3666 59.9602 31.3407C59.8686 31.1371 59.7707 30.938 59.6646 30.7439C59.659 30.7325 59.652 30.7212 59.6463 30.7098C58.243 28.1692 55.6756 26.5015 52.8625 26.5015H40.5688V26.5085V54.2001H47.6179L47.6204 43.0704L58.3093 62.7001H65.6255C65.6255 62.7001 55.0049 43.3156 55.015 43.3118Z" fill="white"></path>
  <path fill-rule="evenodd" clip-rule="evenodd" d="M77.4256 54.1994H84.7917L88.6298 47.1446L92.466 54.1994H99.8328L92.2822 40.4273L99.8612 26.4939H92.6138L88.6292 33.7631L80.0056 18.0002H72.7456L84.9761 40.4266L77.4256 54.1994Z" fill="white"></path>
</svg>
