<?xml version="1.0" encoding="UTF-8"?>
<svg xmlns="http://www.w3.org/2000/svg" width="200" height="80" viewBox="0 0 200 80" fill="none">
  <path d="M74.6653 30.415C73.8538 32.6277 71.388 33.7725 69.1563 32.9642C66.9292 32.1583 65.7787 29.7098 66.5903 27.4959L74.1724 6.80659C74.9852 4.5939 77.4497 3.45259 79.6791 4.2585C81.9085 5.06441 83.059 7.51295 82.2475 9.72564L74.6653 30.415Z" fill="white"></path>
  <path d="M16.341 43.8057C15.5307 46.0184 13.0637 47.1597 10.8343 46.355C8.60491 45.5491 7.45559 43.1006 8.26716 40.8867L16.9366 17.2333C17.7493 15.0182 20.2127 13.8769 22.4433 14.6816C24.6727 15.4875 25.8232 17.9361 25.0116 20.1523L16.341 43.8057Z" fill="white"></path>
  <path d="M29.6931 43.8057C28.8827 46.0184 26.4158 47.1597 24.1864 46.355C21.957 45.5491 20.8076 43.1006 21.6192 40.8867L30.2886 17.2333C31.1014 15.0182 33.5659 13.8769 35.7965 14.6816C38.0259 15.4875 39.1764 17.9361 38.3637 20.1523L29.6931 43.8057Z" fill="white"></path>
  <path d="M43.0384 43.8057C42.228 46.0184 39.7611 47.1597 37.5317 46.355C35.3023 45.5491 34.1529 43.1006 34.9633 40.8867L43.6339 17.2333C44.4467 15.0182 46.9112 13.8769 49.1406 14.6816C51.3712 15.4875 52.5205 17.9361 51.709 20.1523L43.0384 43.8057Z" fill="white"></path>
  <path d="M56.3787 43.8057C55.5683 46.0184 53.1014 47.1597 50.8732 46.355C48.6426 45.5491 47.4933 43.1006 48.3036 40.8867L60.7957 6.80743C61.6073 4.59474 64.073 3.45343 66.3024 4.25934C68.5318 5.06406 69.6812 7.51379 68.8708 9.72648L56.3787 43.8057Z" fill="white"></path>
  <path d="M0.598633 58.2428H3.0369L7.25584 69.4177L11.4939 58.2428H13.9322V71.5403H12.2446V60.4781H12.2076L8.02564 71.5403H6.50753L2.32321 60.4781H2.28621V71.5403H0.598633V58.2428Z" fill="white"></path>
  <path d="M22.389 66.5701C21.7708 67.0157 20.5713 67.037 19.5008 67.2219C18.4517 67.4068 17.5518 67.7801 17.5518 68.9534C17.5518 69.9952 18.4517 70.3685 19.4256 70.3685C21.5261 70.3685 22.389 69.0648 22.389 68.1902V66.5701ZM24.9788 71.5039C24.6972 71.671 24.3403 71.7634 23.8343 71.7634C23.0096 71.7634 22.4845 71.3166 22.4845 70.2749C21.6013 71.3 20.4221 71.7634 19.0699 71.7634C17.3072 71.7634 15.8643 70.9836 15.8643 69.0648C15.8643 66.8865 17.4957 66.4184 19.1463 66.1043C20.9091 65.7689 22.4105 65.8815 22.4105 64.688C22.4105 63.3097 21.2647 63.0857 20.2515 63.0857C18.9017 63.0857 17.9087 63.4958 17.8347 64.9097H16.2402C16.3333 62.5275 18.1903 61.6896 20.347 61.6896C22.0906 61.6896 23.9835 62.0807 23.9835 64.3337V69.2888C23.9835 70.0343 23.9835 70.3685 24.4919 70.3685C24.622 70.3685 24.7712 70.3495 24.9788 70.2749V71.5039V71.5039Z" fill="white"></path>
  <path d="M26.4224 61.9118H27.9238V63.4395H27.9596C28.6363 62.2472 29.7223 61.689 31.1115 61.689C33.662 61.689 34.4509 63.1432 34.4509 65.2101V71.5413H32.8564V65.0253C32.8564 63.8484 32.1045 63.0851 30.886 63.0851C28.9537 63.0851 28.0157 64.3722 28.0157 66.1037V71.5413H26.4224V61.9118Z" fill="white"></path>
  <path d="M41.03 63.0852C38.8924 63.0852 38.0677 64.9091 38.0677 66.7165C38.0677 68.6175 38.9318 70.368 41.1231 70.368C43.3011 70.368 44.0304 68.5239 44.0304 66.6419C44.0304 64.8369 43.0923 63.0852 41.03 63.0852ZM36.5317 61.9119H38.1238V63.2144H38.162C38.6872 62.1548 39.926 61.6891 41.2555 61.6891C44.238 61.6891 45.7203 64.0369 45.7203 66.7544C45.7203 69.4744 44.2559 71.7629 41.2937 71.7629C40.2995 71.7629 38.8757 71.3932 38.162 70.2566H38.1238V75.2283H36.5317V61.9119V61.9119Z" fill="white"></path>
  <path d="M51.6646 70.3682C53.3355 70.3682 54.6853 69.0646 54.6853 66.7369C54.6853 64.3915 53.3355 63.0854 51.6646 63.0854C49.9949 63.0854 48.6427 64.3915 48.6427 66.7369C48.6427 69.0646 49.9949 70.3682 51.6646 70.3682ZM51.6646 61.6893C54.739 61.6893 56.3729 63.9044 56.3729 66.7369C56.3729 69.5481 54.739 71.7643 51.6646 71.7643C48.5878 71.7643 46.9575 69.5481 46.9575 66.7369C46.9575 63.9044 48.5878 61.6893 51.6646 61.6893Z" fill="white"></path>
  <path d="M67.3617 71.5413H65.6765L63.7048 63.8863H63.6666L61.7153 71.5413H59.9907L56.877 61.9118H58.6409L60.8369 69.792H60.8739L62.8229 61.9118H64.5665L66.5919 69.792H66.6289L68.8046 61.9118H70.4575L67.3617 71.5413Z" fill="white"></path>
  <path d="M78.1452 65.8056C78.0677 64.2957 76.9255 63.0857 75.3501 63.0857C73.6804 63.0857 72.6887 64.3337 72.5741 65.8056H78.1452ZM79.6836 68.4865C79.2516 70.6103 77.7132 71.7634 75.5387 71.7634C72.4452 71.7634 70.982 69.6432 70.8877 66.6992C70.8877 63.8146 72.7996 61.6896 75.4432 61.6896C78.8768 61.6896 79.9259 64.8753 79.8328 67.2029H72.5741C72.5204 68.8799 73.4752 70.3685 75.5948 70.3685C76.9076 70.3685 77.8254 69.7356 78.1082 68.4865H79.6836V68.4865Z" fill="white"></path>
  <path d="M81.4268 61.9118H82.9282V63.9444H82.9652C83.735 62.3977 84.8019 61.6345 86.5265 61.689V63.3648C83.9581 63.3648 83.0213 64.819 83.0213 67.2593V71.5413H81.4268V61.9118Z" fill="white"></path>
  <path d="M88.5894 59.6181H88.8723C89.1133 59.6181 89.3329 59.6062 89.3329 59.3336C89.3329 59.1025 89.1348 59.0622 88.951 59.0622H88.5894V59.6181ZM88.3185 58.8453H88.9952C89.4105 58.8453 89.6062 59.0089 89.6062 59.3455C89.6062 59.6596 89.4057 59.7923 89.1444 59.8196L89.6456 60.5899H89.3508L88.8794 59.8385H88.5894V60.5899H88.3185V58.8453V58.8453ZM88.8997 60.9929C89.5943 60.9929 90.1278 60.443 90.1278 59.7105C90.1278 58.9982 89.5943 58.4448 88.8997 58.4448C88.2027 58.4448 87.6669 58.9982 87.6669 59.7105C87.6669 60.443 88.2027 60.9929 88.8997 60.9929ZM88.8997 58.2243C89.7172 58.2243 90.4011 58.8691 90.4011 59.7105C90.4011 60.5698 89.7172 61.2109 88.8997 61.2109C88.0822 61.2109 87.3936 60.5698 87.3936 59.7105C87.3936 58.8691 88.0822 58.2243 88.8997 58.2243Z" fill="white"></path>
</svg>
