<svg width="200" height="80" viewBox="0 0 200 80" fill="none" xmlns="http://www.w3.org/2000/svg">
<path d="M11.0769 70H2.87179V69.3846C4.61538 69.1795 5.02564 69.1795 5.02564 67.1282V54.8205C3.38461 55.0256 1.02564 55.0256 0.615385 58.718H0L0.205128 54H13.9487V58.718H13.3333C12.9231 55.0256 10.4615 54.8205 8.92307 54.8205V67.1282C8.92307 69.1795 9.53846 69.1795 11.1795 69.3846L11.0769 70Z" fill="white"/>
<path d="M32.0005 70H24.2763V69.3924C25.4801 69.1899 26.2826 69.1899 26.2826 67.7722V62.5063H20.7653V67.7722C20.7653 69.1899 21.7685 69.1899 22.9722 69.3924V70H15.4487V69.3924C16.6525 69.1899 17.455 69.1899 17.455 67.7722V56.4304C17.455 55.0127 16.4519 54.8101 15.4487 54.6076V54H23.1729V54.6076C22.1697 54.8101 20.966 54.8101 20.966 56.4304V61.0886H26.4832V56.4304C26.4832 54.8101 25.4801 54.8101 24.4769 54.6076V54H32.2011V54.6076C31.1979 54.8101 30.1948 54.8101 30.1948 56.4304V67.7722C30.1948 69.1899 30.9973 69.1899 32.2011 69.3924V70H32.0005Z" fill="white"/>
<path d="M33.8051 54H47.3116V58.7792H46.6882C46.0648 55.2468 44.4025 54.8312 41.3895 54.8312C40.1427 54.8312 39.5194 55.039 39.5194 56.0779V61.4805C41.8051 61.4805 42.9479 60.8571 43.3635 57.9481H43.9869V66.0519H43.3635C42.9479 63.1429 41.909 62.3117 39.5194 62.3117V68.1299C39.5194 69.1688 39.9349 69.3766 41.5973 69.3766C43.883 69.3766 46.2726 68.7532 47.7271 65.013H48.2466L47.2077 70H33.7012V69.3766C34.9479 69.1688 35.7791 69.1688 35.7791 67.7143V56.0779C35.7791 54.4156 34.7401 54.4156 33.8051 54Z" fill="white"/>
<path d="M63.9773 70H55.6696V69.3846C57.5158 69.1795 57.926 69.1795 57.926 67.1282V54.8205C56.285 55.0256 53.926 55.0256 53.5158 58.718H52.9004L53.1055 54H66.8491L67.0542 58.718H66.4389C66.0286 55.0256 63.5671 54.8205 62.0286 54.8205V67.1282C62.0286 69.1795 62.644 69.1795 64.285 69.3846L63.9773 70Z" fill="white"/>
<path d="M76.5542 70H68.5542V69.3924C69.7694 69.1899 70.5795 69.1899 70.5795 67.7722V56.4304C70.5795 54.8101 69.5669 54.8101 68.5542 54.6076V54H76.5542V54.6076C75.5415 54.8101 74.3263 54.8101 74.3263 56.4304V67.7722C74.3263 69.1899 75.339 69.1899 76.5542 69.3924V70Z" fill="white"/>
<path d="M98.4542 70H90.9542V69.4C92.3542 69.2 92.9542 69.2 92.9542 67.6V56H92.7542L87.2542 69.8H86.6542L81.1542 56.2H80.9542V67.2C80.9542 68.8 81.3542 69.4 83.3542 69.4V70H78.0542V69.4C79.8542 69.2 80.0542 69 80.0542 67.6V56.4C80.0542 55.2 79.6542 54.8 78.0542 54.6V54H83.7542L88.2542 64.8L92.7542 54H98.4542V54.6C97.0542 54.8 96.4542 54.8 96.4542 56.8V66.8C96.4542 68.8 96.8542 68.8 98.4542 69V70Z" fill="white"/>
<path d="M100.165 54H113.898V58.7792H113.264C112.841 55.2468 110.94 54.8312 107.877 54.8312C106.609 54.8312 106.186 55.039 106.186 56.0779V61.4805C108.51 61.4805 109.461 60.8571 109.884 57.9481H110.517V66.0519H109.884C109.672 63.1429 108.405 62.3117 106.186 62.3117V68.1299C106.186 69.1688 106.609 69.3766 108.088 69.3766C110.412 69.3766 112.841 68.7532 114.32 65.013H114.954L113.898 70H99.9541V69.3766C101.433 69.1688 102.067 69.1688 102.067 67.7143V56.0779C101.961 54.4156 100.905 54.4156 100.165 54Z" fill="white"/>
<path d="M125.625 59.0732C125.235 57.5122 123.869 54.7805 121.235 54.7805C120.064 54.7805 118.893 55.561 118.893 56.9268C118.893 58.0976 119.283 58.6829 121.039 59.4634L124.259 61.2195C125.039 61.6098 126.6 62.9756 126.6 65.3171C126.6 67.2683 125.235 70 121.235 70C119.088 70 118.21 69.2195 117.625 69.2195C117.235 69.2195 117.039 69.6098 117.039 70H116.454V64.3415H117.039C117.43 66.4878 118.796 69.2195 121.43 69.2195C124.064 69.2195 124.161 67.0732 124.161 66.6829C124.161 65.122 123.186 64.5366 121.82 63.9512L120.259 63.3659C116.649 61.4146 116.649 59.6585 116.649 58.4878C116.649 57.122 117.235 54 121.43 54C123.186 54 124.357 54.7805 124.844 54.7805C125.235 54.7805 125.43 54.3902 125.43 54H126.015V58.878H125.625V59.0732Z" fill="white"/>
<path d="M115.1 37.9C114.5 38.1 114.5 37.1 113.9 37.3C113.7 36.9 113.5 36.3 112.9 36.1L112.7 36.3C112.5 35.9 112.3 35.3 111.9 35.1V32.3C113.3 33.9 113.9 36.1 115.6 37.5C114.8 35.7 114.2 34.1 112.8 32.3C112.2 31.7 111.6 31.1 110.8 30.7C112 30.1 112.8 31.3 113.9 31.5L114.3 32.1C114.9 32.5 114.5 33.3 115.1 33.7C114.5 34.3 116.3 34.9 115.7 35.3C116.3 36.1 115.7 36.5 116.7 37.3C116.3 37.5 116.7 38.3 116.9 38.5C116.3 38.3 115.7 38.7 115.1 37.9ZM107 39.3L106.4 39.5C106.8 37.3 108.2 35.7 108.2 33.5C109.4 32.7 108.6 31.5 108.4 30.3L108 29.1L108.4 28.9C110.5 32.1 107.8 36.1 107 39.3ZM107.8 39.1L108 38.3L108.2 38.5C108.2 37.9 108.8 38.1 109.2 37.9C108.8 38.3 108.4 38.7 107.8 39.1ZM109.4 36.9C110 36.7 110.4 37.1 110.6 37.5C110.2 38.9 109.8 39.9 110.2 41.1C105.1 43.7 99.2 45.3 93.3 44.3C85.4 42.9 77.5 38.7 69.8 43.1L69.6 41.1L71.8 39.1C82 35.9 91.3 43.5 101.3 41.7C104.4 41.3 107 40.5 109.8 38.1C110.2 37.9 110.2 37.1 109.4 36.9C109.2 37.1 108.6 37.3 108.4 37.5C108.4 37.1 109 37.1 109.4 36.9ZM94.4 45.3C86.9 44.5 79.1 39.9 71.4 42.9C70.6 43.3 70 43.7 69.4 44.3C70.8 41.7 74.1 41.7 76.9 41.5C81.8 41.7 86.9 43.5 91.5 44.7C91.7 44.3 92.1 44.7 92.3 44.9C98.2 45.9 105.1 44.7 110 41.9C106 44.9 99.5 45.7 94.4 45.3ZM108.6 45.5C108.4 45.5 108.4 45.5 108.6 45.5L107.6 44.3C108 44.3 108.8 44.9 108.6 45.5ZM75.7 43.1L77.7 42.9L75.9 43.7L75.7 43.1ZM70.2 45.1C71.2 43.7 73 43.3 74.5 43.3C74.3 44.1 73.5 44.9 72.5 45.1C72 45.3 71 45.3 70.2 45.1ZM81.4 45.5C81.2 45.7 80.6 46.1 80.2 45.7L80 45.5C80.4 45.5 81 45.3 81 44.9C81 44.3 80.4 43.9 79.8 43.9C78.4 43.9 76.8 44.3 75.5 45.1C76.1 45.5 76.9 45.5 77.3 45.9C75.1 45.3 73 46.5 70.8 46.5C70.4 46.5 70.2 46.1 70 45.9C71.2 46.3 73 46.1 73.9 45.3C74.3 44.9 74.9 44.5 75.1 43.9C75.3 44.1 75.3 44.5 75.3 44.9C77.1 44.5 78.4 43.1 80.4 43.7L81.2 44.1C81.4 44.3 81.6 44.9 81.4 45.5ZM67.1 41.9L63.6 40.9L63.4 38.9C66.2 38.5 69.1 35.5 69.9 32.5C70.5 29.9 70.1 27.3 68.3 25.1C66.3 22.5 63.4 21.3 60.2 21.9C57.4 22.3 55.5 23.9 54.3 26.3C52.9 28.7 53.1 31.5 54.1 33.9L53.9 34.3L50.8 36.1C48.6 32.1 49 27.3 51.4 23.5C52.4 22.1 53.4 20.9 55.1 19.7L55.3 19.9C58.6 17.7 64.5 17.7 67.9 19.9L68.3 19.5C72.8 22.5 74.6 27.5 73.8 32.7C72.8 36.9 70.8 40.1 67.1 41.9ZM66.3 44.7C65.9 44.7 65.9 44.5 65.9 44.1V43.9C66.1 44.1 66.3 44.5 66.5 44.1C66.7 43.7 66.5 43.1 65.9 42.9C64.5 42.9 64.1 44.9 62.9 45.1C62.7 45.3 62.7 45.5 62.9 45.7C63.9 46.1 64.3 44.5 65.1 44.1C64.9 44.7 64.5 45.3 63.9 45.9C63.5 46.1 63.3 46.1 62.7 45.9C62.3 45.5 62.3 44.5 61.5 44.5C60.8 44.7 61 46.3 59.8 45.9C59 45.3 58.8 44.7 58.2 43.9C59.2 44.3 59.4 45.9 60.4 45.3C60.6 44.7 60 44.9 59.6 44.5C59 43.9 58.6 42.5 57.4 42.7C57 42.7 56.6 43.1 56.6 43.5C56.6 43.7 56.8 44.1 57 43.9C57.2 43.9 57.4 43.9 57.4 43.7V43.5C57.4 43.7 57.6 44.1 57.2 44.1C56.6 44.5 56.2 43.7 56.2 43.3C56.2 42.9 56.8 42.5 57.2 42.3C59.4 41.5 59.6 46.1 60.9 43.5C61.1 43.1 61.7 42.9 61.9 43.3C62.3 43.9 62.7 44.7 63.5 44.3C63.9 43.5 64.5 42.5 65.3 42.5C65.9 42.3 66.5 42.3 66.9 42.9C66.9 44.1 66.9 44.7 66.3 44.7ZM61.6 46.3C61.4 46.1 61.4 45.9 61.6 45.7C61.8 45.7 62 45.7 62.2 46.1C62 46.3 61.8 46.5 61.6 46.3ZM60.2 44.5L59.8 43.9H60.4C60.6 44.1 60.4 44.3 60.2 44.5ZM63.5 43.9L63.1 44.3L62.8 43.9C63 44.1 63.3 43.9 63.5 43.9ZM54.7 40.9L56.9 38.3C59.3 40.3 62.4 41.5 65.2 42.3C63.4 43.7 60.3 43.5 58.3 42.3C56.9 42.5 55.9 41.5 54.7 40.9ZM54.5 39.7L52.9 39.5C52.7 39.1 52.7 38.9 53.1 38.5C52.9 38.7 53.3 39.5 53.7 39.5C54.7 39.3 55.5 38.5 55.7 37.7C55.9 37.3 55.5 37.1 55.3 37.1L54.9 37.3C55.3 36.5 56.3 37.1 56.1 37.7C56.3 38.7 55.1 39.3 54.5 39.7ZM53.1 36.7C52.9 36.5 52.7 36.3 52.7 35.9C52.9 35.9 53.3 36.3 53.1 36.7ZM54.1 36.9C53.9 37.3 53.5 37.9 53.1 37.5L54.1 36.9ZM55.1 36.1L54.9 36.3V36.5H54.7C54.9 35.9 54.3 35.7 53.7 35.5C53.5 35.7 53.5 35.7 53.3 35.7C53.7 35.3 54.7 35.3 55.1 36.1ZM54.7 27.5L54.9 26.9L55.3 27.3L54.7 27.5ZM55.3 29.1C55.1 29.1 54.9 28.7 55.1 28.5C55.5 28.5 55.3 28.9 55.3 29.1ZM56.1 29.9C55.9 30.3 55.7 30.3 55.1 30.3C55.3 29.7 55.9 29.9 56.1 29.9ZM55.9 26.9C55.7 26.9 55.5 26.5 55.7 26.5C56.1 26.7 56.1 26.9 55.9 26.9ZM56.5 27.7C56.3 27.9 56.1 28.1 55.9 28.1C55.9 27.7 56.3 27.5 56.5 27.7ZM56.1 25.5C55.9 25.7 56.3 24.9 56.5 25.3L56.1 25.5ZM56.7 26.7C56.7 26.9 56.5 26.7 56.3 26.5L56.7 26.3C56.7 26.5 56.7 26.7 56.7 26.7ZM57.2 24.3C57 24.1 57.4 23.9 57.6 24.1C57.6 24.3 57.2 24.1 57.2 24.3ZM57.2 25.1C57.4 25.1 57.6 25.3 57.6 25.5L57.2 25.1ZM57.1 28.5C57.1 28.1 57.5 28.3 57.7 28.3L57.9 29.5C57.1 29.7 57.6 28.9 57.1 28.5ZM60.4 30.9C59.4 32.3 57.4 29.9 56.9 31.9L56.5 30.7L60.4 30.9ZM58.4 27.1C59 26.9 59 27.5 59.2 27.5C58.8 27.7 58.6 27.9 58.6 28.5H58.4C58.2 27.9 58.2 27.5 58.4 27.1ZM58.8 29.7H58.6H58.4C58.4 29.5 58.6 29.5 58.6 29.7H58.8ZM59.6 29.5L59.2 29.7H59L59.6 29.5ZM59.4 25.1C59.6 24.9 60 24.9 60.2 24.5C60 24.3 59.6 24.1 59.8 23.7C60.2 23.3 60.8 23.9 61 24.3C60.6 25.1 59.6 25.5 60 26.5C60.2 26.9 60.4 27.5 61 27.5C60.2 27.7 60.4 28.1 60.8 28.7V28.9C61 29.5 61.2 29.9 60.2 29.9C60.4 29.5 60.8 29.5 60.8 28.9V28.7C60.2 28.7 59.8 27.9 59.6 28.9C59.8 29.5 59.2 29.1 58.6 29.3L58.4 29.1C59.6 29.7 58.4 27.7 59.6 28.1C60.2 27.5 59.2 27.1 59 26.7L58.2 26.9C58.4 25.9 59.6 26.1 59.4 25.1ZM58.4 25.7C58 25.9 58.2 25.3 58.2 25.3C58.4 25.3 58.6 25.5 58.4 25.7ZM58.8 24.9C58.6 24.9 58.2 24.5 58.4 24.1L58.8 24.9ZM59.4 23.1L59 23.7L59.4 24.3C58.8 24.9 59 23.3 58.2 23.7C58.6 23.1 59.4 23.1 60 22.9L60.8 22.7C60.8 22.9 60.8 23.1 61 23.3C60.8 22.7 60 23.1 59.4 23.1ZM61 35.5L60.8 35.7V33.9L61 35.5ZM60.8 33.9V33.5H61L60.8 33.9ZM60.8 28.1L61 28.3L60.8 28.1ZM60.6 26.9C60.2 26.5 60 25.9 60.4 25.5L61 24.9C61.2 25.3 60.6 25.3 60.4 25.9L60.6 26.9ZM60.8 35.9L61 37.9C60.8 37.3 60.8 36.5 60.8 35.9ZM60.2 33.7L60.4 33.1L60.2 33.7ZM60.2 33.9C60.2 35.3 60.6 36.9 60 38.1C60 36.9 60 35.1 60.2 33.9ZM57.1 29.7C56.7 30.1 56.5 29.5 56.1 29.1C56.5 29.1 56.9 29.3 57.1 29.7ZM56.3 28.9C56.1 28.9 55.7 28.7 55.9 28.5H56.3C56.1 28.5 56.3 28.7 56.3 28.9ZM56.3 33.1C56.5 33.5 56.7 34.1 57.1 34.5C56.7 34.7 55.9 34.3 55.7 34.1C55.9 33.5 56.3 32.3 55.3 32.3C55.3 32.1 55.1 31.7 55.5 31.7V31.5C56.3 31.1 55.9 33.3 56.9 32.7C57.3 32.1 57.5 30.9 58.3 31.5C59.1 31.7 59.5 31.9 60.3 31.5C59.2 32.3 57.6 32.9 56.3 33.1ZM59.4 33.5L59.8 34.1H59.6L59.4 33.5ZM59 34.7L57.6 33.3L57.8 33.1L59 34.7ZM59.2 34.3L59.4 34.7L58 33.1L59.2 34.3ZM59.2 32.9L59.4 33.1L59.2 32.9ZM59.4 33.5L59.2 33.3V33.1L59.4 33.5ZM57.8 34.5C57.6 34.5 57.6 34.3 57.4 34.3C57.6 34.3 57.6 34.3 57.8 34.5C58.6 35.5 59.2 35.7 59.6 36.9C58.8 36.5 58.4 35.3 57.8 34.5ZM59.6 39.1L59 38.7C59.2 38.9 59.6 38.9 59.6 39.1ZM57.1 33.9L57.3 34.1L57.1 33.9ZM57.8 35.7L57.4 36.1C58 36.7 58.6 37.1 58.8 37.3C58 36.7 56.8 36.3 56.4 35.3C57.1 35.1 57.6 35.1 57.8 35.7ZM62.6 35.3C63 35.1 63 34.5 63.6 34.7L63.3 34.9L63.5 35.1L61.9 35.5C61.8 35.1 62.6 35.5 62.6 35.3ZM65.7 25.7C64.7 25.9 65.1 24.1 63.9 24.7C63.9 24.1 63.7 23.7 63.5 23.5C62.9 23.7 62.9 24.3 62.7 24.7C62.1 24.7 61.7 24.5 61.9 24.1L62.1 22.7C63.9 22.7 64.9 23.3 66 24.1C65.9 24.5 65.9 25.1 65.7 25.7ZM66.1 29.1C65.9 28.9 65.7 28.9 65.5 28.9L65.9 28.5C66.1 28.5 66.3 28.9 66.1 29.1ZM68.9 30.9H69.3V31.3L68.9 30.9ZM69.2 31.7L69 32.5C68.3 32.3 69.2 32.3 69.2 31.7ZM67.3 34.9C67.5 35.1 68.1 34.5 68.3 34.7C68.1 34.9 68.1 35.3 67.7 35.1L67.3 34.9ZM64.1 37.3C63.7 36.9 64.7 36.1 63.9 35.7C64.7 35.1 64.5 36.3 64.5 36.7C64.9 36.9 65.7 36.1 65.9 36.9C65.5 36.9 64.9 37.5 64.5 37.1L64.1 37.3ZM63.7 37.9H64.1L63.1 38.3L63.7 37.9ZM62.8 37.5H63.2L62.6 37.9L62.8 37.5ZM64.3 33.9L64.1 34.3C63.9 34.3 63.7 33.9 63.5 34.1C63.5 33.7 64.1 34.3 64.3 33.9ZM63.3 31.3L62.9 31.5L62.8 31.1C63.1 30.9 63.1 31.1 63.3 31.3ZM64.3 28.9L63.7 29.1L63.9 28.5C63.9 28.5 64.3 28.7 64.3 28.9ZM64.7 25.5H64.1C64.1 25.1 64.9 25.1 64.7 25.5ZM63.5 30.9L64.1 31.1C64.1 31.5 63.5 31.3 63.5 30.9ZM64.5 32.9L64.1 33.1C64.1 33.1 63.9 33.3 63.9 33.1H64.1C64.3 32.9 64.3 32.7 64.5 32.9ZM63.7 31.7C64.1 31.3 64.3 31.7 64.7 32.1C64.9 32.1 64.9 32.3 65.1 32.3C64.9 32.3 64.9 32.1 64.7 32.1C64.3 32.1 64.1 32.3 63.7 31.7ZM64.7 34.3C64.7 34.1 64.3 33.1 65.1 33.3C65.1 33.1 65.3 33.1 65.5 33.1C65.1 33.5 64.7 33.9 64.7 34.3ZM65.7 34.1H65.3H65.7ZM65.9 35.1C65.7 35.3 65.5 35.5 65.3 35.3C65.3 34.9 65.7 35.1 65.9 35.1ZM66.3 33.3L66.1 34.5V33.9H65.7C65.9 33.9 65.9 33.7 65.9 33.7L65.3 33.3H66.3ZM66.7 30.9H67.7V31.3C67.3 31.7 66.9 31.1 66.7 30.9ZM65.7 31.7V31.1C65.9 31.5 66.5 31.1 66.7 31.7H65.7ZM65.9 32.3C66.7 32.5 67.3 33.3 67.9 33.7C68.1 34.3 67.3 34.3 66.9 34.5H66.7C66.5 34.1 67.3 32.7 66.1 32.9H65.7L65.9 32.3ZM65.1 26.1C65.3 25.7 65.9 25.9 65.9 26.5C65.7 26.1 64.9 26.9 65.1 26.1ZM65.9 28.1L65.5 26.9C66.1 26.7 65.7 27.9 65.9 28.1ZM65.1 30.9C65.3 31.3 65.3 31.5 65.3 32.1C64.7 31.9 64.9 31.5 64.5 30.9H65.1ZM64.9 29.9L64.7 29.5L64.9 29.9ZM64.9 27.3C65.1 27.9 64.9 28.3 64.9 28.7C64.7 28.3 64.7 28.1 64.9 27.3ZM63.5 24.1V25.3C63.3 24.9 63.3 24.5 63.5 24.1ZM63.5 26.1C63.7 26.3 63.5 26.5 63.5 26.7C63.3 26.5 63.3 26.1 63.5 26.1ZM62.4 25.1C62.6 25.3 62.8 25.3 63 25.5L62.4 25.7C62 25.5 62.2 25.1 62.4 25.1ZM62 30.1V26.3C62.2 26.1 62.6 25.9 62.8 26.1C62.6 26.5 63 26.9 63.4 27.1C63.8 26.9 64.2 26.5 64.2 25.9C64.6 25.9 64.8 26.1 64.8 26.5C64.6 26.9 64.4 27.5 64.4 27.9C64 27.7 63.2 28.1 63.2 28.5C63.4 28.9 63.4 29.5 63.6 29.7C63.8 29.5 64 29.3 64.2 29.5L64.4 29.9C63.5 30.1 62.6 30.5 62 30.1ZM62.4 34.5L62.2 34.7V34.1L62.4 34.5ZM62.2 33.1L62.6 32.9L62.4 33.3C62.4 33.3 62.4 33.1 62.2 33.1ZM62 31.3L62.4 31.5H62.2L62 31.3ZM62.4 32.1L62.2 32.3V31.7L62.4 32.1ZM63.1 33.9C62.5 33.9 62.7 33.3 62.7 33.3C63.1 33.1 63.3 33.5 63.1 33.9ZM62.6 32.9C62.8 32.7 63.2 32.3 63.8 32.3C63.6 32.5 63.2 32.7 63.6 33.1C63.5 32.9 62.8 32.7 62.6 32.9ZM62.2 38.5L62 37.5C62.6 37.9 62.2 38.1 62.2 38.5ZM62 37.5V36.1C63 35.9 64 34.5 64.6 34.9C64.8 34.9 64.8 35.1 64.8 35.1C64.5 34.9 64.5 34.9 64.5 34.9C64.1 34.7 63.5 35.3 63.3 35.3C62.8 35.9 63.9 35.9 63.5 36.5C62.8 36.7 62.2 36.9 62 37.5ZM66.5 36.7L66.3 36.3H66.7C66.9 36.5 66.5 36.7 66.5 36.7ZM65.7 36.1L65.1 36.3L64.9 35.5C65.3 35.9 66.1 35.5 66.3 35.1C66.7 35.3 67.3 35.5 67.5 35.9C66.9 36.1 65.9 34.9 65.7 36.1ZM68.5 33.3C68.1 32.9 68.1 33.5 67.9 32.9C67.9 32.7 67.7 32.3 67.3 32.3C66.7 31.3 68.5 31.9 68.5 31.1C68.7 31.1 68.9 31.3 68.9 31.5L68.1 32.5C68.3 32.9 69.3 32.9 68.7 33.5C68.5 33.7 68.9 33.5 68.5 33.3ZM67.1 25.7V25.3C67.3 25.3 67.3 25.5 67.7 25.7H67.1ZM67.9 26.5H66.9C67.1 26.1 68.1 25.9 67.9 26.5ZM66.3 29.9C66.9 28.9 66.1 28.1 66.9 27.5L67.1 27.1L68.1 27.3L68.3 26.5C68.9 27.7 69.5 28.9 69.5 30.3H65.6C65.8 30.1 65.4 29.5 66 29.7C65.9 29.7 65.9 29.9 66.3 29.9ZM66.5 27.5C66.3 27.5 66.5 27.1 66.5 26.9C66.7 27.1 66.5 27.5 66.5 27.5ZM66.5 26.3C66.1 25.9 66.5 25.5 66.5 24.9C66.7 25.3 66.5 25.9 66.5 26.3ZM61.2 26.5L61.4 26.7L61.2 26.5ZM62.6 39.3L62.8 40.7L60.4 39.7L60.6 39.1L62.6 39.3ZM57.8 27.3C57.2 27.1 57.8 26.7 57.4 26.3C58.2 25.9 57.6 26.9 57.8 27.3ZM57.2 27.5C57 27.3 57 27.5 56.8 27.7C57 27.7 56.8 27.9 56.8 27.9V27.7C56.8 27.3 56.4 27.3 56.4 27.1C56.9 27.3 57.1 27.3 57.2 27.5ZM57.1 25.7C57.3 25.7 56.9 26.1 56.7 26.1C56.7 25.7 56.9 25.7 57.1 25.7ZM54.1 29.5C54.5 29.5 54.5 29.5 54.5 29.7L54.3 29.9L54.1 29.5ZM54.7 30.9C54.7 31.7 54.7 32.5 55.3 32.9C54.3 34.3 56.1 34.7 56.5 35.9C56.9 36.7 57.7 36.9 58.3 37.5C55.9 36.5 54.4 33.9 54 30.9C54.3 30.9 54.7 30.9 54.7 30.9ZM51.9 37.5L52.5 37.9L52.3 38.1C51.7 38.3 51.5 37.7 51.5 37.5C51.5 37.1 51.9 36.9 52.1 36.5C52.5 36.9 51.7 37.1 51.9 37.5ZM50 37.9L50.6 37.3V37.9H50ZM16.1 39.1L14.3 38.1C15 38.3 15.9 38.3 16.1 39.1ZM53.5 42.9C43.3 37.5 33.8 45.7 23.6 44.3C19.9 43.9 16.3 42.9 12.8 41.1C14 39.7 11.6 37.9 13.2 36.9C14.2 37.1 15.4 37.3 16 37.9C15.4 37.5 14.2 37.3 13.4 37.3C12.8 38.5 14.2 38.9 14.8 39.3C21.1 42.3 28.4 42.5 35.3 40.3C40.6 38.9 46.5 37.3 51.8 39.1L53.8 41.1L53.5 42.9ZM37 43.5C29.3 46.3 19.7 46.3 13 41.9C14 41.9 15.4 43.1 16.5 43.5C24.4 46.9 33.4 44.5 41.1 42.1C45.4 41.5 49.4 40.9 53.3 43.7L53.5 44.1C49.6 40.7 42.3 42.1 37 43.5ZM48.6 43.3C50.4 43.5 51.9 43.7 52.9 45.1C51.7 45.5 50.3 45.3 49.4 44.5C49.2 44.1 48.6 43.5 48.6 43.3ZM46 43.1C46.6 43.3 47.2 43.3 47.6 43.3V43.9C47 43.5 46.2 43.3 46 43.1ZM52.1 46.5C49.9 46.3 48.2 45.5 46.4 45.9C46.6 45.5 47.4 45.7 47.8 45.3C46.4 44.3 44.1 43.5 42.7 44.5C42.5 44.9 42.3 45.1 42.5 45.5C42.7 45.7 42.9 45.7 43.1 45.5C43.3 45.9 42.7 45.9 42.5 45.9C42.3 45.7 41.9 45.5 41.9 45.3C41.9 44.7 42.3 44.1 42.9 43.9C44.5 43.5 46.4 44.3 47.6 45.1C48 44.9 47.8 44.5 47.8 44.1C48.8 45.5 50.8 46.3 52.3 46.1L53.1 45.9C53.3 46.3 52.5 46.5 52.1 46.5ZM15.2 45.5C14.2 45.1 15.4 44.7 15.4 44.3C15.6 44.5 15.8 44.1 15.8 44.3L15.2 45.5ZM15.2 31.5C15.8 31.7 15.4 32.5 15.6 32.9L17.2 35.5L17.6 39.7L17 39.5L16.8 35.7C16.1 34.3 15 32.9 15.2 31.5ZM14.6 30.1C14.6 29.3 13.6 28.5 14.2 27.9C14.8 27.1 16 27.5 16.2 27.9C15.8 28.7 16.4 29.5 15.8 30.1C15.4 30.5 15 30.3 14.6 30.1ZM14.8 25.7C15.4 25.9 16 25.9 16.2 26.5C16.4 26.9 15.8 27.3 15.4 27.1C15 26.9 14.6 26.7 14.2 26.9C14 26.5 14.4 25.9 14.8 25.7ZM15.7 24.3C16.3 23.7 17.5 23.9 17.7 24.7C17.5 25.3 17.1 25.5 16.5 25.7C16.3 25.3 15.4 25.1 15.7 24.3ZM15.9 22.5C15.7 22.9 15.3 22.5 14.9 22.3C14.3 21.7 14.5 21.1 13.7 20.5C13.7 19.9 13.3 19.5 13.3 18.9C13.9 19.5 15.1 19.5 15.5 20.1C15.9 19.7 15.9 20.7 16.3 20.5C16.5 20.7 16.5 21.3 16.9 21.1L17.1 22.5C16.5 21.9 15.3 20.3 14.1 19.5L13.8 19.9L15.9 22.5ZM17.9 26.5C17.3 26.9 16.5 26.9 16.5 27.5C16.5 27.1 16.9 26.1 17.7 25.7C18.1 25.9 17.9 26.1 17.9 26.5ZM18.9 28.5C18.9 28.7 18.3 29.3 17.9 29.3C18.3 29.1 18.5 28.5 18.9 28.5ZM18.3 26.7L18.9 26.9C18.7 27.1 18.3 27.1 18.1 27.3L18.3 26.7ZM18.9 25.9C18.7 25.9 18.3 26.1 18.5 25.7L18.9 25.9ZM18.7 24.5C19.3 24.5 19.7 24.7 19.9 25.3L19.7 25.7C19.3 25.3 19.1 25.1 18.3 25.1C18.1 25.1 18.5 24.5 18.7 24.5ZM20.3 21.7C20.9 21.9 20.9 21.1 21.7 21.5C22.3 20.9 23.1 21.3 23.7 20.3C23.7 20.9 23.9 21.5 23.5 21.7C23.9 22.1 22.5 22.1 23.1 22.5C22.1 22.7 22.3 23.5 21.3 23.5C20.9 24.1 20.3 23.5 19.9 23.7C20.3 23.1 21.3 22.7 21.9 22.3C22.3 21.9 22.9 21.9 23.1 21.3C21.7 21.5 20 22.3 18.8 23.3C18.5 22.3 19.9 22.1 20.3 21.7ZM19.9 27.1L19.7 27.3C19.7 26.7 19.7 26.9 19.3 26.5V26.3C19.7 26.7 20.1 26.7 19.9 27.1ZM20.1 27.7C20.3 27.9 20.3 28.3 19.7 28.3H19.5C19.5 27.7 19.9 28.1 20.1 27.7ZM18.3 28.1L18.1 27.9C18.3 27.5 18.5 27.7 19.1 27.7C19.1 28.3 18.5 27.9 18.3 28.1ZM18.5 30.7C17.5 29.9 19.5 29.7 19.7 28.9C19.7 29.7 19.1 30.5 18.5 30.7ZM17.7 28.5C17.3 28.5 17.1 28.7 16.7 28.9C16.3 28.3 17.3 28.1 17.3 27.3C17.5 27.7 18.1 28.1 17.7 28.5ZM17.9 29.5L17.5 29.3L17.9 29.5ZM17.7 31.1C17.1 31.9 16.5 30.9 15.9 30.9C16.1 30.5 16.3 30.3 16.5 29.7C17.3 30.1 18.1 29.9 17.7 31.1ZM18.1 39.5C18.5 39.7 19.1 39.9 19.5 40.1C19.1 40.3 18.3 39.7 18.1 39.5ZM21.6 38.7L22 38.5C21.6 38.9 21 39.5 21.2 40.1C20.9 39.7 21.3 38.9 21.6 38.7ZM24.4 40.3C24.6 39.9 25 39.5 24.6 39.3C23.6 38.9 24 40.3 23.2 40.7C23.2 40.1 23.6 39.1 24.4 38.9C24.8 39.1 25.2 39.1 25.4 39.5L24.4 40.3ZM25 40.9L24.8 41.1V40.7C25.2 40.7 25 41.1 25 40.9ZM23.6 38.1C24.6 38.3 25.6 37.1 26.2 38.7L26 38.9C25.4 38.7 24.8 37.9 24 38.5C22.8 38.7 22.8 39.7 22.6 40.7C22.4 40.9 21.8 40.9 21.8 40.3C21.5 39.3 22.8 38.5 23.6 38.1ZM26.8 37.9C26.8 38.1 26.6 38.1 26.6 38.1C26.4 38.1 26.2 37.9 26.2 37.7C26.4 37.5 26.6 37.5 26.8 37.9ZM27.4 37.3L28.4 37.9L27.2 37.5L27.4 37.3ZM29.3 37.5L28.3 37.1C28.7 36.9 28.9 37.3 29.3 37.5ZM29.7 36.7C30.1 36.7 30.3 36.9 30.7 37.3L29.7 36.7ZM31.5 36.7C31.1 36.9 30.9 36.3 30.5 36.3C30.7 35.9 31.1 36.7 31.5 36.7ZM34 21.7C34.2 21.9 34.4 22.1 34.8 22.1C34.8 22.3 33.8 22.3 33.8 21.7C33.8 21.3 34 20.9 34.4 20.7C34.6 21.3 33.8 21.1 34 21.7ZM30.1 28.9C29.5 28.1 30.7 27.3 30.7 26.3C29.9 26.1 29.5 26.9 29.1 27.5C29.1 26.9 29.7 26.3 30.3 26.1C30.1 25.9 29.7 25.7 29.3 25.9C28.7 26.1 28.3 26.9 28.3 27.5C27.9 26.9 28.7 26.1 29.1 25.7L28.7 25.3C29.1 25.5 29.1 24.9 29.3 24.7C29.1 24.1 28.7 24.9 28.3 24.3C27.9 24.1 27.3 24.1 27.3 23.7C28.3 23.7 28.9 23.1 29.1 22.3C29.5 21.1 28.9 19.3 30.3 18.5C31.3 17.9 32.5 17.7 33.8 17.5L32.8 16.9C33.4 16.7 34.2 17.5 34.8 17.9C35 16.9 34.2 16.7 33.6 16.3C31.6 15.3 31.2 18.3 29.5 18.3V17.5C30.7 17.9 31.5 16.9 32.5 16.1C33.7 16.1 34.5 15.9 35.3 16.9C35.7 17.3 35.7 18.1 36.5 17.9C36.1 16.9 35.9 16.1 34.7 15.5L33.7 15.3C33.8 14.8 34.8 15 35 15C36 15.6 36.2 16.8 36.4 17.8H37C36.8 16.7 36.8 15.7 35.8 14.6C36.6 14.8 37 15.6 37.2 16C37.8 15.6 38.4 14.8 39.2 15.2C38.6 15.4 38 15.8 37.6 16.2C37.4 16.8 37 17.6 37.4 18.2C38 17.2 38.2 16.2 39.4 16.2C40 16 40.8 16.6 41.6 16.8C40.6 16.8 39.6 16.2 38.8 16.8C38.4 17.2 37.8 17.8 38.2 18.6C38.6 19 38.6 18.4 39 18.4C40.2 18 41 19.2 41.8 19.6C42 19 41.2 18.4 40.6 18C40.1 17.7 39.3 17.7 38.8 17.9C39.4 16.9 40.2 17.3 41.4 17.3L42.8 17.7C42.6 18.7 41.4 17.5 40.6 17.5C40.6 18.1 41.6 18.3 42 18.7C42.2 18.7 42.4 18.9 42.6 18.5V18.3L43.2 18.7L42.7 18.9L43.3 19.9C42.9 19.7 42.7 19.7 42.3 19.9L43.1 21.1C42.9 20.9 42.9 20.9 42.7 20.9C42.9 21.9 43.9 22.1 44.1 23.1C43.7 23.1 43.3 22.3 42.9 22.7C43.1 23.3 43.3 23.7 43.1 24.5C42.5 23.1 41.9 21.5 40.5 20.7C40.5 21.3 40.9 21.7 41.1 21.9C40.7 21.7 40.1 20.9 40.1 20.3L39.9 21.5C39.9 21.1 39.5 21.7 39.3 21.3C39.3 21.1 39.7 20.9 39.3 20.7C39.1 20.5 39.1 20.9 38.9 20.9L38.3 20.3C37.9 20.7 37.9 20.9 37.3 20.9C37.1 20.9 37.1 20.5 36.9 20.3L36.5 20.7C36.1 20.5 36.5 20.1 36.1 20.1L35.5 20.7C34.9 19.9 33.7 20.1 32.9 19.5C32.7 19.3 32.7 19.7 32.5 19.7C33.3 20.7 32.3 22.7 34.3 22.7C35.5 22.9 34.9 20.9 36.3 21.3V23.5C35.7 23.3 34.5 22.9 34.3 23.9L35.3 24.9C35.1 25.3 34.7 25.3 34.3 25.1C34 24.9 33.8 24.3 34 23.9C32.2 23.3 33.8 25.5 33 25.9C32.8 26.9 32.6 28.1 31.6 28.5C31.2 28.5 30.8 28.7 30.6 28.9C30.8 28.3 31.4 27.7 31.6 26.9C30.7 26.5 30.5 28.3 30.1 28.9ZM29.7 33.5C29.3 32.5 30.3 32.1 30.3 31.3C30.5 31.9 29.9 32.7 29.7 33.5ZM28.7 31.9C28.3 31.9 27.5 31.7 27.3 32.1C27.9 31.3 28.9 31.3 29.1 30.3C29.1 29.5 29.1 29.1 28.9 28.5C29.1 29.7 30.3 31.3 28.7 31.9ZM33.3 13.6H33.7C33.9 13.6 33.9 14 33.5 14C33.3 14 33.3 13.8 33.3 13.6ZM33.4 12.6H33.8V13H33.4V12.6ZM35 13.2C34.8 13 34.2 13.6 34.2 13.8C33.8 13.4 34.4 12.6 35 13.2ZM34.6 12.2C35 12.2 35 12.6 34.8 12.6H34.4C34.4 12.4 34.4 12.2 34.6 12.2ZM35.2 14C35.2 14.2 35 14.4 34.8 14.4V14C35 13.8 35.2 13.8 35.2 14ZM35.6 12.4C36 12.6 35.6 12.8 35.4 13L35.2 12.8C35.2 12.6 35.4 12.4 35.6 12.4ZM36.2 13.2L36.6 13.4V13.8H36.2V13.2ZM38.6 14C38.4 14.4 38 14.6 37.6 14.4C37.2 14.2 37.4 13.8 37.2 13.4C37.8 13.2 38.6 13.4 38.6 14ZM39.5 13.8C39.5 14 39.1 14.2 39.1 14C39 13.8 39.5 13.4 39.5 13.8ZM39.9 14.8C40.1 14.8 40.3 15 40.3 15.2C40.3 15.4 40.1 15.4 39.9 15.4V14.8ZM40.3 13.4C40.5 13.6 40.7 13.6 40.5 13.8C40.3 13.8 40.1 14 40.1 13.8C39.9 13.8 40.1 13.6 40.3 13.4ZM40.9 15.5C40.7 15.5 40.7 15.7 40.7 15.7C40.9 15.7 40.9 15.5 40.9 15.5C40.9 15.1 40.5 14.5 40.1 14.5L41.1 14.7C41.3 14.8 41.1 15 40.9 15.5ZM41.7 14C41.7 14.2 41.3 14.4 41.3 14.2C41.1 13.6 41.7 13.6 41.7 14ZM41.7 16.1L41.3 15.9C41.3 15 42.3 15.7 41.7 16.1ZM41.9 14.4C42.1 14.6 42.3 14.6 42.3 14.8C42.1 15 41.9 15 41.9 15C41.7 14.8 41.9 14.6 41.9 14.4ZM44.1 25.9L43.9 23.9C44.3 24.1 44.5 24.9 44.5 25.1L44.1 25.9ZM46.4 28.9C45.8 27.9 43.3 28.1 44.2 26.5C44.7 27.7 46.6 27.5 46.4 28.9ZM45.6 29.9C45.2 30.5 45.2 31.3 45 31.7C45.2 31.1 45.2 30.3 45 29.5C46.2 28.7 46.2 30.3 46.8 30.9C46 30.7 46 30.3 45.6 29.9ZM46.2 31.5L46.4 31.7C46 33.7 46.2 35.9 45 37.7C45.8 35.5 46 33.5 46.2 31.5ZM45.6 32.1C45.6 33.9 45 35.9 44.4 37.5C45.1 35.7 45.2 33.9 45.6 32.1ZM44.5 32.7C44.9 34.1 44.7 35.7 44.1 36.9C44.5 35.5 44.7 33.9 44.5 32.7ZM43.7 30.1C43.5 30.7 43.7 31.1 43.3 31.5C43.1 31.1 43.5 30.1 42.9 29.5C43.3 29.7 44.3 29.7 44.5 30.1C44.7 30.5 44.5 30.7 44.3 31.3C44.3 31.1 44.3 30.1 43.7 30.1ZM35.6 26.1L35 26.5C35.2 26.7 36 26.9 36.2 26.7C36.4 26.3 36.8 26.5 37.2 26.5C37.8 27.1 36.8 27.5 36.6 27.9C35.6 28.3 34.8 27.5 34.2 27.5C34 26.9 33.8 26.5 34 25.9C34.6 25.9 35 25.9 35.6 26.1ZM35.4 24.1C35.8 23.9 36 23.9 36.4 24.1C36.4 24.3 35.8 24.3 35.4 24.1ZM41.5 25.9C41.3 25.3 40.3 24.7 39.7 24.1L39.9 23.7C40.3 24.5 41.7 24.9 41.5 25.9ZM41.5 23.3C42.1 23.5 42.5 24.3 42.5 25.1L41.5 23.3ZM41.5 28.3C41.1 27.3 42.1 26.5 42.3 25.7C42.3 26.7 41.3 27.5 41.5 28.3ZM40.9 26.9L40.7 28.1C40.3 27.7 40.5 27.3 40.9 26.9ZM39.5 28.3V27.5V28.3ZM37.8 31.1L37.6 31.3L37.4 31.1H37.8ZM40.3 31.5C40.5 30.9 40.5 30.1 39.7 29.7H39.5C39.5 30.3 39.7 31.1 39.3 31.7C39.3 31.1 39.5 30.1 38.7 29.7C38.5 30.1 38.9 30.9 38.5 31.3L37.7 32.3C38.1 31.9 38.7 30.9 38.3 30.1C38.2 29.9 37.8 29.9 37.6 30.3C37.2 30.1 37.4 29.3 37.2 29.1C37.4 29.3 37.4 29.3 37.6 29.7C38 29.7 37.8 29.1 37.8 28.7C38.2 28.9 38 29.3 38.4 29.1L38.2 27.7C38.4 28.1 38.6 28.5 39 28.9C39.2 28.5 38.6 27.9 38.8 27.5C39 27.9 39.2 28.5 39.6 28.7L39.8 28.3C40 29.9 42 29.5 41.6 30.9C41.4 30.7 41.6 29.9 40.8 29.9H40.6C40.5 30.5 40.9 30.9 40.3 31.5ZM41.9 31.3L42.1 29.9C42.3 30.5 42.5 31.1 42.5 31.7C42.5 31.5 42.1 31.3 41.9 31.3ZM42.9 32.3L43.7 32.7L43.1 32.9L43.3 32.7L42.9 32.3ZM43.3 28.5L43.5 27.9L44.7 28.9C44.1 29.1 42.9 28.9 42.5 28.5C42.1 27.7 43.1 27.1 43.1 26.3C43.9 26.9 41.7 28.1 43.3 28.5ZM37.6 23.7C37.8 23.5 37.6 23.3 37.4 23.3C39 23.9 38.8 22.1 40.2 21.7C40.4 22.5 40.6 22.9 41.2 23.7C40.4 23.7 40.6 21.7 39.6 22.5C39.2 22.3 39.2 22.9 39 23.1V23.5C39 23.3 38.6 23.3 38.6 23.3C38.2 23.9 38.6 24.3 39 24.5C39.2 24.5 39.4 24.7 39.4 24.7C39.8 24.9 40.4 24.9 40.4 25.1C40.2 25.1 39.8 24.7 39.4 24.7C39.2 24.5 39.2 24.5 39 24.5C39 24.3 39 24.3 38.8 24.3C38.6 24.3 38.4 24.3 38.2 24.7C38.8 25.3 39.6 25.3 40.2 25.7C39.6 26.1 38 24.5 38 25.5L39.6 26.3L39.4 26.5L37.6 25.5C37.8 25.1 38.6 24.5 38 24.1C37.2 23.9 36.8 25.9 35.8 24.7C36.8 25.1 37.8 24.5 37.6 23.7ZM37.4 22.5C37.8 22.7 38 22.9 38.2 22.7C38 23.1 37.6 22.9 37.2 22.7C36.8 22.1 37.4 21.5 37.8 21.5C37.8 21.7 37.2 21.9 37.4 22.5ZM32.5 36.3C31.9 36.5 31.3 35.9 31.3 35.5L32.5 36.3ZM43.1 33.9C43.3 35.3 42.7 36.5 42.5 37.7C42.7 37.3 42.7 36.3 42.3 35.7L41.5 37.7C41.3 37.3 41.9 36.5 41.3 35.9L40.5 37.7C40.3 37.3 40.9 36.7 40.5 36.3C39.9 36.5 39.9 37.5 39.5 38.1C39.3 37.7 39.9 36.9 39.5 36.7C39.1 37.1 38.9 37.9 38.5 38.7C38.5 38.1 38.9 37.5 38.7 36.9L37.5 38.9C37.5 38.5 37.9 37.5 37.7 37.1C37.3 37.9 37.1 38.9 36.3 39.3L36.7 37.5C35.9 37.9 35.7 39.1 34.9 39.7C34.9 39.1 35.5 38.3 35.3 37.7C34.7 38.3 34.3 39.7 33.3 40.1C33.5 39.7 33.7 38.9 33.9 38.3C33.1 38.7 32.1 40.1 31.1 40.5C31.3 39.9 32.3 39.3 32.1 38.7C31.3 39.3 30.5 39.9 29.7 40.1C29.7 40.3 29.9 40.3 29.9 40.5C29.9 40.7 29.3 40.3 29.3 39.9C29.3 39.5 29.7 39.5 29.5 39.1C28.5 38.9 28.7 40.3 27.9 40.3L27.5 41.1C26.9 40.5 27.7 39.9 27.7 39.3C26.7 39.1 26.5 40.1 26.3 40.7V41.3C25.9 41.5 25.3 40.9 25.1 40.5C25.3 39.5 26.3 38.7 27.1 38.5C29.1 39.5 30.6 37.5 32.2 36.9C33.2 35.9 34.6 36.5 35.5 35.3C35.9 35.3 36.3 35.3 36.5 34.9C35.5 34.3 35.3 33.1 34.7 32.5C34.1 32.9 34.7 33.9 34.7 34.5C34.5 34.5 34.3 34.7 34.3 34.9L34.1 34.5L33.7 34.7C33.9 34.3 33.9 33.7 33.7 33.5L33.3 34.5C33.1 33.9 33.1 33.5 32.9 33.3C32.5 33.5 32.7 34.3 32.7 34.3C32.5 34.1 32.5 33.7 32.3 33.7C31.9 34.1 32.3 34.7 32.5 35.1C32.1 34.9 32.1 34.5 31.9 34.3L31.1 33.1C30.7 33.5 31.1 34.5 31.3 34.9C30.9 34.7 30.7 33.5 30.7 32.9C31.1 32.5 31.1 32.1 30.9 31.7L31.5 32.7C32.3 31.5 30.3 30.7 31.1 29.7C30.9 30.3 31.3 31.1 31.5 31.5C31.7 31.5 31.7 31.5 31.9 31.7C31.7 31.1 31.5 30.1 32.1 29.5L33.1 28.5C33.3 29.5 30.9 30.5 32.5 31.5C32.9 31.3 32.7 30.7 32.9 30.5L33.5 29.5C33.9 29.9 33.5 30.5 34.1 30.3C34.3 30.1 34.1 30.1 34.1 29.9L34.3 30.3C34.5 29.3 34.9 30.7 35.1 30.1L35.3 30.3C35.5 30.1 35.7 29.9 35.7 29.9V29.7C35.9 29.9 35.9 29.9 35.7 29.9C35.9 30.1 35.9 30.3 35.9 30.3L36.3 29.9C36.5 30.5 35.5 31.5 36.1 32.3C36.5 32.1 36.5 31.7 36.7 31.3C36.5 31.5 36.9 31.5 36.9 31.7C36.5 32.1 36.5 32.9 36.9 33.7L37.5 34.3C37.9 34.3 37.7 33.9 37.7 33.7C38.1 33.7 38.1 34.9 38.7 34.7L38.9 33.5C39.1 33.7 39.3 34.1 39.3 34.3L39.7 33.5C40.1 34.1 40.3 34.5 41.1 34.7C41.3 34.1 40.7 33.7 40.9 33.5C41.1 34.1 41.9 34.5 42.3 34.1C42.9 33.7 43.7 33.7 43.7 34.7C44.1 35.7 43.1 36.7 43.3 38.1H43.1C43.1 36.5 44.7 34.5 43.1 33.9ZM47.2 31.3C47.4 31.1 47.4 30.7 47.4 30.3C47.2 29.9 47.2 29.3 47.2 28.9C47.8 28.9 47.6 29.7 47.6 30.3C47.4 32.7 47.2 35.1 46.2 37.3C46.6 35.5 47.2 33.3 47.2 31.3ZM47.6 35.5L46.6 37.5C47.6 35.1 48.4 32.3 48 29.3C48.8 31.5 48.4 33.3 47.6 35.5ZM47.6 37.7C47.4 37.9 47.4 37.5 47.4 37.5C47.8 36.3 48.8 34.7 48.8 33.1C49.4 34.7 48.2 36.1 47.6 37.7ZM48.4 25.1C48.8 25.5 49.8 25.5 49.4 26.3L49.2 26.9L48.4 25.1ZM50 36.3C50.4 36.7 49.6 37.3 49.6 37.7L49.2 37.5L50 36.3ZM48.6 37.7H48.4L49.6 35.1C49.6 35.9 49 36.9 48.6 37.7ZM48 21.5C49 22.1 50.2 22.7 50.6 23.7C50.4 23.9 50.4 24.5 50 24.5C50 23.3 48.8 22.3 48 21.5ZM48.6 19.7C49.6 20.5 50.6 21.5 51.2 22.7L50.8 23.3C50 22.3 50 20.9 48.6 19.7ZM48 17.5C49.2 17.5 50 19.1 51 19.5C50.4 18.3 49.4 16.7 48.4 15.7C50.2 16.9 51.7 18.9 52.3 21.1C52.1 21.5 51.7 21.7 51.7 22.1C50.6 20.5 49.4 18.7 48 17.5ZM53.3 20.1L52.9 20.7C51.9 18.5 50.3 16.5 49 14.7C51 15.9 52.1 18.1 53.3 20.1ZM56.1 18.5C56.1 18.7 55.9 18.9 55.7 18.9L55.5 18.5C55.3 18.5 55.9 18.7 56.1 18.5ZM55.1 17.7V15.7L56.1 16.9C55.9 17.5 55.5 17.5 55.1 17.7ZM54.7 14.4L54.5 14.8C54.1 14.6 53.9 14 53.7 13.6C54.9 13.2 55.9 13.8 56.8 14C57 15 55.6 14.4 55.4 15.2C55.5 15.2 55.1 14.6 54.7 14.4ZM54.5 17.7C54.3 17.9 53.9 17.9 53.9 17.5C53.7 17.3 54.1 17.1 54.1 17.1C54.5 17.3 54.5 17.5 54.5 17.7ZM53.7 16.7H53.1C52.9 16.5 52.9 16.3 53.3 16.1C53.7 15.9 54.1 16.5 53.7 16.7ZM57.4 14.6C57.8 15 57.8 15.9 57.8 16.5C57.4 16.1 57.1 15 57.4 14.6ZM57.2 16.7C56.8 16.7 57 16.5 57 16.3L57.2 16.7ZM56.3 16.1C56.1 16.1 56.3 15.5 56.5 15.5C56.9 15.5 56.9 16.1 57.1 16.3C56.9 16.3 56.7 15.2 56.3 16.1ZM56.3 17.9L57.3 17.5L57.7 18.1L56.7 18.5L57.1 17.9H56.3ZM52.9 13C54.7 12.2 57 13.4 58.8 14C57.2 13.4 55.3 12.6 53.5 13C53.1 14 53.9 15 54.5 16C53.5 15.5 52.9 14 52.9 13ZM52.1 15.5C51.9 15.1 51.7 14.7 52.3 14.5C52.7 14.7 52.9 14.7 52.9 15.1C52.7 15.5 52.5 15.9 52.1 15.5ZM51.5 13.2C51.7 13 52.5 13 52.3 13.6C52.1 14 51.9 14 51.7 14C51.3 14 51.3 13.4 51.5 13.2ZM51.9 11.8C52.3 11.2 53.1 11.8 52.9 12.2C52.9 12.4 52.5 12.8 52.3 12.6C51.9 12.6 51.9 12.2 51.9 11.8ZM53.9 11.4C54.3 11.4 54.5 11.6 54.5 11.8C54.7 12.2 53.9 12.4 53.7 12.2C53.3 11.8 53.5 11.6 53.9 11.4ZM55.3 11.6C55.7 11.6 55.9 12 55.7 12.2C55.5 12.4 55.3 12.4 55.1 12.4C54.9 12 55.1 11.6 55.3 11.6ZM56.5 12C56.9 12.2 57.1 12.2 56.9 12.4C56.7 12.6 56.5 12.6 56.3 12.4L56.5 12ZM57.6 12.4C57.8 12.2 58 12.8 57.8 13H57.4C57.4 12.8 57.4 12.6 57.6 12.4ZM58.6 13C58.8 13 58.8 13.2 59 13.2C59 13.4 58.8 13.4 58.4 13.4L58.6 13ZM58.6 14.8C58.8 15 59 15 59 15.2C58.6 15 58.2 15 58.2 15.4V16C58.2 15.9 58.2 15 58.6 14.8ZM59.2 17.5C58.8 17.5 58.2 18.1 57.8 17.7C58.2 17.3 59 17.1 59.2 17.5ZM58.8 14L59.2 14.2L58.8 14ZM59.8 13.6C59.6 13.8 59.4 13.8 59.4 13.6C59.4 13.2 59.8 13.2 59.8 13.6ZM60.2 16.3L59.2 16.5C59.4 16.3 59.4 15.5 59.8 15.5L60.2 16.3ZM60.8 11.6L60.2 12.2C60 11.8 60 10.8 60 10.4C60.2 10.8 61.2 10.6 60.8 11.6ZM62.6 9.4C62.4 10.6 61.2 10.6 60.8 9.4H62.6ZM63.3 10.6C63.5 11.2 63.5 11.8 63.3 12.4C62.7 12.2 62.3 11.8 62.3 11.4L63.3 10.6ZM63.3 17.3C63 17.1 62.8 16.9 62.8 16.9L64 17.1L63.7 17.9C63.3 17.9 62.9 17.9 62.5 17.7C62.6 17.3 63.3 17.5 63.3 17.3ZM62.6 15.5L62.8 16.1L62.4 15.9L62.6 15.5ZM61.2 11.4C61.2 10.8 61.6 11 61.6 11C61.8 11.2 62.2 11.6 61.8 12C61.6 11.8 61.2 11.8 61.2 11.4ZM60.8 15.9C60.6 15.9 60.4 15.5 60.6 15.3L61.2 15.7L60.8 15.9ZM61 17.7L59.8 17.9C60 17.3 59.8 16.9 60.8 16.9C61 16.9 60.4 16.9 60.4 17.3C60.2 17.5 60.8 17.7 61 17.7ZM62 17.3C61.8 17.5 61.6 17.5 61.6 17.5H61.4C61.4 17.1 61.8 16.9 62 17.3ZM61 14.6C60.4 14.2 60.6 13.6 60.6 13.2C61.2 13 61.6 11.4 62 12.6C62.6 13 62.8 13.8 62.6 14.4C62.2 14.8 61.6 15 61 14.6ZM64.3 16.3H63.3L63.5 15.3C63.9 15 63.7 16.1 64.3 16.3ZM64.1 13.4C64.1 13.6 64.1 13.8 63.9 13.8L63.7 13.4H64.1ZM65.3 17.5C64.7 17.7 64.3 17.5 63.9 17.3C64.3 17.1 65.1 17.3 65.3 17.5ZM64.3 15.2C65.1 14 65.1 16 64.9 16.4C64.7 16.2 64.9 15.8 64.9 15.4L64.3 15.2ZM70 12.8C70.4 14.2 69.6 15.2 68.8 16C68.6 15.8 69.2 15.2 69.4 15C69.6 14.4 70.2 13.8 69.8 13.2C69 12.6 67.8 13 66.8 13.2L63.8 14.2C65.9 13.4 68.1 12.4 70 12.8ZM64.5 13C64.7 12.8 64.9 13.2 64.7 13.4C64.5 13.4 64.3 13.2 64.5 13ZM65.3 12.6C65.7 12.6 65.7 12.6 65.7 13V13.2C65.5 13 65.1 12.8 65.3 12.6ZM66.7 12C67.1 12 66.9 12.4 67.1 12.4C66.9 12.6 66.7 12.8 66.7 12.6C66.5 12.4 66.3 12 66.7 12ZM67.9 11.6C68.1 11.8 68.3 11.8 68.5 12C68.3 12.2 68.3 12.6 67.9 12.4C67.7 12 67.7 11.8 67.9 11.6ZM69 11.6C69.2 11.2 70 11.4 70 11.8C70 12 69.8 12.4 69.6 12.4C69.2 12.2 68.9 11.8 69 11.6ZM70.2 12C70.4 11.6 71.2 11.4 71.4 12C71.4 12.4 71.2 12.6 70.8 12.6C70.4 12.6 70.2 12.4 70.2 12ZM72 13.6C72 13.8 71.6 14.2 71.2 14C70.8 13.6 71 13.2 71.4 13C71.8 13.2 71.6 13.4 72 13.6ZM70.8 15.5C70.6 15.3 70.4 15.3 70.4 15.1C70.2 14.5 71.4 14.7 71.4 15.1C71.4 15.2 71 15.7 70.8 15.5ZM69.8 16.7C69.4 16.5 69.4 16.3 69.6 16.1C70 15.9 70 16.3 70 16.5L69.8 16.7ZM69 17.9C68.8 17.7 68.8 17.5 69 17.3C69.2 17.5 69.4 17.5 69.4 17.7C69.4 17.9 69.2 17.9 69 17.9ZM66.3 16.3C66.3 16.5 66.1 16.5 66.3 16.3V16.9C66.3 16.7 66.1 16.7 66.3 16.3C66.3 16.3 66.1 16.3 66.3 16.3C66.3 15.9 66.5 15.7 66.7 15.3C66.9 15.5 67.3 15.7 67.1 15.9C66.7 15.5 66.5 15.9 66.3 16.3ZM66.1 14.4C66.3 14.8 65.9 15.8 65.7 16.4C65.5 15.9 65.7 15 66.1 14.4ZM66.7 18.7C66.5 18.5 65.3 18.5 65.7 17.7C65.9 17.1 66.5 17.9 66.9 17.9C66.7 17.9 66.5 17.9 66.3 18.1C66.1 18.3 66.5 18.5 66.7 18.7ZM67.9 18.7L67.7 18.9L67.3 18.5L67.9 18.7ZM67.3 17.3C67.3 16.9 67.9 16.3 68.3 15.9V17.7L67.3 17.3ZM68.7 14.4C68.3 14.2 67.7 16.2 67.3 14.6C66.9 14.4 66.3 14.8 66.5 14.2C67.3 13.6 68.7 13.4 69.5 13.6C69.3 14.2 69.1 14.6 68.9 15L68.7 14.4ZM74.8 14C72.8 16.2 71.8 18.4 70.9 21L70.6 20.9C71.2 18.5 72.6 15.5 74.8 14ZM71.6 21.9L71.2 21.7C71.6 19.7 72.8 18.3 73.8 16.9C73.2 18.3 72.4 20.1 71.6 21.9ZM75.7 17.5C73.9 18.5 72.9 20.9 72.4 22.9C71.6 22.1 72.8 21.1 73 20.1C73.6 18.9 74.2 17.9 75.7 17.5ZM75.3 20.7C74.1 21.7 73.5 22.9 73.1 24.3C71.9 23.3 73.5 22.3 73.7 21.3C74.4 21.1 74.8 20.9 75.3 20.7ZM74 24.9L75.2 23.9C75.2 24.5 74.2 25.5 74 26.5C74 25.9 73.4 25.3 74 24.9ZM74.2 34.5V34.9V34.5ZM74.4 35.5L73.6 35.9L74.2 35.5H74.4ZM74.6 33.7L74.4 33.1L74.6 33.7ZM75.7 33.9C75.1 34.1 74.7 34.5 74.7 34.9C74.8 34.5 75.1 33.9 75.7 33.9ZM75.1 28.9C75.1 30.3 74.9 31.9 75.1 33.1L74.9 33.3C74.9 31.7 74.9 30.5 75.1 28.9ZM76.1 28.7L75.9 31.9C75.7 31.9 75.7 31.9 75.7 32.1C75.7 31.3 75.7 29.5 76.1 28.7ZM76.9 32.1C76.5 32.1 75.9 32.3 75.9 32.9H76.1V33.3H75.9C75.7 32.7 76.5 31.7 76.9 32.1ZM76.9 28.5L76.7 30.5L76.5 30.7L76.9 28.5ZM77.9 31.5C78.3 31.7 77.7 32.1 77.7 32.5L77.1 32.7C77.7 32.3 77.9 32.1 77.9 31.5ZM78.1 30.1C77.5 30.1 77.3 30.7 77.3 31.3C77.3 30.7 77.5 29.9 78.1 30.1ZM77.7 28.3C77.9 28.5 77.7 29.1 77.7 29.5C77.5 29.3 77.5 28.5 77.7 28.3ZM78.9 29.1C79.3 29.5 79.1 30.1 78.7 30.3C78.5 30.3 78.3 30.7 78.1 30.5C78.5 30.5 79.3 29.9 78.9 29.1ZM79.1 27.9C78.7 28.1 78.5 28.5 78.5 28.9V29.1C78.3 28.7 78.5 27.9 79.1 27.9ZM79.9 27.3C80.3 27.5 80.1 28.3 79.7 28.5L79.3 28.7C79.9 28.3 80.1 27.7 79.9 27.3ZM80.1 26.5L79.5 26.7L79.7 26.5H80.1ZM82.4 24.5C82.6 24.3 83.2 24.5 83.2 25.1C82.6 25.7 81.4 26.3 81.4 27.5C81.4 28.5 82.4 29.5 83.4 29.7C83 28.9 81.6 27.5 82.4 26.5L83.4 25.9C83 26.7 82 27.5 82.8 28.5C83.4 29.1 84.6 30.1 84 31.1L83.8 31.5C83.6 29.3 80.3 29.5 81.2 26.9C81.6 26.3 81.8 25.9 82.2 25.5C81.6 25.3 81 26.5 80 26.1L79.2 25.3C80.1 25.1 81.6 25.1 82.4 24.5ZM85.2 29.5L83.2 28.1V27.3C83.6 28.5 85.2 28.1 85.2 29.5ZM84.2 26.1C87.2 27.3 89.3 28.5 91.7 30.5L91.3 31.3C89.1 29.9 86.8 28.3 84.4 27.3L84.2 26.1ZM82.6 18.9C83.2 19.1 84 19.3 84.4 19.5C84 19.3 83 19.7 82.6 18.9ZM87.7 26.3C87.9 25.9 87.1 25.7 87.5 25.1L87.3 24.7C87.7 24.5 87.9 25.3 88.3 25.3C88.7 25.3 89.7 25.7 89.9 24.9C89.9 24.5 89.5 24.3 88.9 24.3C90.1 24.3 91.1 23.7 91.3 22.5C91.3 21.9 91.5 21.1 91.1 20.5C90.5 21.1 90.7 22.5 90.1 23.1C90.1 22.7 90.5 22.5 90.3 21.7C89.7 22.3 88.9 23.5 87.9 23.3C88.3 22.9 89.3 22.7 89.7 21.9C88.9 22.1 88.3 22.5 87.3 22.5C87.7 22.3 88.5 21.9 88.5 21.5C88.1 21.3 87.5 22.1 86.7 21.9C86.9 21.5 87.5 21.5 87.5 20.9L86.1 21.3L86.7 20.5C86.3 20.3 85.7 20.7 85.5 20.7C85.7 20.5 85.9 20.3 85.9 19.9C84.9 20.5 83.1 20.3 82 19.7C81.8 19.5 81.8 18.9 81.8 18.7C82 19.1 82.4 19.7 83 19.7C83.6 19.5 84.8 20.7 85 19.3C84.6 18.3 83.4 18.3 82.8 18.1C82 17.5 81 16.9 81 15.9C82 16.3 82.8 15.3 83.8 15.7L85.2 16.3C86 16.3 87 15.9 87.2 16.5C87.6 17.5 88.2 18.5 89 19.1C89.4 18.9 89.6 18.5 89.4 18.1C89.6 18.9 89.6 19.9 88.8 20.3C88.8 20.5 88.6 20.5 88.8 20.7C90.6 20.7 90 18.7 90.8 17.7L91 17.1C91.6 18.1 91.4 19.3 91.6 20.9C92.2 20.5 92.2 19.5 92.2 18.7C92.4 19.7 92.2 20.9 92.4 21.7C92.8 21.5 92.8 20.7 93 20.3C93.2 20.9 92.6 21.7 92.8 22.5C93.2 22.1 93.4 21.5 93.6 21.1C93.6 22.1 93.2 22.3 93.2 23.3C93.8 23.5 94.2 22.5 94.4 22.1C94.4 23.1 93.4 23.5 93.2 24.3C94 24.5 94.4 23.7 94.6 23.3C94.4 24.3 93.4 24.9 93 25.5C93.6 25.7 94.2 25.1 94.6 24.7C94.2 25.5 93.4 25.9 92.8 26.5C93.2 26.9 94 26.1 94.2 26.1L92.4 27.3C92.8 27.7 93.2 27.5 93.8 27.3C93.4 27.5 92.6 27.9 93.2 28.3C93 28.7 92 28.3 92 28.9C92.2 29.1 92.2 29.1 92.2 29.3C92.2 29.1 92 28.9 92 28.9C91.6 28.3 90.6 28.7 90.4 27.9C90.6 28.1 91 28.3 91 28.1C91.4 27.9 91.2 27.5 91 27.3C90.8 27.1 91.4 26.7 91 26.3C90.4 25.7 90 26.9 89.6 26.5C89.4 26.7 88.8 27.1 89.2 27.1C88.6 26.9 88.2 26.7 88.2 26.1C87.4 26.3 87 25.7 86.4 25.5C86.9 26.5 87.5 26.7 87.7 26.3ZM83 22.1C82.8 22.5 82.4 22.7 82 22.7C81 22.5 81 21.3 80 20.7C80.6 21.1 81.2 21.7 81.8 21.7C82 21.3 81.8 20.5 81.6 20.1C81.8 20.7 82 21.1 82 21.7C81.8 22.1 81.6 21.9 81.4 21.9V22.1C81.6 22.5 82.2 22.7 82.6 22.3C83.2 21.9 82.8 21.1 82.8 20.7C83.2 20.9 83.2 21.7 83 22.1ZM82.4 11.4C84 12.4 85.9 13.8 87.5 15C87.3 15.2 87.1 15.8 86.9 15.2L82.4 11.4ZM88.9 14.8C88.5 15.8 88.3 16.4 88.5 17.4C88.1 17.4 88.1 16.8 87.9 16.2C87.7 15.5 88.3 15 88.9 14.8ZM88.5 13.2L88.9 14.2H88.5V13.2ZM90.1 14V15.4L89.9 15C89.5 15.2 89.1 16.2 89.1 16.8C89.1 16.1 89.7 14.6 90.1 14ZM90.5 17.3L90.3 18.3C90.1 18.1 90.5 17.5 90.5 17.3ZM90.5 16.7C90.3 16.3 90.1 16.1 90.1 15.7L90.5 16.7ZM91.3 15.9C91.5 16.3 91.5 16.7 91.9 16.9C92.1 16.7 92.3 16.3 92.5 15.9C92.9 15.5 93.1 15.5 93.7 15.5C93.1 15.9 92.3 16.1 92.1 16.7C91.9 17.1 92.1 17.3 92.5 17.5C92.8 16.9 93 16.3 94 16.1C94.6 15.9 95 16.7 95.4 16.9L95.8 16.5L96.2 17.3C95.2 17.9 94.4 15.3 93.2 16.9C93 17.3 92.6 17.5 93 18.1L93.2 18.3C93.4 17.9 93.6 17.3 94.2 17.3C94.8 17.5 96 18.5 96.6 17.7L97 17.3C96.8 17.7 96.8 18.3 96.2 18.3C95.2 18.3 94 16.7 93.2 18.1C93.4 18.5 93.4 18.5 93.6 18.7C94.6 17.7 95.8 19.5 96.9 18.9L97.5 18.7C97.1 18.9 97.1 19.7 96.5 19.5C96.3 19.9 97.1 20.5 97.5 20.5C96.3 20.5 95.3 19.3 94.4 19.1C94 19.1 93.8 19.5 94.2 19.7C94.4 20.3 94.8 19.7 95 20.1C96.4 21.9 98.7 21.1 98.7 23.7C97.9 22.7 96.7 22.5 95.6 21.9L96.6 22.1C96.4 21.5 95.6 20.9 95 20.7C94.8 21.1 95.2 21.5 95.4 21.7L95.2 21.9V22.3C95.4 22.5 95.4 22.5 95.4 22.7C96.6 23.5 98.4 24.1 98.5 25.5C96.9 24.9 96.1 23.9 95.4 22.7L95.2 22.1L95 21.9C94.6 21.3 94 20.3 93.6 19.5L91.2 16.5V15.9H91.3ZM92.5 14.2C92.9 14.2 93.5 14.4 93.7 14.8C93.1 14.6 92.5 15 92.1 15.2C91.9 14.8 92.1 14.4 92.5 14.2ZM98.2 27.3C97.8 26.1 96.2 25.1 95.6 23.7C96.4 24.7 97 25.5 98.2 25.9C98.2 26.3 98.4 26.9 98.2 27.3ZM95.8 25.3L97.2 26.9C96.6 26.7 95.8 25.9 95.8 25.3ZM94.2 32.1C94 31.9 93.2 31.3 92.8 31.5C93 31.1 94 31.3 94.2 32.1ZM94.8 33.3L94.4 33.5C94.2 33.5 94 33.3 93.8 33.1C93.6 32.9 93.2 32.7 93.4 32.3C93.2 32.9 94 33.1 94.4 33.5C94.6 33.5 94.8 33.5 94.8 33.3ZM96.2 29.7H96.6C97.8 31.7 100.1 32.7 101.3 34.7C101.7 35.5 100.5 35.3 100.5 35.9C99.9 35.3 99.9 34.3 99.3 33.5C98.5 32.1 96 32.3 96.5 30.3C95.5 29.9 96.1 31.3 95.9 31.5C95.5 31.7 94.7 32.1 94.7 31.5C95 30.7 95.8 30.5 96.2 29.7ZM103.1 37.5C101.7 38.7 101.7 37.1 101.1 36.3L101.5 35.7L103.1 37.5ZM97.4 40.1C98.2 39.5 97.2 38.1 98.4 37.7C98.8 36.5 97.8 35.7 98 34.5C97.8 33.3 96.4 33.5 96.6 32.5L96.2 32.1C97.2 32.3 98.4 32.9 99.2 33.9C99.6 35.1 100.2 36.3 101.2 36.9C101.2 37.9 101.4 39.7 102.4 40.3C101 40.7 98.9 40.7 97.1 40.7C96.6 40.3 97.4 40.5 97.4 40.1ZM97 38.7C97.2 38.7 97.2 39.1 97.2 39.3C97 39.5 97 39.9 96.6 39.9C97 39.7 97.2 39.1 97 38.7ZM96.6 35.1C96.4 35.5 96.4 36.3 96.8 36.7C96.4 36.5 96.2 36.1 96.4 35.7L96.6 35.1ZM96.4 33.9C96.8 33.7 97.2 34.3 97.4 34.5C97.2 34.5 96.6 33.9 96.4 33.9ZM97.4 36.3C97.6 36.3 97.6 36.7 97.6 37.3L97.4 37.5C97.4 37.7 97.2 37.7 97.2 37.7L97.4 37.5C97.6 37.1 97.6 36.7 97.4 36.3ZM96.4 37.7C96.6 37.5 96.4 37.5 96.6 37.3C96.4 37.7 96.2 38.3 96.4 38.9C96 38.7 96.2 37.9 96.4 37.7ZM95.2 33.9L95.4 33.5C95.2 34.1 96 34.5 96.4 34.7C95.8 34.9 95.4 34.3 95.2 33.9ZM94.8 32.7C95.4 32.7 95.8 32.9 96 33.3V33.5C95.8 33.3 95.6 32.3 94.8 32.7ZM91.9 32.7C93.1 32.9 92.1 34.3 92.1 34.7C91.7 35.3 91.5 36.1 90.7 36.7C91.1 35.7 92.1 34.3 91.9 32.7ZM93.2 33.3C94.4 33.7 93.2 34.7 93 35.1L92.4 35.7C92.8 35.1 93 34.3 93.2 33.3ZM92.1 31.9L91.9 31.5C91.7 31.5 91.7 31.5 91.7 31.3L91.9 31.5C92.1 31.9 93.1 32.1 93.1 32.1C92.8 32.5 92.3 32.1 92.1 31.9ZM82.8 30.9C83.4 31.5 82.6 32.3 82.8 33.3C82.2 32.7 83 31.7 82.8 30.9ZM80.5 28.1C80.5 28.7 81.5 29.7 81.9 30.1C81.5 30.1 81.1 29.9 80.5 29.7V28.1ZM75.9 34.5C76.5 34.3 76.9 33.5 76.9 33.1C77.3 33.5 76.7 34.1 76.5 34.3L75.9 34.5ZM74.6 36.1C75.2 35.9 75.6 35.7 75.6 35.1C76 35.3 75.4 35.7 75.4 36.1C74.9 36.1 74.8 36.3 74.6 36.1ZM74.2 36.9C74 37.3 73.8 37.5 73.6 37.7H73C73.2 37.7 74 37.5 74.2 36.9ZM92.1 38.7C88.4 39.9 85.6 39.3 82.1 37.7C82.1 36.1 80.9 34.7 80.5 33.1C79.9 33.5 80.3 34.3 80.3 34.9C80.5 35.9 81.3 36.9 81.1 37.7C78.9 37.7 76.4 37.5 74 37.9C74.2 37.5 74.4 37.9 74.8 37.7L74.6 36.9C75 37.1 75 38.1 75.6 37.5C75.8 37.1 75.2 36.9 75.4 36.5C75.8 36.9 75.6 37.9 76.6 37.5C76.4 36.9 75.8 36.1 76 35.5C76.4 35.9 76.4 37.7 77.4 37.3L76.4 35.1L76.6 34.9C77 35.7 77 37.1 78 37.5C78.2 37.7 78.2 37.5 78.4 37.3C77.8 36.1 77.4 35.3 77.2 33.7C77.6 34.9 78 36.7 79 37.5C79.6 37.3 79 36.9 79 36.7C78.6 35.5 77.6 34.1 78 32.5C78.6 34.1 78.6 36.1 80 37.5H80.2C79.6 35.5 78.8 33.3 78.8 30.9C79 30.9 79 30.7 79.2 30.7C79.4 32.9 79.6 35.5 80.8 37.5C81.6 36.5 80.2 35.5 80.2 34.3C80 32.7 79.6 31.3 80.4 29.9C80.8 30.5 81.8 30.5 82.6 30.9C82.4 31.5 82 32.9 82.8 33.5L83.8 34.7C84.2 34.3 84 33.5 84 32.9L84.2 33.1C84.4 32.3 85.2 31.3 85.4 30.9C85.4 31.3 85.4 31.5 85.8 31.9L86 31.7L86.8 28.9C88.8 30.1 89.9 30.9 91.7 32.3C92.1 33.5 91.5 35.3 90.5 36.3C90.5 35.7 91.1 35.1 91.1 34.3C91.3 33.9 91.3 33.1 91.1 32.7C89.9 32.5 90.7 34.3 90.3 34.7C89.9 34.9 90.1 35.7 89.5 35.9C89.3 35.3 90.3 34.7 90.1 33.5C89.7 33.3 89.1 33.5 89.1 33.9C89.3 34.5 88.7 35.1 88.7 35.5C88.3 35.3 89.5 32.7 88.1 34.3C88.1 34.7 87.9 35.1 87.7 35.5C87.1 35.1 88.1 34.3 87.3 33.7C86.7 34.1 87.1 35.3 86.3 35.3C86.5 34.7 86.7 33.9 86.3 33.5C85.6 33.3 85.6 33.9 85.8 33.9V34.1V33.9L84.8 32.9C84.2 33.9 85.6 34.7 85.4 35.5C86 36.1 86.8 35.5 87.6 35.9C89.4 36.3 90.6 37.9 92.5 37.9C92.9 38.5 93.1 38.9 92.9 39.7C92.7 40.7 91.5 40.3 90.9 40.1C91.3 39.7 92.3 40.1 92.7 39.1L92.1 38.7ZM94.6 40.7C94.2 40.9 93.4 40.7 93.2 40.5C94.2 39.9 93.6 38.9 93.6 37.9C93.2 37.3 92.4 36.7 91.8 36.9C93 36.3 94 35.1 94.6 34.1C95 34.5 95.4 35.1 96 35.3C95.6 36.3 96.6 36.9 95.6 37.7C96.2 39.1 94.4 39.3 94.6 40.7ZM95.4 40.7C95 40.5 95.4 39.7 95.6 39.5L95.8 39.3C95.8 39.5 95.2 40.1 95.4 40.7ZM103.3 38.1C103.3 38.7 104.3 39.5 103.5 39.9C102.9 40.1 102.3 39.7 102.1 39.5C100.9 38.1 102.9 39.1 103.3 38.1ZM106 39.3C106.2 40.1 105 40.1 104.6 40.3C104.6 39.5 105.4 39.5 106 39.3ZM107.6 28.5C106.8 28.7 105.8 28.7 105.6 27.9C105 26.9 107.2 26.1 105.4 25.1L104.4 23.9L104.6 23.7C105 24.1 105.4 24.7 105.8 25.1C106 24.5 105.4 23.9 105.2 23.3C105.6 23.1 105.8 24.3 106.2 24.7L106.4 24.5C106.2 23.5 106 22.7 106.2 22.1L106.6 25.1C107.6 25.1 108.6 25.7 108.6 26.5C108.6 27.7 108.2 28.3 107.6 28.5ZM105.4 26.3L103.4 24.9C104.5 24.5 104.8 25.7 105.4 26.3ZM106 21.7C105.2 22.7 104 23.5 103.2 23.9C103.9 23.1 105 22.1 106 21.7ZM102.3 20.9C101.5 20.7 101.3 19.7 100.5 19.5V18.9C100.9 19.1 101.5 19.3 101.7 18.9C102.1 19.3 102.9 19.3 103.3 19.1L104.3 21.7C103.9 21.5 102.9 21.7 102.3 20.9ZM108 21.1C108.8 20.9 108.8 19.9 109.4 19.7C109.4 18.7 110.6 18.7 110.6 17.9C111 18.3 110.2 18.9 110.8 19.3C109.6 20.3 109.8 21.5 108.8 22.3C108.8 23.1 107.8 23.3 107.4 24.1C107.4 22.9 107.8 22.1 108 21.1ZM11.4 34.7C10.6 34.7 10.8 35.5 10 35.7C9.8 36.5 8.8 36.3 8.6 37.1C8.4 36.9 8.4 36.1 8 36.1C8.2 35.1 7.6 34.5 8.2 33.5C9 32.7 10.2 31.7 11.5 32.3C10.3 32.9 8.5 34.5 8.7 36.1C9.5 34.9 10.7 33.9 12 33.1C12 33.9 11.4 33.7 11.4 34.7ZM11.8 29.7C10.6 28.3 9.4 26.3 8.7 24.5C8.5 26.5 9.7 27.9 10.7 29.5C9.3 29.7 9.7 28.1 8.7 27.7C8.9 27.3 8.3 26.9 8.1 26.5C7.7 25.3 7.9 24.3 8.3 23.1C8.7 23.9 9.7 24.3 10.1 25.1C10.9 24.9 10.5 26.1 11.1 26.1C11.5 26.3 11.3 27.1 11.7 27.1C11.6 28.1 12.2 28.9 11.8 29.7ZM22.8 29.1C23 28.3 24 28.7 24.4 28.5C24.6 29.5 24 29.9 23.2 30.5C23 31.3 22 31.3 21.4 31.9C22 31.1 23.2 30.3 23.6 29.1C22.4 29.5 21.8 30.5 21 31.3C21.3 30.3 22 29.5 22.8 29.1ZM22 33.1C23 32.7 23.8 33.5 24.8 33.3C25 33.9 25.6 33.9 25.8 33.9L26.2 34.5C24.8 35.1 23.4 35.5 22.1 34.3C21.7 34.5 21.7 34.1 21.5 33.9C22.7 34.3 24.3 34.7 25.2 34.5C24.8 33.5 23 33.5 22 33.1ZM101.3 28.9C101.5 30.7 103.3 30.9 104.6 31.9L105.6 32.3C105 32.5 104.2 32.9 103.6 32.1C102.4 32.7 102.2 31.5 101 31.5C100.8 30.9 99.8 30.5 100 29.7C99.8 29.5 99.8 29.1 100 28.9C99.6 27.9 100.4 27.7 100.2 26.7L100.8 27.1V26.9C101 27.7 101.8 27.7 102.2 28.5C102.4 28.7 102.8 28.9 103 28.7C103.2 29.1 103.6 29.7 104.2 29.7C104.4 30.7 105.8 30.7 106 31.9C104.6 31.1 102.5 30.5 101.3 28.9ZM111.1 27.5C111.9 27.7 112.3 26.9 112.7 26.3C113.7 26.3 113.9 25.1 114.5 24.3C115.1 24.1 115.7 23.7 115.9 22.9C116.5 24.3 115.7 25.3 115.3 26.5C115.3 27.3 114.1 27.7 113.9 28.5L111.3 29.1C112.7 28.1 114.3 27.1 115.2 25.5C115 25.3 115.4 25.1 115 25.1C113.8 26.5 112.2 27.9 110.7 28.7C110.5 28.3 110.9 27.9 111.1 27.5ZM117.4 38.1L117.8 37.9L117.2 36.9L117.4 36.7L116.4 35.7L116.8 35.5C116.6 35.1 116.2 34.9 116.2 34.5C116.8 33.9 115.2 33.7 115.4 33.1L116 32.9L115 32.3C114.8 32.1 114.6 31.9 115 31.7C114.6 31.1 113.4 31.3 113.2 30.5C112 30.3 110.4 30.3 109.3 30.5C109.3 30.3 109.1 30.1 109.3 30.1C111.1 29.5 113 29.9 114.4 28.7C114 27.9 115.4 27.3 115.8 26.5C115.2 25.7 116.4 25.1 116.4 23.9C116 23.3 116 22.5 116.2 21.7L116 21.5C115.4 22.1 114.8 23.5 113.8 23.3C113.4 24.1 113.2 24.9 112.6 25.3L112.4 24.9C112 25.5 111.8 26.1 111.4 26.5C111.2 26.7 111 26.7 111 26.5C111 26.5 110.8 26.1 110.8 26.3L109 29.3C108 28.3 109.2 27.5 109 26.5C109.2 25.5 108 25.3 107.4 24.7L109.8 22.1L109.4 21.7L110.6 20.3L110.4 20.1C110.6 19.5 111.4 19.1 111.6 18.3C111 17.7 111.8 16.5 111.2 15.5C110.4 15.7 110.6 16.9 109.8 17.5C109.6 18.7 108.6 18.5 108.4 19.7C107.6 19.7 107.4 20.9 107.2 21.3L106.8 19.9L105 21.3C104.4 20.3 104.4 19.1 103.2 18.3C102.8 19.1 101.8 18.3 101.4 18.3C100.8 18.7 100 18.1 99.2 17.9L99.8 19.1C98.8 20.3 100.8 19.7 100.6 20.7C101 20.9 101.6 20.9 101.8 21.3C102 21.9 103 21.7 103.8 21.9C103.2 22.9 101.6 23.3 101.6 24.7C102.8 25.1 103.8 25.7 104.7 26.5C104.7 27.1 104.7 27.9 104.9 28.5C105.5 28.9 106.1 29.5 107.1 29.3C107.5 30.3 108.1 31.5 107.7 32.7C106.9 32.1 106.1 30.9 105.5 29.9L105.1 30.1C104.5 29.7 104.3 28.9 103.9 28.5C103.3 29.1 102.9 27.3 102.1 28.1C101.9 26.7 100.9 27.5 100.7 26.1C100.1 26.3 99.7 25.5 99.3 25.1C99.1 25.7 99.5 26.3 99.3 26.9L98.9 27.1C99.1 27.7 99.3 28.3 98.7 28.7C98.9 29.3 99.5 30.1 98.9 30.1C99.1 30.7 100.5 30.7 99.9 31.5C100.5 31.7 101.3 31.9 101.5 32.5L102.7 32.7C103.1 32.7 103.9 33.1 103.3 33.7L103.9 33.5C104.7 33.1 106.1 32.7 106.9 33.7C107.5 35.1 106.3 36.3 106.1 37.7L103.9 39.3C103.5 37.7 103.3 36.7 101.9 35.7C101.3 32.7 98 32.1 96.8 29.7C94.8 27.7 94.8 31.9 92.9 30.7L93.5 29.9C93.7 30.1 94.1 30.5 94.3 30.3C94.1 29.9 93.9 29.1 94.1 28.9L94.7 29.3C95.3 28.7 94.3 28.5 94.5 27.7C94.9 28.3 95.5 28.9 96.3 28.9C96.1 28.3 94.9 27.5 95.1 26.7C95.7 27.7 97.3 27.9 96.9 29.3C97.3 29.7 97.3 29.3 97.9 29.5L98.3 26.7H99.1C98.7 25.3 99.9 22.5 97.9 21.7L98.7 20.5L97.5 20.3C98.1 19.5 98.9 18.5 98.5 17.7C97.9 17.9 97.9 18.9 97.1 18.7C97.5 17.7 96.9 16.5 96.1 15.7C95.8 15.5 95.8 14.8 95.4 14.8C95.2 15.2 95.8 15.4 95.6 16L94.8 14.8L94.6 15.8C94 15.4 93.8 14.6 93 14.4C92 14 91.4 14.8 90.8 15.2C90.6 14.4 90.6 13.6 90 13C89.6 13.6 89.6 14 89.2 14.2C89 14 88.6 13.6 88.8 13.2C88.6 13.4 88.4 12.6 87.8 12.6C87.4 13.2 87.4 14 87.4 14.6C85 13.2 82.3 11.2 79.9 9.6H79.3L79.1 10L86 16.2C84.8 17.2 83.8 15 82.5 15.6C81.9 16.2 81.1 15.4 80.5 16.2C79.5 17.4 81.3 18 81.5 18.8L81.3 19.2C81.5 19.8 80.5 20.4 80.7 21C79.7 20.8 78.9 21.2 78.3 21.6L78.5 21.8C78.7 21.6 78.9 22 78.9 21.8C80.7 21.4 80.3 24.6 82.4 23.8C83.4 23.4 83.8 22.4 83.6 21.2C84.2 21.4 85 21.6 85.6 22.2C87 22.4 86.8 23.8 87.2 24.8C87 25.2 86.4 25.2 86.6 25.4L86.2 25.2C85.8 25.4 85.8 25.8 86 26.2H85.8C85.6 25.9 84.8 25.9 84.8 25.3C84.6 25.5 84.4 25.7 84.2 25.5C84.8 25.5 84.6 24.9 84.6 24.3C84.2 25.3 83.4 23.7 82.6 24.1C81.4 25.1 80.2 24.3 78.9 25.3C78.5 25.9 78.3 26.3 78.3 26.7C78.7 26.5 78.9 25.9 79.3 26.3L78.7 27.5C77.3 28.1 75.9 28.7 74.8 28.7C74.6 26.7 75.6 25.1 77 23.5C76 23.3 75 23.9 74.2 24.5C74.6 22.9 76 21.3 77.3 20.5C76.3 20.1 75.1 20.7 74.3 20.9C74.7 19.1 76.3 18.3 78 18.1C77 17.1 75.6 17.7 74.7 17.7L75.7 16.5L74.5 16.7L75.1 15.5C75.5 14.7 76.9 14.3 77.1 13.5C73.4 14.1 71.6 17.9 70.6 21.3L68.8 19.7C69 19.5 69.2 19.1 69.6 19.1C70.2 19.1 70.4 18.3 70.4 18.1C70.8 17.9 71.4 17.5 71.2 16.9C72.6 17.3 72 15.3 73 14.9C73.6 13.9 72 13.7 72.6 12.9C72.4 12.3 72.2 11.9 71.6 11.7C71 11.9 70.8 11.5 70.2 11.5C69.6 11.7 69.2 11.7 68.2 11.7C67.8 12.9 66.8 11.5 66.4 12.7C65.4 12.5 65.2 13.3 64.4 13.1V10.2L63.6 10.6L64 9.8L59.8 9C59.8 9.4 60.2 9.4 60.2 9.8L59.6 9.6L59.4 12.6C59.2 12.4 59 12.2 58.4 12.4C58.2 11.6 57.2 12.4 57 11.4C56.2 11.8 56 10.6 55.2 10.8C54.6 11.8 54.4 10.4 53.6 10.6C53 11.8 51.8 10.2 51.4 11.6C51.8 12.6 50.4 12.8 50.8 13.8C51.2 14.2 51.4 14.6 51.2 15.2C51.4 15.8 51.8 16.2 52.4 16V16.4C52.6 16.8 52.8 17 53.4 17C53 18.4 55 17.6 55 18.8L53.6 19.8C52.4 16.8 49.9 13.8 46.9 13.4L48.3 14.6L48.5 14.8V15L48.3 14.6L47.9 15C47.3 14.6 46.5 14.2 45.9 14.2C46.2 15 47.8 15.7 48.2 16.9C47.4 16.7 46.2 16.3 45.4 16.7C46.4 17.5 47.6 18.1 48.4 19.1L46.8 18.7C47.4 19.7 48.8 20.7 49 21.7C48 21.3 47 20.7 46 20.9C47.4 21.9 49.1 23.3 49 25.3C48 24.5 47 23.7 46 23.9C47.8 25.1 48.8 26.7 48.8 28.9C47 29.5 46.8 27.3 45.3 27.1C44.9 26.5 44.9 25.7 45.1 24.9C44.9 23.9 44.7 22.3 44.1 21.5L44.5 21.3C44.1 20.7 44.1 19.3 43.3 18.7C43.5 18.5 43.7 18.1 43.5 17.9C43.1 18.1 42.7 17.5 42.5 17.3C41.7 17.1 42.3 16.3 42.3 16.1C42.5 15.5 42.9 14.3 42.1 13.9C41.3 13.3 40.1 13.3 39.1 13.3C38.9 12.9 39.3 12.1 39.1 11.7C38.5 12.1 38.5 12.1 37.9 12.7C38.1 13.1 38.5 13.3 38.3 13.7L37.5 12.9L36.8 13.4L36.6 13.2L37.4 12.4L36.6 11.2L36.2 12.8C35.2 12.2 34 11.6 32.9 12.2C31.9 13 32.9 14.4 31.9 15.2C30.9 15.2 30.7 16.4 30.1 17C29.5 17.6 28.9 16.3 28.5 16.9C28.1 17.5 28.1 18.3 28.5 18.9C28.3 20.3 28.7 21.9 27.5 22.9C26.9 23.3 26.3 22.9 26.1 22.5C25.7 23.1 25.9 24.1 26.5 24.7L25.9 25.1L27.3 26.1C26.3 26.7 27.1 27.9 26.5 28.7C26.9 29.5 26.7 30.1 27.5 30.9L26.9 31.5C26.5 32.1 27.1 32.7 27.1 33.1C28.1 33.5 27.3 32.3 28.1 32.5C28.5 32.5 28.7 32.9 28.7 33.1C29.1 34.1 29.9 34.7 30.5 34.9C30.3 34.3 30.1 33.5 30.3 32.9C30.5 33.7 31.3 34.9 30.3 35.5L26.4 37.1C24.2 37.9 21.1 36.7 20.5 39.7L18.1 38.3C18.5 36.9 16.7 34.7 18.7 33.7C20.1 33.3 20.9 34.7 21.8 35.3C22.8 34.9 23.2 36.1 24.2 36.3C24.2 35.3 25.2 36.5 25.4 35.9C26.4 36.1 26.4 35.3 27.4 35.3C27.6 34.7 26.2 34.7 26.6 33.9H26.4C26 33.9 25.4 33.7 25.4 33.3H24.6C24.2 32.7 23.4 33.5 23.2 32.7C22 32.5 21.2 33.3 20.4 33.3C21.2 32.7 22.2 32.1 22.8 31.5C23 31.3 23.8 31.1 23.6 30.9C24.8 30.3 24.8 28.7 25 27.7C24.4 27.7 24 28.7 23.2 28.3C22.6 29.3 21.2 28.7 21.2 29.9C20.6 29.9 20.6 31.1 20 30.9L20.4 31.5C19.8 32.7 17.6 32.7 17.1 33.7C16.7 33.1 15.9 32.5 16.3 31.7C16.7 31.9 17.3 32.1 17.7 31.9C18.3 30.9 19.7 30.9 19.9 30.1C20.3 29.7 19.9 28.9 20.5 28.5C21.1 27.5 20.5 26.5 20.3 25.7C20.5 24.9 19.7 24.1 19.1 23.9L21.1 24.3C21.7 23.9 22.5 23.9 22.9 23.1C23.9 22.7 23.9 21.7 24.3 20.9L24.1 19.1C23.5 19.3 22.9 20.7 22.1 20.3C21.5 21.1 20.9 20.7 20.3 21.3C19.5 20.9 19.1 22.3 18.1 22.3L17.9 23.5L17.7 23.3C17.5 22.5 17.7 21.3 17.3 20.5C16.9 20.7 16.9 19.9 16.5 19.7C15.9 19.9 15.9 18.9 15.5 19.3C14.7 18.9 13.5 18.5 12.5 18.5C12.9 19.5 12.9 20.3 13.7 21.1C13.9 21.5 13.5 21.7 14.1 21.9C14.1 23.1 15.7 22.9 16.3 23.1C15.5 23.3 14.9 23.7 14.7 24.9C12.7 25.3 13.9 27.3 13.3 28.5C13.5 29.5 13.9 30.5 14.7 31.1L14.5 32.3L12.4 30.9L12.6 28.7C12.2 28.1 12.2 27.5 12.2 26.9C11.6 26.7 11.2 25.7 10.8 24.9L10.4 25.1C9.8 24.1 8.6 23.1 8 22.3L7.8 22.7C8 22.9 7.4 23.3 7.6 23.1L7.2 23.5C7.4 24.3 7 24.5 7.2 25.1C7.2 25.3 7.4 25.7 7 25.7L7.4 26.7C7 27.3 7.8 27.5 8 27.9C7.8 28.9 9.2 28.7 8.8 29.7C10.2 30.3 11.8 31.1 12.5 32.3C11.3 32.3 10.5 31.9 9.4 32.1C9 32.9 8 32.3 8 33.3C6.6 33.5 7.4 34.3 7 35.3C7.4 35.5 7.2 36.3 7.4 36.7C8 36.9 7.8 37.9 8.4 38.5C8.6 37.9 8.8 37.5 9.4 37.1C10.2 37.1 10.2 35.7 11.2 35.7C11.2 35.1 12.2 35.5 12 34.7C12.8 34.3 12.6 32.9 13.8 33.1C15.6 33.9 16.2 35.7 16.4 37.1C15.2 36.7 13.6 35.9 12.7 36.9C11.8 37.9 12.8 38.9 12.8 39.9C13 40.5 12 41.3 12.4 42.1C12.8 43.3 14.2 43.5 15.2 44.1C15 44.7 14 45.1 14.4 45.7C14.8 46.3 15.4 46.7 15.8 46.7C15.8 45.9 16.4 45.3 16.8 44.7C18.2 45.3 19.9 45.7 21.3 45.9C28.6 47.9 35.3 44.5 42.1 43.3L41.5 44.3C41.3 44.9 41.5 45.9 42.1 46.1C42.7 46.5 43.5 46.5 44.1 45.9C44.5 45.5 44.3 44.7 43.9 44.5C44.9 44.5 45.5 44.7 46.3 44.9C45.5 45.7 45.1 46.1 45.1 47.1C47.9 45.3 50.6 47.7 53.8 46.9C56 45.9 54 43.3 54.8 41.7L56.2 42.7C55.8 43.3 55.8 43.9 55.8 44.5C56 45.1 56.4 45.5 57 45.5C58.2 44.3 58.4 46.3 59.2 46.7C59.6 46.9 60.4 46.9 61 46.7L62 47.1C62.6 46.5 63.2 46.9 64 46.9C65 46.7 65 45.5 65.8 45.1L66 45.3C66.6 45.5 67.2 45.5 68 44.9C68.2 44.3 68.2 43.5 67.6 42.7L69.2 41.7C69.8 42.9 68.8 44.7 69.4 45.9C69.8 46.7 70.6 47.1 71.6 47.1C74.2 46.9 76.7 45.5 79.1 47.1C79.3 46.1 78.5 45.5 77.9 45.1C78.5 44.7 79.3 44.5 80.3 44.5C79.9 44.7 79.9 44.9 79.9 45.3C80.1 45.7 80.3 46.3 80.9 46.3C81.5 46.5 82.5 46.3 82.9 45.7C83.3 44.9 82.9 43.9 82.5 43.3C85.3 43.5 87.2 44.5 90 45.1C95.9 46.7 102.2 46.5 107.7 44.5C108.3 44.9 108.9 45.9 108.9 46.5C109.5 46.1 110.1 45.7 110.1 44.9L109.3 43.9C109.9 43.5 110.7 43.3 111.5 42.7C112.1 42.1 111.9 41.1 111.7 40.5C111.1 39.1 113.1 37.7 111.7 36.7C111.1 36.1 110.3 36.3 109.5 36.5C110.5 35.1 110.5 33.1 110.7 31.5C111.1 31.3 111.3 31.1 111.7 31.5C112.7 32.7 111.5 34.9 112.3 36.1L112.5 35.9C113.1 36.1 113.1 36.9 113.5 37.1C113.7 36.7 113.9 36.9 114.1 37.1C114.1 38.5 115.3 37.5 115.9 38.9C116.3 38.5 116.5 39.3 117.1 39.3C117.5 38.7 118.3 39.5 118.9 39.5C117.8 39.1 117.4 38.7 117.4 38.1Z" fill="white"/>
<path d="M39.2012 15.9002C38.6012 15.7002 37.8012 15.7002 37.2012 15.7002L38.2012 16.9002C38.6012 16.7002 39.0012 16.5002 39.2012 15.9002Z" fill="white"/>
<path d="M83.2007 18.7002C82.6007 18.9002 82.2007 19.3002 82.8007 19.9002C83.4007 20.1002 84.2007 20.1002 84.2007 19.3002C84.0007 19.1002 83.6007 18.7002 83.2007 18.7002Z" fill="white"/>
<path d="M87.3016 21.7001C86.9016 21.9001 86.7016 21.3001 86.7016 21.1001C86.7016 20.7001 86.7016 20.5001 87.1016 20.5001C87.3016 20.7001 87.5016 20.9001 87.7016 21.1001C87.3016 21.5001 87.3016 21.5001 87.3016 21.7001ZM87.5016 20.3001L86.7016 20.1001C86.1016 20.5001 85.9016 19.9001 85.5016 20.3001C85.1016 20.9001 85.5016 21.5001 85.9016 22.1001C86.1016 21.9001 86.1016 21.9001 86.1016 21.7001C86.3016 23.1001 87.7016 21.9001 88.1016 22.7001C88.3016 22.5001 88.7016 22.7001 88.7016 22.3001C88.1016 21.7001 87.9016 20.9001 87.5016 20.3001Z" fill="white"/>
<path d="M32.3011 18.9C32.3011 19.1 31.9011 18.9 31.9011 19.1C31.9011 18.9 32.3011 18.9 32.3011 18.9ZM30.5011 23.3C31.1011 22.9 30.7011 21.9 31.1011 21.3L31.3011 22.7C32.1011 22.1 32.1011 20.9 32.5011 19.9H31.9011C31.9011 19.3 32.5011 19.3 32.9011 18.7L32.7011 18.5L33.8011 18.3C34.0011 18.1 34.4011 18.1 34.2011 17.7C33.2011 17.7 32.4011 17.5 31.6011 17.5C31.2011 17.7 30.6011 18.3 31.0011 18.7H31.4011C31.0011 19.3 31.0011 20.1 30.8011 20.9C30.6011 20.3 30.8011 19.7 30.8011 19.1C29.7011 20.5 30.7011 22.3 30.5011 23.3Z" fill="white"/>
<path d="M86.7012 20.9002L86.9012 21.5002C87.1012 21.5002 87.3012 21.5002 87.3012 21.3002C87.1012 21.1002 87.1012 20.7002 86.7012 20.9002Z" fill="white"/>
<path d="M61.8001 20.8998C61.4001 21.0998 61.2001 20.4998 61.2001 20.0998L61.6001 18.8998C62.0001 18.8998 62.2001 19.2998 62.2001 19.6998C62.4001 20.0998 62.4001 20.8998 61.8001 20.8998ZM63.0001 19.4998C62.6001 18.6998 61.2001 18.4998 60.8001 19.2998C60.4001 19.6998 60.6001 20.4998 61.0001 21.0998C61.8001 21.2998 62.2001 22.4998 63.0001 21.8998L62.4001 21.4998C62.8001 20.8998 63.0001 20.2998 63.0001 19.4998Z" fill="white"/>
<path d="M29.9016 20.8999C30.3016 20.0999 30.5016 19.6999 30.9016 18.8999C28.5016 19.8999 30.9016 23.2999 28.1016 24.0999C28.5016 24.4999 29.1016 24.0999 29.5016 23.8999C30.5016 23.0999 29.9016 21.8999 29.9016 20.8999Z" fill="white"/>
<path d="M65.7001 19.5002L64.9001 19.3002L65.1001 19.7002C64.9001 20.3002 64.9001 20.9002 64.3001 21.1002C64.1001 21.3002 63.7001 20.9002 63.7001 20.7002C63.7001 19.9002 63.9001 19.3002 64.1001 18.9002L63.3001 18.7002C63.7001 19.3002 62.7001 20.5002 63.5001 21.3002C65.3001 22.5002 65.1001 19.7002 65.7001 19.5002Z" fill="white"/>
<path d="M43.1012 22.3001C42.7012 21.9001 42.1012 21.1001 41.7012 21.7001C41.9012 22.3001 42.5012 22.5001 43.1012 22.3001Z" fill="white"/>
<path d="M59.4012 19.6999C59.2012 18.2998 57.8012 19.6999 57.2012 19.6999C57.2012 19.8999 57.4012 20.0999 57.4012 20.2999L57.8012 19.6999C58.4012 19.8999 58.4012 21.0999 58.4012 21.6999C58.8012 21.4999 59.4012 21.4999 59.4012 21.2999C58.8012 20.8999 58.8012 19.8999 58.4012 19.2999C59.0012 19.2999 59.4012 19.8999 59.8012 20.4999C60.2012 20.6999 60.4012 19.8999 60.2012 19.4999C60.0012 19.4999 59.6012 19.4999 59.4012 19.6999Z" fill="white"/>
<path d="M41.7012 21.3L41.9012 20.9C42.3012 21.7 42.5012 22.9 43.7012 22.7C42.9012 22.1 42.7012 20.7 41.9012 19.9L41.7012 20.5C41.5012 20.1 41.3012 19.5 40.7012 19.5C40.7012 20.3 41.1012 21.1 41.7012 21.3Z" fill="white"/>
<path d="M66.9016 20.1002C66.7016 19.9002 66.3016 19.7002 65.9016 19.7002L66.1016 20.1002C65.7016 20.7002 65.7016 21.5002 65.1016 21.9002C65.5016 22.1002 65.7016 22.3002 66.1016 22.3002L65.9016 22.1002C66.1016 21.3002 66.1016 20.5002 66.9016 20.1002Z" fill="white"/>
<path d="M56.9016 19.8999L56.1016 20.4999C56.7016 20.6999 57.1016 21.6999 57.1016 22.2999C57.5016 22.4999 57.7016 22.0999 58.1016 21.8999C57.2016 21.6999 56.9016 20.4999 56.9016 19.8999Z" fill="white"/>
<path d="M67.7016 21.4999C67.5016 21.0999 67.3016 21.0999 67.1016 20.8999C66.7016 21.0999 66.5016 21.4999 66.9016 21.8999C67.3016 22.0999 67.5016 21.6999 67.7016 21.4999Z" fill="white"/>
<path d="M56.1016 22.8999C55.7016 23.2999 55.1016 22.6999 54.9016 22.2999C54.9016 21.8999 54.7016 21.6999 55.1016 21.4999C55.7016 21.2999 56.1016 21.8999 56.3016 22.2999L56.1016 22.8999ZM55.3016 21.0999C54.7016 21.4999 53.9016 21.8999 54.1016 22.4999C54.5016 23.0999 55.1016 23.6999 55.7016 23.4999C56.3016 23.0999 56.7016 22.6999 56.7016 22.0999C56.3016 21.6999 56.1016 20.8999 55.3016 21.0999Z" fill="white"/>
<path d="M70.2016 24.8999V25.2999V24.8999ZM71.2016 28.2999C70.8016 28.0999 70.6016 27.8999 70.6016 27.2999C71.2016 27.2999 72.2016 26.6999 72.6016 26.8999L72.2016 25.8999C71.6016 26.4999 70.8016 26.6999 70.2016 26.4999L71.4016 24.4999C70.8016 24.0999 69.6016 24.8999 69.0016 24.2999C69.6016 23.6999 69.8016 23.0999 70.4016 22.8999C70.0016 21.6999 69.0016 23.0999 68.4016 22.8999C68.2016 22.2999 69.8016 21.2999 68.4016 20.8999V21.0999C68.0016 21.4999 67.4016 22.2999 66.6016 22.2999C66.8016 22.6999 66.8016 22.6999 67.2016 22.8999C66.8016 22.2999 67.8016 22.0999 68.0016 21.8999C68.0016 22.4999 67.6016 22.8999 67.6016 23.4999C68.2016 23.2999 68.8016 22.8999 69.0016 23.0999C68.6016 23.4999 68.4016 24.2999 68.0016 24.0999L69.0016 25.2999L69.4016 25.0999C69.8016 25.0999 69.6016 25.4999 69.8016 25.6999C69.6016 25.8999 69.6016 26.0999 69.4016 26.0999C70.4016 26.6999 69.8016 28.8999 71.2016 28.2999Z" fill="white"/>
<path d="M30.5 23.6999C31.3 23.4999 32.3 23.2999 32.9 23.2999C32.9 22.6999 32.3 22.2999 32.3 21.8999C32.1 22.4999 31.1 23.2999 30.5 23.6999Z" fill="white"/>
<path d="M36 22.1001C35.6 22.3001 35.2 22.7001 35 23.1001H35.2C35.6 23.3001 36.4 22.9001 36 22.1001Z" fill="white"/>
<path d="M52.901 23.5002C52.901 22.9002 53.501 23.3002 53.901 23.1002L53.301 22.7002L52.701 23.5002C52.501 25.3002 54.301 23.7002 54.701 24.5002C54.301 25.1002 54.101 24.7002 53.501 24.7002C53.501 25.1002 53.901 25.3002 54.101 25.3002C54.301 24.9002 55.101 24.3002 54.701 23.9002C54.501 22.7002 53.501 24.1002 52.901 23.5002Z" fill="white"/>
<path d="M98.0016 24.3001C97.8016 23.7001 97.0016 23.5001 96.6016 23.1001V23.5001C96.8016 24.1001 97.4016 24.5001 98.0016 24.3001Z" fill="white"/>
<path d="M32.9012 23.5C31.7012 23.9 30.1012 23.9 29.7012 24.9L31.5012 24.3C31.9012 24.1 33.3012 24.5 32.9012 23.5Z" fill="white"/>
<path d="M84.4004 23.7002C84.6004 24.1002 84.6004 24.3002 84.8004 24.5002L85.4004 24.1002L84.4004 23.7002Z" fill="white"/>
<path d="M33.1 24.9L32.9 24.5C31.9 24.7 31.1 25.1 30.5 25.5L30.7 25.9C31.7 25.9 32.1 25.1 33.1 24.9Z" fill="white"/>
<path d="M53.3003 25.0998C53.3003 24.8998 53.1003 24.4998 52.9003 24.2998C52.5003 24.4998 52.3003 24.8998 52.5003 25.2998C52.7003 25.6998 53.3003 25.6998 53.3003 25.0998Z" fill="white"/>
<path d="M85.0011 25.5C85.4011 25.1 85.6011 24.9 85.4011 24.5C84.8011 24.9 84.6011 25.1 85.0011 25.5Z" fill="white"/>
<path d="M31.3013 26.7001C32.1013 26.3001 33.3013 26.1001 33.3013 25.1001L31.3013 26.1001C30.9013 26.1001 31.1013 26.7001 31.3013 26.7001Z" fill="white"/>
<path d="M53.5008 26.2998C52.9008 25.8998 52.1008 25.8998 51.7008 25.2998L51.3008 26.2998C51.5008 26.2998 51.5008 26.4998 51.5008 26.2998C52.1008 26.4998 53.1008 26.4998 53.3008 27.2998C53.3008 26.8998 53.7008 26.4998 53.5008 26.2998C53.5008 26.0998 53.5008 26.0998 53.5008 26.2998Z" fill="white"/>
<path d="M89.7 26.4999C89.1 26.2999 89.1 25.8999 88.5 26.0999L88.7 26.8999L89.7 26.4999Z" fill="white"/>
<path d="M107.801 26.4999C108.001 26.2999 107.801 26.2999 107.801 26.4999L107.401 26.0999V25.8999C107.001 25.8999 106.801 26.0999 106.401 26.2999C106.601 26.4999 107.001 26.4999 107.201 26.4999V26.6999C107.401 26.8999 107.801 26.8999 107.801 26.4999L108.001 26.8999C108.201 26.8999 108.401 27.0999 108.401 26.6999L108.201 26.2999L107.801 26.4999Z" fill="white"/>
<path d="M88.3004 26.1001L87.9004 26.7001C88.1004 26.9001 88.3004 26.7001 88.3004 26.7001V26.1001Z" fill="white"/>
<path d="M31.5 28.2998H32.1C32.9 27.8998 32.9 26.8998 32.9 26.2998C31.9 26.4998 32.1 27.6998 31.5 28.2998Z" fill="white"/>
<path d="M84.6004 26.5L84.4004 26.9C84.6004 27.3 84.8004 27.5 85.4004 27.3C86.0004 26.7 84.8004 26.7 84.6004 26.5Z" fill="white"/>
<path d="M51.0014 28.9002C51.6014 29.1002 52.4014 29.1002 52.8014 29.5002C52.8014 29.3002 53.2014 28.9002 53.0014 28.7002C52.6014 29.3002 52.0014 28.5002 51.6014 28.5002L53.4014 27.7002V27.5002C52.8014 27.3002 51.8014 27.1002 51.2014 26.7002L51.0014 27.3002C51.4014 26.9002 52.0014 27.5002 52.4014 27.5002C51.8014 28.1002 50.4014 28.1002 50.6014 29.1002L51.0014 28.9002Z" fill="white"/>
<path d="M88.9012 27.5002L89.5012 26.7002C89.1012 26.7002 88.9012 26.7002 88.7012 26.9002L88.9012 27.5002Z" fill="white"/>
<path d="M106.2 26.7002L106 27.3002H106.6V26.7002H106.2Z" fill="white"/>
<path d="M107.401 27.3L107.601 27.9C107.201 28.3 106.801 27.5 106.401 27.9C106.601 27.5 105.801 27.5 105.801 27.5L106.001 28.1C106.201 28.3 106.801 28.7 107.201 28.5H107.401C107.601 28.3 108.201 28.1 107.801 27.9C108.001 27.9 108.001 27.9 108.001 28.1C108.201 27.9 108.201 27.7 108.401 27.5C108.001 26.9 107.801 27.3 107.401 27.3Z" fill="white"/>
<path d="M106.801 27.4999C107.201 27.6999 107.401 27.6999 107.401 27.2999C107.601 27.0999 107.601 27.0999 107.601 27.0999C107.201 26.6999 106.601 27.2999 106.801 27.4999Z" fill="white"/>
<path d="M85.8009 26.8999C85.8009 27.2999 85.4009 27.2999 85.6009 27.4999C85.8009 27.6999 86.2009 28.0999 86.4009 27.4999C86.7009 27.0999 86.0009 27.0999 85.8009 26.8999Z" fill="white"/>
<path d="M86.9012 27.5L86.7012 28.1L87.1012 28.3C87.5012 28.7 87.5012 28.1 87.7012 27.9C87.5012 27.5 87.1012 27.7 86.9012 27.5Z" fill="white"/>
<path d="M72.4012 28.3001C72.2012 27.9001 71.6012 27.9001 71.4012 28.1001C71.2012 28.3001 71.4012 28.5001 71.6012 28.7001C72.0012 29.1001 72.4012 28.9001 72.4012 28.3001Z" fill="white"/>
<path d="M87.9009 28.1001C87.3009 28.7001 88.1009 28.9001 88.3009 28.9001L88.5009 28.3001L87.9009 28.1001Z" fill="white"/>
<path d="M93.2004 28.8998C93.0004 28.6998 92.6004 28.4998 92.4004 28.2998V29.0998C92.6004 29.0998 93.2004 29.2998 93.2004 28.8998Z" fill="white"/>
<path d="M92.3 29.1L92.1 28.5L91.5 29.1C91.9 29.1 92.3 29.5 92.3 29.1Z" fill="white"/>
<path d="M70.6016 29.7002C70.6016 30.1002 70.6016 30.5002 70.8016 30.9002L71.2016 30.5002C72.0016 30.3002 72.6016 30.7002 73.2016 31.1002C73.2016 30.9002 73.4016 30.5002 73.0016 30.5002C72.8016 30.9002 72.6016 30.3002 72.2016 30.3002C72.4016 30.1002 72.8016 29.7002 73.2016 29.7002L73.0016 28.7002L71.6016 29.7002C71.4016 29.9002 71.0016 29.9002 70.6016 29.7002Z" fill="white"/>
<path d="M88.9 28.7002L88.5 29.3002C88.9 29.3002 89.1 29.9002 89.5 29.5002C89.9 29.1002 89.1 28.9002 88.9 28.7002Z" fill="white"/>
<path d="M89.7012 30.1L90.3012 30.5C90.5012 30.3 90.7012 30.1 90.7012 29.9L89.9012 29.5L89.7012 30.1Z" fill="white"/>
<path d="M51.0016 30.3C51.4016 30.1 53.0016 30.1 52.4016 31.1C52.0016 31.5 51.2016 31.3 50.8016 31.1C50.6016 30.9 50.6016 30.5 51.0016 30.3ZM52.5016 31.5C52.3016 30.9 52.9016 30.5 52.5016 30.1C52.1016 29.7 51.7016 29.5 51.3016 29.5C50.9016 29.7 50.7016 29.7 50.5016 30.1C50.1016 30.7 50.5016 31.5 50.9016 31.9C51.3016 32.1 52.1016 32.1 52.5016 31.5Z" fill="white"/>
<path d="M90.9016 30.1001C90.5016 30.3001 90.5016 30.7001 90.9016 30.7001C91.1016 30.9001 91.1016 30.9001 91.3016 30.7001C91.9016 30.5001 91.1016 30.1001 90.9016 30.1001Z" fill="white"/>
<path d="M72.0014 32.0998C72.2014 31.8998 72.6014 31.8998 72.4014 31.4998C72.4014 30.8998 71.2014 30.8998 71.4014 31.4998C71.6014 31.6998 71.8014 31.8998 72.0014 32.0998Z" fill="white"/>
<path d="M52.7008 33.9002C51.9008 34.5002 51.9008 33.1002 51.9008 32.9002C52.3008 32.7002 52.9008 32.5002 52.9008 32.9002L53.1008 32.7002C52.9008 32.3002 53.1008 31.9002 52.7008 31.7002C52.3008 32.3002 51.3008 32.3002 50.9008 32.5002V32.3002L50.8008 32.5002C51.0008 32.7002 51.0008 33.1002 51.2008 33.5002L51.6008 33.1002C52.2008 32.7002 52.2008 33.9002 52.2008 34.3002H51.4008C51.2008 34.5002 51.6008 34.9002 51.6008 35.3002C52.0008 34.9002 53.0008 34.5002 53.8008 34.7002L53.0008 33.5002L52.7008 33.9002Z" fill="white"/>
<path d="M71.6016 32.9002C72.0016 33.1002 72.8016 32.9002 72.4016 33.5002C72.0016 33.7002 71.6016 33.5002 71.6016 32.9002ZM70.6016 32.9002C71.4016 32.7002 71.4016 33.1002 71.4016 33.7002C71.6016 34.1002 71.6016 34.5002 72.2016 34.3002C72.8016 33.9002 72.8016 33.1002 73.0016 32.3002C72.4016 32.5002 71.2016 32.3002 70.8016 31.7002L70.6016 32.9002Z" fill="white"/>
<path d="M69.0012 37.7002C69.4012 37.5002 70.2012 37.5002 70.6012 37.5002C71.0012 37.5002 71.2012 36.9002 71.0012 36.9002L70.8012 37.1002C70.4012 36.7002 69.4012 36.5002 69.6012 35.7002C69.8012 35.5002 70.0012 36.1002 70.2012 35.9002C69.6012 35.5002 70.0012 35.1002 70.2012 34.7002C70.4012 34.9002 70.8012 34.7002 70.8012 35.1002C70.6012 35.3002 70.4012 35.5002 70.4012 35.3002C70.4012 35.7002 70.8012 35.7002 71.0012 35.7002C71.4012 35.7002 70.6012 35.1002 71.2012 35.1002C71.4012 35.3002 71.8012 35.3002 71.6012 35.7002C71.4012 36.1002 71.2012 35.9002 71.0012 36.1002L71.2012 36.3002C72.2012 36.9002 72.2012 35.3002 72.6012 34.9002C71.6012 35.1002 70.8012 34.5002 70.4012 33.7002C70.0012 34.7002 69.8012 35.7002 69.2012 36.3002C69.6012 36.1002 70.2012 36.9002 70.4012 37.1002C69.6012 37.3002 69.0012 36.9002 68.2012 37.3002C68.6012 37.9002 69.6012 38.3002 69.8012 39.1002C70.0012 38.9002 70.4012 38.9002 70.2012 38.5002C69.6012 38.7002 69.4012 37.9002 69.0012 37.7002Z" fill="white"/>
<path d="M36.2012 35.4999C36.4012 36.0999 34.8012 36.2999 35.2012 36.8999L37.2012 35.6999C37.6012 35.4999 38.2012 35.8999 38.2012 35.2999C38.4012 35.0999 38.8012 35.6999 39.0012 35.0999C38.0012 34.4999 37.2012 35.4999 36.2012 35.4999Z" fill="white"/>
<path d="M82 36.0999C82.4 36.4999 81.8 37.8999 83 37.4999C82.8 37.0999 83 35.8999 82 36.0999Z" fill="white"/>
<path d="M83.2012 36.5V37.7C83.2012 38.1 83.8012 38.1 84.0012 37.9V37.1C84.0012 36.7 83.6012 36.7 83.2012 36.5Z" fill="white"/>
<path d="M84.2012 36.8998C84.6012 37.2998 84.0012 38.8998 85.2012 38.6998V38.2998C85.2012 37.6998 85.2012 36.4998 84.2012 36.8998Z" fill="white"/>
<path d="M85.6016 37.1001L85.8016 38.9001C86.0016 38.9001 86.4016 39.1001 86.4016 38.7001C86.4016 37.9001 86.6016 36.9001 85.6016 37.1001Z" fill="white"/>
<path d="M86.7012 37.5L86.9012 39.1C87.1012 38.9 87.3012 39.3 87.5012 38.9C87.5012 38.3 87.5012 37.5 86.7012 37.5Z" fill="white"/>
<path d="M67.2999 38.7V38.1H68.4999C68.2999 37.9 68.0999 37.7 68.0999 37.5C67.6999 37.7 66.8999 38.1 67.0999 38.9C67.2999 39.7 68.4999 39.3 68.8999 39.3C69.0999 39.3 69.0999 39.5 68.8999 39.7C68.6999 40.1 68.2999 39.7 67.8999 39.7C68.0999 39.9 68.0999 40.1 68.2999 40.3C68.6999 40.1 69.0999 39.9 69.0999 39.3C68.9999 38.5 67.6999 38.9 67.2999 38.7Z" fill="white"/>
<path d="M88.1009 37.8999C87.9009 38.0999 88.3009 38.4999 88.3009 38.8999C88.5009 39.0999 88.9009 38.8999 88.9009 38.6999C88.7009 38.2999 88.5009 37.8999 88.1009 37.8999Z" fill="white"/>
<path d="M45.2012 38.6999C44.8012 38.4999 45.0012 39.0999 45.0012 39.2999C45.2012 39.4999 45.4012 38.6999 45.8012 39.0999C45.8012 39.6999 46.0012 40.2999 45.6012 40.8999L46.6012 40.6999L46.4012 40.4999C46.2012 39.8999 46.2012 39.0999 46.6012 38.6999L47.0012 39.0999L47.2012 38.8999C47.2012 38.0999 45.8012 38.6999 45.2012 38.6999Z" fill="white"/>
<path d="M76.7 38.7C75.3 38.1 75.7 39.7 75.3 40.1L74.3 38.9C73.9 38.7 73.9 39.1 73.5 39.1C73.7 39.1 73.7 39.1 73.7 39.3C73.9 39.7 74.1 40.7 73.7 41.1C73.9 41.3 74.3 40.9 74.3 40.9C73.9 40.7 73.9 40.1 74.1 39.7L74.9 40.9C75.5 41.1 75.5 39.9 75.9 39.7L76.1 39.9C76.1 40.3 76.3 40.7 75.9 40.9C76.3 40.9 76.9 41.1 77.1 40.7L76.9 40.5C76.7 39.9 76.1 39.1 76.7 38.7Z" fill="white"/>
<path d="M78.5008 40.7C78.1008 40.5 77.9008 39.7 78.1008 39.3C78.7008 38.7 79.3008 39.3 79.3008 40.1C79.3008 40.3 78.9008 40.7 78.5008 40.7ZM78.1008 38.7C77.5008 39.1 77.3008 39.5 77.5008 40.1C77.9008 40.9 78.7008 40.7 79.1008 40.9C79.7008 40.7 80.1008 39.9 80.1008 39.3C79.7008 38.7 78.7008 38.5 78.1008 38.7Z" fill="white"/>
<path d="M66.5004 38.7002L64.9004 39.5002C64.9004 39.7002 65.1004 40.1002 65.3004 40.1002C65.3004 40.1002 65.5004 39.9002 65.3004 39.7002C65.5004 39.5002 65.7004 39.3002 65.9004 39.3002C66.1004 39.5002 66.3004 39.7002 66.1004 39.9002L65.5004 40.1002L65.9004 40.7002C65.7004 40.3002 66.1004 40.3002 66.3004 40.1002C66.5004 40.3002 66.7004 40.7002 66.5004 40.9002C66.3004 41.1002 65.9004 41.1002 65.5004 40.9002C65.3004 41.1002 65.7004 41.3002 65.9004 41.5002L67.5004 40.7002C66.7004 40.3002 66.7004 39.3002 66.5004 38.7002Z" fill="white"/>
<path d="M43.9 40.7002C43.3 40.7002 43.7 40.3002 43.5 39.9002C43.7 39.7002 43.9 40.1002 44.1 40.1002L44.3 39.9002C44.3 39.7002 44.1 39.3002 44.1 39.3002C43.9 39.5002 43.9 39.7002 43.7 39.7002C43.3 39.9002 43.5 39.3002 43.3 39.1002C43.7 38.9002 44.3 38.7002 44.5 39.3002L44.7 39.1002L44.5 38.7002C43.9 38.9002 42.9 38.5002 42.5 38.9002L42.7 39.1002C42.9 39.7002 43.1 40.5002 42.7 41.1002L44.7 40.9002C44.9 40.5002 44.9 40.3002 44.7 40.3002C44.5 40.5002 44.3 40.7002 43.9 40.7002Z" fill="white"/>
<path d="M82.4008 40.4998C81.8008 40.0998 81.8008 38.6998 80.7008 38.8998C81.1008 39.2998 80.7008 40.0998 80.7008 40.6998L80.3008 40.8998C80.5008 41.2998 80.9008 41.0998 81.3008 41.0998C80.9008 40.6998 81.1008 40.0998 81.3008 39.6998C81.7008 40.2998 82.1008 41.0998 82.7008 41.4998C82.9008 40.8998 82.9008 40.0998 83.3008 39.4998L82.5008 39.2998C83.0008 39.4998 82.6008 40.2998 82.4008 40.4998Z" fill="white"/>
<path d="M56.9001 39.8999C56.5001 40.2999 56.9001 40.8999 57.3001 40.8999C57.7001 40.6999 57.7001 40.4999 57.7001 40.2999C57.6001 39.6999 57.1001 39.6999 56.9001 39.8999Z" fill="white"/>
<path d="M38.0016 39.8999C37.8016 40.0999 37.2016 39.6999 37.4016 40.2999H37.6016C37.8016 40.6999 38.0016 41.4999 37.8016 41.8999C37.4016 42.0999 37.0016 42.2999 36.8016 41.8999C36.8016 41.4999 36.2016 40.6999 36.6016 40.2999C36.2016 40.4999 35.8016 40.4999 35.6016 40.6999C35.8016 40.6999 35.8016 40.8999 35.8016 40.8999C36.2016 41.6999 36.2016 42.6999 37.4016 42.4999C38.8016 42.2999 37.6016 40.2999 38.0016 39.8999Z" fill="white"/>
<path d="M86.9016 41.4999C86.7016 41.8999 86.1016 42.0999 85.9016 41.8999L86.1016 40.4999C86.7016 40.2999 87.3016 40.8999 86.9016 41.4999ZM85.4016 39.8999C85.2016 40.0999 85.4016 40.0999 85.4016 39.8999C85.4016 40.6999 85.4016 41.4999 84.6016 41.8999C85.2016 42.0999 86.2016 42.2999 87.0016 42.0999C87.4016 41.8999 87.8016 41.4999 87.6016 40.8999C87.3016 40.0999 86.2016 40.2999 85.4016 39.8999Z" fill="white"/>
<path d="M39.7012 40.4998C39.9012 40.8998 40.1012 40.8998 40.3012 41.0998C40.7012 40.8998 40.7012 40.6998 40.7012 40.4998C41.1012 39.6998 39.7012 39.8998 39.7012 40.4998Z" fill="white"/>
<path d="M83.7999 40.3001C83.3999 40.7001 83.5999 41.5001 84.1999 41.3001C84.3999 41.5001 84.7999 41.1001 84.7999 40.9001C84.5999 40.3001 83.9999 40.1001 83.7999 40.3001Z" fill="white"/>
<path d="M35.2 42.1001C35 42.5001 34.8 42.7001 34.4 42.9001C34 42.7001 34.2 42.3001 34.2 42.1001C34.2 41.7001 34.8 42.1001 34.8 42.1001C34.8 41.7001 34.8 41.7001 34.6 41.5001C34.6 41.7001 34.2 41.9001 34 41.9001C34 41.7001 33.8 41.3001 34.2 41.3001C34.6 41.1001 34.8 41.5001 35.2 41.5001L34.8 41.1001C34.2 41.3001 33.4 41.3001 33 41.7001H33.2C33.4 42.3001 33.8 42.9001 33.6 43.7001C34.4 43.5001 35 43.5001 35.6 43.1001L35.2 42.1001Z" fill="white"/>
<path d="M89.3016 41.7002V41.3002L89.9016 41.5002C89.9016 41.7002 89.7016 41.9002 89.3016 41.7002ZM90.5016 41.7002C90.3016 40.9002 89.1016 40.9002 88.5016 40.7002L88.7016 40.9002C88.5016 41.5002 88.7016 42.3002 88.1016 42.9002L89.3016 43.1002C89.1016 42.9002 89.1016 42.5002 89.3016 42.1002C89.5016 42.3002 89.5016 42.5002 89.9016 42.9002C89.9016 43.1002 90.5016 43.5002 90.7016 43.3002L90.3016 42.1002C90.1016 42.1002 90.5016 41.9002 90.5016 41.7002Z" fill="white"/>
<path d="M59.4003 41.8999C59.8003 42.0999 60.0003 41.4999 60.0003 41.2999C59.8003 40.8999 59.4003 40.6999 59.0003 41.0999C58.8003 41.4999 59.0003 41.8999 59.4003 41.8999Z" fill="white"/>
<path d="M32.7008 43.3001C32.5008 42.7001 32.1008 41.7001 32.5008 41.3001C32.1008 41.1001 31.5008 41.3001 31.3008 41.5001C31.3008 41.7001 31.5008 41.7001 31.5008 41.7001C31.7008 42.3001 32.1008 43.1001 31.7008 43.7001C32.1008 43.5001 32.7008 43.7001 32.9008 43.5001C32.9008 43.3001 32.7008 43.3001 32.7008 43.3001Z" fill="white"/>
<path d="M92.6012 43.1001C92.6012 43.5001 92.0013 43.7002 91.8013 43.5002C91.4013 43.1002 91.6012 42.5001 91.6012 42.1001C92.3012 41.3001 93.2012 42.3001 92.6012 43.1001ZM91.3013 41.9001C90.9013 42.5001 91.1013 42.9002 91.3013 43.5002C91.7013 43.9002 92.5012 43.9001 93.1012 43.9001C93.7012 43.5001 93.7012 42.7001 93.5012 42.1001C92.8012 41.5001 91.9013 41.1001 91.3013 41.9001Z" fill="white"/>
<path d="M29.9014 43.5001C29.7014 43.7001 29.5014 43.9001 29.3014 43.7001L28.9014 42.1001C29.9014 41.9001 30.3014 42.9001 29.9014 43.5001ZM28.1014 41.9001C27.9014 42.3001 28.3014 42.1001 28.5014 42.3001C28.5014 43.1001 28.9014 43.7001 28.5014 44.3001C29.1014 44.5001 29.5014 44.1001 30.1014 43.9001C30.7014 43.7001 31.1014 43.1001 30.9014 42.3001C30.1014 41.1001 29.1014 42.1001 28.1014 41.9001Z" fill="white"/>
<path d="M94.2008 41.8999C94.4008 42.4999 94.4008 43.8999 93.8008 44.0999H95.0008L94.8008 43.8999C95.0008 43.4999 94.6008 42.2999 95.2008 41.8999H94.2008Z" fill="white"/>
<path d="M95.8016 41.8999L95.6016 42.4999C96.0016 42.4999 95.8016 42.0999 96.0016 42.0999C96.2016 42.0999 96.4016 42.0999 96.4016 42.2999C96.2016 42.8999 96.6016 43.6999 96.0016 44.0999H97.2016C96.8016 43.8999 97.0016 42.8999 97.0016 42.0999C97.4016 42.0999 97.6016 42.4999 97.8016 42.6999C98.0016 42.2999 97.8016 42.0999 97.8016 41.8999H95.8016Z" fill="white"/>
</svg>
