<?xml version="1.0" encoding="UTF-8"?>
<svg xmlns="http://www.w3.org/2000/svg" width="200" height="80" viewBox="0 0 200 80" fill="none">
  <path d="M21.3792 38.6665L20.4031 37.6904L19.427 38.6665L10.2246 47.8689C8.24805 49.8454 8.24805 53.0501 10.2246 55.0267C12.2012 57.0032 15.4059 57.0032 17.3824 55.0267L26.5848 45.8243L27.5609 44.8482L26.5848 43.8721L21.3792 38.6665Z" stroke="white" stroke-width="2.76073"></path>
  <path d="M26.5848 36.9376L27.5609 35.9615L26.5848 34.9855L17.3824 25.783C15.4059 23.8065 12.2012 23.8065 10.2246 25.783C8.24805 27.7596 8.24805 30.9643 10.2246 32.9408L19.427 42.1433L20.4031 43.1193L21.3792 42.1433L26.5848 36.9376Z" stroke="white" stroke-width="2.76073"></path>
  <circle cx="24.8465" cy="40.4048" r="6.44169" fill="white"></circle>
  <path d="M40.1719 45.6477L41.3343 43.3059C42.7015 44.1586 44.275 44.6096 45.8797 44.6089C47.7881 44.6089 48.5862 44.0718 48.5862 43.165C48.5862 40.6559 40.5969 43.0153 40.5969 37.777C40.5969 35.2942 42.8003 33.6743 46.2874 33.6743C47.9526 33.6514 49.5985 34.038 51.0845 34.8012L49.9221 37.1343C48.7952 36.4717 47.5115 36.1339 46.2094 36.157C44.3704 36.157 43.5029 36.7733 43.5029 37.6273C43.5029 40.2685 51.4922 37.9266 51.4922 43.0594C51.4922 45.5245 49.2628 47.118 45.6282 47.118C43.7098 47.1543 41.8198 46.645 40.1719 45.6477Z" fill="white"></path>
  <path d="M61.4341 46.2377C60.5867 46.8464 59.5657 47.1558 58.5282 47.1181C55.7003 47.1181 54.0781 45.595 54.0781 42.7161V30.9187H57.1055V33.9209H60.5754V36.386H57.1055V42.628C57.1055 43.9046 57.7561 44.6001 58.8925 44.6001C59.5153 44.625 60.1277 44.4323 60.6274 44.0543L61.4341 46.2377Z" fill="white"></path>
  <path d="M71.1844 33.6745V36.5974C70.953 36.5504 70.7177 36.5268 70.4817 36.527C68.1743 36.527 66.7257 37.9004 66.7257 40.5768V46.9509H63.6982V33.8154H66.5782V35.7346C67.4543 34.3612 69.0244 33.6745 71.1844 33.6745Z" fill="white"></path>
  <path fill-rule="evenodd" clip-rule="evenodd" d="M84.9154 44.9787L83.3106 43.0859C82.3905 44.0434 81.1144 44.5615 79.7974 44.5121C78.1412 44.6626 76.571 43.7389 75.8765 42.2055L85.7829 40.2334C85.8486 38.4572 85.1755 36.7347 83.928 35.4871C82.6806 34.2395 80.9738 33.5817 79.2249 33.6744C77.4464 33.6026 75.7185 34.2845 74.455 35.5569C73.1915 36.8292 72.506 38.5775 72.5628 40.383C72.5628 44.292 75.3734 47.1181 79.7107 47.1181C81.6762 47.2472 83.5924 46.4596 84.9154 44.9787ZM75.5123 40.214L75.5036 40.2156H75.5123C75.5123 40.2151 75.5123 40.2145 75.5123 40.214ZM75.5123 40.214L82.8163 38.7894C82.3792 37.1659 80.8901 36.0681 79.2337 36.1482C77.0395 36.1306 75.513 37.7058 75.5123 40.214Z" fill="white"></path>
  <path fill-rule="evenodd" clip-rule="evenodd" d="M98.5774 46.9506H101.457V33.815H98.3866V35.435C97.3233 34.2629 95.8091 33.6199 94.2402 33.6742C92.471 33.5941 90.7512 34.278 89.5064 35.5564C88.2617 36.8348 87.6083 38.5883 87.7082 40.3828C87.6035 42.181 88.2543 43.94 89.4993 45.2237C90.7443 46.5075 92.467 47.1957 94.2402 47.1179C95.8922 47.2083 97.4929 46.5195 98.5774 45.2514V46.9506ZM96.6381 36.7798C97.8669 37.5375 98.5775 38.9267 98.4811 40.3827C98.5775 41.8386 97.8669 43.2279 96.6381 43.9856C95.4094 44.7433 93.8671 44.7433 92.6383 43.9856C91.4096 43.2279 90.699 41.8386 90.7954 40.3827C90.699 38.9267 91.4096 37.5375 92.6383 36.7798C93.8671 36.0221 95.4094 36.0221 96.6381 36.7798Z" fill="white"></path>
  <path d="M126.874 39.4233V46.9507H123.846V39.8195C123.846 37.4864 122.779 36.3507 120.94 36.3507C118.954 36.3507 117.574 37.6801 117.574 40.2861V46.9507H114.547V39.8195C114.547 37.4864 113.48 36.3507 111.632 36.3507C109.629 36.3507 108.267 37.6801 108.267 40.2861V46.9507H105.239V33.8152H108.119V35.5055C109.192 34.2843 110.75 33.6183 112.361 33.6919C114.086 33.5864 115.737 34.4174 116.698 35.8753C117.898 34.434 119.681 33.6295 121.539 33.6919C124.688 33.6743 126.874 35.5055 126.874 39.4233Z" fill="white"></path>
  <path d="M150.504 33.815L145.733 46.9506H142.827L139.488 37.9001L136.096 46.9506H133.19L128.445 33.815H131.299L134.717 43.4994L138.273 33.815H140.823L144.293 43.5522L147.763 33.815H150.504Z" fill="white"></path>
  <path fill-rule="evenodd" clip-rule="evenodd" d="M162.118 46.9507H164.972V33.8152H161.919V35.4351C160.858 34.2644 159.347 33.6214 157.781 33.6743C156.01 33.5917 154.288 34.2744 153.042 35.5532C151.795 36.8319 151.14 38.5869 151.24 40.383C151.138 42.182 151.791 43.9408 153.037 45.2243C154.284 46.5077 156.007 47.1957 157.781 47.118C159.434 47.2112 161.035 46.5219 162.118 45.2516V46.9507ZM160.154 36.78C161.383 37.5377 162.094 38.927 161.997 40.3829C162.094 41.8389 161.383 43.2281 160.154 43.9858C158.925 44.7435 157.383 44.7435 156.154 43.9858C154.926 43.2281 154.215 41.8389 154.311 40.3829C154.215 38.927 154.926 37.5377 156.154 36.78C157.383 36.0223 158.925 36.0223 160.154 36.78Z" fill="white"></path>
  <path d="M181.202 33.8153L175.13 48.0073C173.942 50.9831 172.293 51.8899 170.133 51.8899C168.873 51.9174 167.643 51.49 166.664 50.6837L167.878 48.4211C168.486 48.9883 169.282 49.3026 170.107 49.3015C171.174 49.3015 171.799 48.7909 172.38 47.4879L172.597 46.9684L166.959 33.7625H170.107L174.176 43.4468L178.27 33.7625L181.202 33.8153Z" fill="white"></path>
  <path d="M181.663 45.6478L182.825 43.3059C184.18 44.1508 185.737 44.6015 187.327 44.6089C189.244 44.6089 190.042 44.0718 190.042 43.165C190.042 40.6559 182.044 43.0154 182.044 37.777C182.044 35.2943 184.256 33.6743 187.743 33.6743C189.423 33.6428 191.085 34.0297 192.584 34.8012L191.421 37.1343C190.298 36.4721 189.017 36.1341 187.717 36.1571C185.878 36.1571 185.002 36.7733 185.002 37.6273C185.002 40.2685 193 37.9267 193 43.0594C193 45.5245 190.771 47.118 187.136 47.118C185.212 47.1586 183.315 46.6491 181.663 45.6478H181.663Z" fill="white"></path>
</svg>
