<?xml version="1.0" encoding="UTF-8"?>
<svg xmlns="http://www.w3.org/2000/svg" width="240" height="80" viewBox="0 0 240 80" fill="none">
  <path d="M25.1528 27H0V52.1528H25.1528V27Z" fill="#006699"></path>
  <path d="M19.9127 36.6346H19.4419C19.3896 36.5107 19.2327 36.1921 18.9712 35.6787C18.7096 35.1477 18.5004 34.7406 18.3435 34.4573C17.9076 33.6785 17.4717 33.0943 17.0358 32.7049C16.6173 32.2977 16.0419 32.0588 15.3096 31.988C15.2224 31.9703 15.0829 31.9614 14.8911 31.9614C14.7168 31.9614 14.5773 31.9526 14.4727 31.9349V47.9194L16.4604 48.7159V49.008H8.8757V48.7159L10.8634 47.9194V31.9349C10.7588 31.9526 10.6193 31.9614 10.4449 31.9614C10.2706 31.9614 10.1311 31.9703 10.0264 31.988C9.5382 32.0234 9.0762 32.1827 8.6403 32.4659C8.2218 32.7314 7.8295 33.112 7.4633 33.6077C7.1146 34.0856 6.82693 34.5193 6.60026 34.9087C6.39103 35.2805 6.14692 35.7496 5.86794 36.316C5.7982 36.4576 5.74588 36.5638 5.71101 36.6346H5.24023V31.1914H19.9127V36.6346Z" fill="white"></path>
  <path d="M56.3689 34.3802H55.7209C55.6489 34.2122 55.4329 33.7802 55.0729 33.0842C54.7129 32.3642 54.4249 31.8122 54.2089 31.4282C53.6089 30.3722 53.0089 29.5802 52.4089 29.0522C51.8329 28.5002 51.0409 28.1762 50.0329 28.0802C49.9129 28.0562 49.7209 28.0442 49.4569 28.0442C49.2169 28.0442 49.0249 28.0322 48.8809 28.0082V49.6802L51.6169 50.7602V51.1562H41.1769V50.7602L43.9129 49.6802V28.0082C43.7689 28.0322 43.5769 28.0442 43.3369 28.0442C43.0969 28.0442 42.9049 28.0562 42.7609 28.0802C42.0889 28.1282 41.4529 28.3442 40.8529 28.7282C40.2769 29.0882 39.7369 29.6042 39.2329 30.2762C38.7529 30.9242 38.3569 31.5122 38.0449 32.0402C37.7569 32.5442 37.4209 33.1802 37.0369 33.9482C36.9409 34.1402 36.8689 34.2842 36.8209 34.3802H36.1729V27.0002H56.3689V34.3802ZM67.5224 51.1562H57.8024V50.7602L60.1784 49.6802V28.4762L57.8024 27.3962V27.0002H67.5224V27.3962L65.1464 28.4762V49.6802L67.5224 50.7602V51.1562ZM97.5941 51.1562H87.8736V50.7602L90.2497 49.6802V33.0122L82.8697 50.7962H81.5377L73.3657 31.6442V49.5362L75.7417 50.7602V51.1562H69.1537V50.7602L71.5297 49.5362V28.4762L69.1537 27.3962V27.0002H76.4977L83.9857 44.4242L90.4297 27.0002H97.5941V27.3962L95.2177 28.4762V49.6802L97.5941 50.7602V51.1562ZM117.324 51.1562H99.0361V50.7602L101.412 49.6802V28.4762L99.0361 27.3962V27.0002H116.82V33.2642H116.208C114.6 30.7202 113.448 29.2322 112.752 28.8002C112.056 28.3682 110.46 28.1402 107.964 28.1162C107.292 28.0922 106.764 28.0802 106.38 28.0802V38.4122C106.812 38.4122 107.232 38.4122 107.64 38.4122C108.048 38.4122 108.432 38.4122 108.792 38.4122C109.152 38.3882 109.488 38.3642 109.8 38.3402C110.136 38.2922 110.448 38.2322 110.736 38.1602C111.024 38.0642 111.3 37.9322 111.564 37.7642C111.828 37.5962 112.08 37.4042 112.32 37.1882C112.584 36.9482 112.824 36.6602 113.04 36.3242C113.28 35.9642 113.508 35.5562 113.724 35.1002H114.336V43.0202H113.724C113.508 42.5162 113.28 42.0842 113.04 41.7242C112.824 41.3402 112.596 41.0162 112.356 40.7522C112.14 40.4882 111.9 40.2722 111.636 40.1042C111.372 39.9362 111.096 39.8042 110.808 39.7082C110.544 39.6122 110.244 39.5402 109.908 39.4922C109.596 39.4442 109.26 39.4202 108.9 39.4202C108.54 39.3962 108.144 39.3842 107.712 39.3842C107.304 39.3842 106.86 39.3842 106.38 39.3842V50.1122C109.404 50.0642 111.216 49.9682 111.816 49.8242C112.752 49.6082 113.592 49.0082 114.336 48.0242C114.624 47.6402 115.416 46.3682 116.712 44.2082H117.324V51.1562ZM135.513 44.1002C135.513 46.3802 134.685 48.1922 133.029 49.5362C131.373 50.8562 129.369 51.5163 127.017 51.5163C124.905 51.5163 122.733 51.2523 120.501 50.7242V44.1722H121.113C121.521 44.9402 121.917 45.6122 122.301 46.1882C122.685 46.7642 123.165 47.4002 123.741 48.0962C124.341 48.7682 124.989 49.2962 125.685 49.6802C126.381 50.0642 127.101 50.2562 127.845 50.2562C128.973 50.2562 129.897 49.9202 130.617 49.2482C131.337 48.5762 131.697 47.6762 131.697 46.5482C131.697 45.9242 131.565 45.3602 131.301 44.8562C131.061 44.3282 130.641 43.8482 130.041 43.4162C129.441 42.9602 128.961 42.6362 128.601 42.4442C128.265 42.2522 127.701 41.9642 126.909 41.5802C126.741 41.5082 126.621 41.4482 126.549 41.4002C124.557 40.4162 122.997 39.3122 121.869 38.0882C120.765 36.8402 120.213 35.2562 120.213 33.3362C120.213 31.1282 120.945 29.4482 122.409 28.2962C123.873 27.1202 125.733 26.5322 127.989 26.5322C129.741 26.5322 131.757 26.7602 134.037 27.2162V33.7682H133.389C133.341 33.6722 133.269 33.5402 133.173 33.3722C132.741 32.5562 132.369 31.9202 132.057 31.4642C131.769 30.9842 131.361 30.4082 130.833 29.7362C130.305 29.0402 129.729 28.5242 129.105 28.1882C128.505 27.8522 127.869 27.6842 127.197 27.6842C126.261 27.6842 125.505 27.9962 124.929 28.6202C124.353 29.2442 124.065 30.0362 124.065 30.9962C124.065 32.2202 124.461 33.2762 125.253 34.1642C126.045 35.0282 126.993 35.7362 128.097 36.2882C129.225 36.8402 130.341 37.4162 131.445 38.0162C132.573 38.5922 133.533 39.3962 134.325 40.4282C135.117 41.4362 135.513 42.6602 135.513 44.1002Z" fill="#333333"></path>
  <path d="M165.365 34.3803H164.717C164.645 34.2123 164.429 33.7804 164.069 33.0844C163.709 32.3644 163.421 31.8124 163.205 31.4284C162.605 30.3724 162.005 29.5804 161.405 29.0524C160.829 28.5004 160.037 28.1764 159.029 28.0804C158.909 28.0564 158.717 28.0444 158.453 28.0444C158.213 28.0444 158.021 28.0324 157.877 28.0084V49.6803L160.613 50.7603V51.1563H150.173V50.7603L152.909 49.6803V28.0084C152.765 28.0324 152.573 28.0444 152.333 28.0444C152.093 28.0444 151.901 28.0564 151.757 28.0804C151.085 28.1284 150.449 28.3444 149.849 28.7284C149.273 29.0884 148.733 29.6044 148.229 30.2764C147.749 30.9244 147.353 31.5124 147.041 32.0404C146.753 32.5444 146.417 33.1804 146.033 33.9484C145.937 34.1403 145.865 34.2843 145.817 34.3803H145.169V27.0004H165.365V34.3803ZM179.542 35.6763C179.542 36.3483 179.326 36.9123 178.894 37.3683C178.486 37.8243 177.946 38.0523 177.274 38.0523C176.266 38.0523 175.462 37.5483 174.862 36.5403L173.206 37.7643V49.6803L175.69 50.7603V51.1563H166.438V50.7603L168.526 49.6803V36.3243L166.438 35.1003V34.7403L173.206 33.3364V36.7923C174.526 34.5363 175.906 33.4084 177.346 33.4084C177.994 33.4084 178.522 33.6244 178.93 34.0563C179.338 34.4883 179.542 35.0283 179.542 35.6763ZM195.712 50.2203C194.368 51.1563 193.036 51.6244 191.716 51.6244C190.18 51.6244 189.22 51.0724 188.836 49.9684C187.396 51.0724 185.92 51.6244 184.408 51.6244C183.064 51.6244 181.96 51.2763 181.096 50.5803C180.232 49.8843 179.8 48.8763 179.8 47.5563C179.8 46.5963 180.088 45.7443 180.664 45.0003C181.264 44.2323 182.056 43.6203 183.04 43.1643C184.024 42.7083 184.948 42.3603 185.812 42.1203C186.7 41.8563 187.624 41.6523 188.584 41.5083V39.2763C188.584 37.5483 188.452 36.3963 188.188 35.8203C187.804 34.9803 187.084 34.5603 186.028 34.5603C185.068 34.5603 184.192 34.8243 183.4 35.3523C184.576 35.6643 185.164 36.4443 185.164 37.6923C185.164 38.2923 184.936 38.7963 184.479 39.2043C184.024 39.5883 183.484 39.7803 182.86 39.7803C182.164 39.7803 181.588 39.5643 181.132 39.1323C180.7 38.6763 180.484 38.1123 180.484 37.4403C180.484 36.5043 180.88 35.7123 181.672 35.0643C182.488 34.4163 183.364 33.9844 184.3 33.7684C185.236 33.5284 186.16 33.4084 187.072 33.4084C189.232 33.4084 190.804 33.8884 191.788 34.8483C192.772 35.8083 193.264 37.5123 193.264 39.9603V48.2763C193.264 49.3083 193.588 49.8243 194.236 49.8243C194.5 49.8243 194.92 49.7763 195.496 49.6803L195.712 50.2203ZM188.584 49.2123V42.4083C185.776 43.2243 184.372 44.8323 184.372 47.2323C184.372 48.0003 184.564 48.6243 184.948 49.1043C185.356 49.5843 185.932 49.8243 186.676 49.8243C187.228 49.8243 187.864 49.6203 188.584 49.2123ZM211.243 34.2723L209.335 35.4243L203.287 51.4444H202.459L195.403 35.2443L193.531 34.2723V33.8764H202.747V34.2723L200.479 35.3523L204.547 45.1443L207.283 35.4243L205.375 34.2723V33.8764H211.243V34.2723ZM225.109 49.3203C222.973 50.8563 220.609 51.6244 218.017 51.6244C215.641 51.6244 213.733 50.7723 212.293 49.0683C210.877 47.3403 210.169 45.2643 210.169 42.8403C210.169 40.2003 210.841 37.9683 212.185 36.1443C213.529 34.3203 215.473 33.4084 218.017 33.4084C219.673 33.4084 221.053 33.8524 222.157 34.7403C223.261 35.6043 224.017 36.6843 224.425 37.9803C224.857 39.2523 225.073 40.7043 225.073 42.3363H215.101C215.149 44.3043 215.641 45.9963 216.577 47.4123C217.513 48.8043 218.905 49.5003 220.753 49.5003C222.145 49.5003 223.525 49.2963 224.893 48.8883L225.109 49.3203ZM220.177 41.1123C220.177 36.7203 219.373 34.5243 217.765 34.5243C217.213 34.5243 216.733 34.8003 216.325 35.3523C215.941 35.8803 215.665 36.5763 215.497 37.4403C215.353 38.3043 215.245 39.0603 215.173 39.7083C215.125 40.3323 215.101 40.9443 215.101 41.5443L220.177 41.1123ZM234.99 51.1563H226.134V50.7603L228.222 49.6803V29.1604L226.134 27.9364V27.5764L232.902 26.1724V49.6803L234.99 50.7603V51.1563Z" fill="#006699"></path>
</svg>
