<?xml version="1.0" encoding="UTF-8"?>
<svg xmlns="http://www.w3.org/2000/svg" width="144" height="97" viewBox="0 0 144 97" fill="none">
  <path fill-rule="evenodd" clip-rule="evenodd" d="M18.7072 89.2944L6.70718 77.2944L5.29297 78.7086L17.293 90.7086L18.7072 89.2944Z" fill="#1A1A1A" fill-opacity="0.2"></path>
  <path fill-rule="evenodd" clip-rule="evenodd" d="M18.7072 65.2944L6.70718 53.2944L5.29297 54.7086L17.293 66.7086L18.7072 65.2944Z" fill="#1A1A1A" fill-opacity="0.2"></path>
  <path fill-rule="evenodd" clip-rule="evenodd" d="M18.7072 41.2944L6.70718 29.2944L5.29297 30.7086L17.293 42.7086L18.7072 41.2944Z" fill="#1A1A1A" fill-opacity="0.2"></path>
  <path fill-rule="evenodd" clip-rule="evenodd" d="M18.7072 17.2944L6.70718 5.29443L5.29297 6.70865L17.293 18.7086L18.7072 17.2944Z" fill="#1A1A1A" fill-opacity="0.2"></path>
  <path fill-rule="evenodd" clip-rule="evenodd" d="M42.7072 89.2944L30.7072 77.2944L29.293 78.7086L41.293 90.7086L42.7072 89.2944Z" fill="#1A1A1A" fill-opacity="0.2"></path>
  <path fill-rule="evenodd" clip-rule="evenodd" d="M42.7072 65.2944L30.7072 53.2944L29.293 54.7086L41.293 66.7086L42.7072 65.2944Z" fill="#1A1A1A" fill-opacity="0.2"></path>
  <path fill-rule="evenodd" clip-rule="evenodd" d="M42.7072 41.2944L30.7072 29.2944L29.293 30.7086L41.293 42.7086L42.7072 41.2944Z" fill="#1A1A1A" fill-opacity="0.2"></path>
  <path fill-rule="evenodd" clip-rule="evenodd" d="M42.7072 17.2944L30.7072 5.29443L29.293 6.70865L41.293 18.7086L42.7072 17.2944Z" fill="#1A1A1A" fill-opacity="0.2"></path>
  <path fill-rule="evenodd" clip-rule="evenodd" d="M66.7072 89.2944L54.7072 77.2944L53.293 78.7086L65.293 90.7086L66.7072 89.2944Z" fill="#1A1A1A" fill-opacity="0.2"></path>
  <path fill-rule="evenodd" clip-rule="evenodd" d="M66.7072 65.2944L54.7072 53.2944L53.293 54.7086L65.293 66.7086L66.7072 65.2944Z" fill="#1A1A1A" fill-opacity="0.2"></path>
  <path fill-rule="evenodd" clip-rule="evenodd" d="M66.7072 41.2944L54.7072 29.2944L53.293 30.7086L65.293 42.7086L66.7072 41.2944Z" fill="#1A1A1A" fill-opacity="0.2"></path>
  <path fill-rule="evenodd" clip-rule="evenodd" d="M66.7072 17.2944L54.7072 5.29443L53.293 6.70865L65.293 18.7086L66.7072 17.2944Z" fill="#1A1A1A" fill-opacity="0.2"></path>
  <path fill-rule="evenodd" clip-rule="evenodd" d="M90.7072 89.2944L78.7072 77.2944L77.293 78.7086L89.293 90.7086L90.7072 89.2944Z" fill="#1A1A1A" fill-opacity="0.2"></path>
  <path fill-rule="evenodd" clip-rule="evenodd" d="M90.7072 65.2944L78.7072 53.2944L77.293 54.7086L89.293 66.7086L90.7072 65.2944Z" fill="#1A1A1A" fill-opacity="0.2"></path>
  <path fill-rule="evenodd" clip-rule="evenodd" d="M90.7072 41.2944L78.7072 29.2944L77.293 30.7086L89.293 42.7086L90.7072 41.2944Z" fill="#1A1A1A" fill-opacity="0.2"></path>
  <path fill-rule="evenodd" clip-rule="evenodd" d="M90.7072 17.2944L78.7072 5.29443L77.293 6.70865L89.293 18.7086L90.7072 17.2944Z" fill="#1A1A1A" fill-opacity="0.2"></path>
  <path fill-rule="evenodd" clip-rule="evenodd" d="M114.707 89.2944L102.707 77.2944L101.293 78.7086L113.293 90.7086L114.707 89.2944Z" fill="#1A1A1A" fill-opacity="0.2"></path>
  <path fill-rule="evenodd" clip-rule="evenodd" d="M114.707 65.2944L102.707 53.2944L101.293 54.7086L113.293 66.7086L114.707 65.2944Z" fill="#1A1A1A" fill-opacity="0.2"></path>
  <path fill-rule="evenodd" clip-rule="evenodd" d="M114.707 41.2944L102.707 29.2944L101.293 30.7086L113.293 42.7086L114.707 41.2944Z" fill="#1A1A1A" fill-opacity="0.2"></path>
  <path fill-rule="evenodd" clip-rule="evenodd" d="M114.707 17.2944L102.707 5.29443L101.293 6.70865L113.293 18.7086L114.707 17.2944Z" fill="#1A1A1A" fill-opacity="0.2"></path>
  <path fill-rule="evenodd" clip-rule="evenodd" d="M138.707 89.2944L126.707 77.2944L125.293 78.7086L137.293 90.7086L138.707 89.2944Z" fill="#1A1A1A" fill-opacity="0.2"></path>
  <path fill-rule="evenodd" clip-rule="evenodd" d="M138.707 65.2944L126.707 53.2944L125.293 54.7086L137.293 66.7086L138.707 65.2944Z" fill="#1A1A1A" fill-opacity="0.2"></path>
  <path fill-rule="evenodd" clip-rule="evenodd" d="M138.707 41.2944L126.707 29.2944L125.293 30.7086L137.293 42.7086L138.707 41.2944Z" fill="#1A1A1A" fill-opacity="0.2"></path>
  <path fill-rule="evenodd" clip-rule="evenodd" d="M138.707 17.2944L126.707 5.29443L125.293 6.70865L137.293 18.7086L138.707 17.2944Z" fill="#1A1A1A" fill-opacity="0.2"></path>
</svg>
