<?xml version="1.0" encoding="UTF-8"?>
<svg xmlns="http://www.w3.org/2000/svg" width="200" height="50" viewBox="0 0 200 50" fill="none">
  <g clip-path="url(#clip0_2708_38688)">
    <path fill-rule="evenodd" clip-rule="evenodd" d="M0 13.5H30V36.5H0V13.5Z" fill="#D52B1E"></path>
    <path fill-rule="evenodd" clip-rule="evenodd" d="M7.96875 22.8438H22.0312V27.1562H7.96875V22.8438Z" fill="white"></path>
    <path fill-rule="evenodd" clip-rule="evenodd" d="M12.8906 17.8125H17.1094V32.1875H12.8906V17.8125Z" fill="white"></path>
  </g>
  <g clip-path="url(#clip1_2708_38688)">
    <path d="M56.6665 28.8335H86.6665V36.5002H56.6665V28.8335Z" fill="#FFCE00"></path>
    <path d="M56.6665 13.5H86.6665V21.1667H56.6665V13.5Z" fill="#1A1A1A"></path>
    <path d="M56.6665 21.1665H86.6665V28.8332H56.6665V21.1665Z" fill="#DD0000"></path>
  </g>
  <g clip-path="url(#clip2_2708_38688)">
    <path d="M113.333 13.5H143.333V36.5H113.333V13.5Z" fill="#012169"></path>
    <path d="M116.849 13.5L128.287 22.1729L139.677 13.5H143.333V16.4708L132.083 25.0479L143.333 33.5771V36.5H139.583L128.333 27.9229L117.13 36.5H113.333V33.625L124.537 25.0958L113.333 16.5667V13.5H116.849Z" fill="white"></path>
    <path d="M133.208 26.9646L143.333 34.5833V36.5L130.63 26.9646H133.208ZM124.583 27.9229L124.865 29.6L115.865 36.5H113.333L124.583 27.9229ZM143.333 13.5V13.6437L131.662 22.6521L131.755 20.5437L140.99 13.5H143.333ZM113.333 13.5L124.537 21.9333H121.724L113.333 15.5125V13.5Z" fill="#C8102E"></path>
    <path d="M124.63 13.5V36.5H132.13V13.5H124.63ZM113.333 21.1667V28.8333H143.333V21.1667H113.333Z" fill="white"></path>
    <path d="M113.333 22.7479V27.3479H143.333V22.7479H113.333ZM126.13 13.5V36.5H130.63V13.5H126.13Z" fill="#C8102E"></path>
  </g>
  <g clip-path="url(#clip3_2708_38688)">
    <path fill-rule="evenodd" clip-rule="evenodd" d="M170 13.5H212.75V15.2699H170V13.5ZM170 17.0398H212.75V18.8098H170V17.0398ZM170 20.5752H212.75V22.3496H170V20.5752ZM170 24.115H212.75V25.885H170V24.115ZM170 27.6549H212.75V29.4248H170V27.6549ZM170 31.1902H212.75V32.9602H170V31.1902ZM170 34.7301H212.75V36.5H170V34.7301Z" fill="#BD3D44"></path>
    <path fill-rule="evenodd" clip-rule="evenodd" d="M170 15.27H212.75V17.0399H170V15.27ZM170 18.8099H212.75V20.5753H170V18.8099ZM170 22.3452H212.75V24.1151H170V22.3452ZM170 25.8851H212.75V27.655H170V25.8851ZM170 29.4249H212.75V31.1948H170V29.4249ZM170 32.9603H212.75V34.7302H170V32.9603Z" fill="white"></path>
    <path fill-rule="evenodd" clip-rule="evenodd" d="M170 13.5H187.099V25.885H170V13.5Z" fill="#192F5D"></path>
    <path fill-rule="evenodd" clip-rule="evenodd" d="M171.424 14.0303L171.582 14.5199H172.083L171.679 14.8209L171.833 15.315L171.424 15.0096L171.02 15.3105L171.173 14.8209L170.765 14.5199H171.274L171.424 14.0303ZM174.276 14.0303L174.43 14.5199H174.935L174.526 14.8209L174.68 15.315L174.276 15.0096L173.867 15.3105L174.021 14.8209L173.617 14.5199H174.118L174.276 14.0303ZM177.124 14.0303L177.282 14.5199H177.778L177.374 14.8209L177.528 15.315L177.119 15.0096L176.715 15.3105L176.869 14.8209L176.46 14.5199H176.965L177.124 14.0303ZM179.976 14.0303L180.129 14.5199H180.635L180.226 14.8209L180.384 15.315L179.976 15.0096L179.567 15.3105L179.725 14.8209L179.316 14.5199H179.817L179.976 14.0303ZM182.823 14.0303L182.981 14.5199H183.482L183.078 14.8209L183.232 15.315L182.823 15.0096L182.419 15.3105L182.573 14.8209L182.168 14.5199H182.669L182.823 14.0303ZM185.675 14.0303L185.829 14.5199H186.334L185.926 14.8209L186.084 15.315L185.675 15.0096L185.267 15.3105L185.425 14.8209L185.016 14.5199H185.521L185.675 14.0303ZM172.852 15.2701L173.006 15.7598H173.511L173.103 16.0607L173.252 16.5504L172.856 16.2494L172.448 16.5504L172.593 16.0607L172.197 15.7598H172.698L172.852 15.2701ZM175.7 15.2701L175.858 15.7598H176.359L175.95 16.0607L176.108 16.5504L175.7 16.2494L175.291 16.5504L175.449 16.0607L175.041 15.7598H175.546L175.7 15.2701ZM178.552 15.2701L178.706 15.7598H179.211L178.802 16.0607L178.956 16.5504L178.552 16.2494L178.143 16.5504L178.297 16.0607L177.893 15.7598H178.394L178.552 15.2701ZM181.399 15.2701L181.558 15.7598H182.059L181.65 16.0607L181.808 16.5504L181.399 16.2494L180.995 16.5504L181.149 16.0607L180.74 15.7598H181.25L181.399 15.2701ZM184.251 15.2701L184.405 15.7598H184.911L184.502 16.0607L184.656 16.5504L184.251 16.2494L183.843 16.5504L183.997 16.0607L183.592 15.7598H184.093L184.251 15.2701ZM171.424 16.5055L171.582 17.0041H172.083L171.679 17.3051L171.833 17.7947L171.424 17.4893L171.02 17.7947L171.173 17.3006L170.765 16.9996H171.274L171.424 16.5055ZM174.276 16.5055L174.43 16.9996H174.935L174.526 17.3006L174.68 17.7902L174.276 17.4848L173.867 17.7902L174.021 17.2961L173.617 16.9951H174.118L174.276 16.5055ZM177.124 16.5055L177.282 16.9996H177.778L177.374 17.3006L177.528 17.7902L177.119 17.4848L176.715 17.7902L176.869 17.2961L176.46 16.9951H176.965L177.124 16.5055ZM179.976 16.5055L180.129 16.9996H180.635L180.226 17.3006L180.384 17.7902L179.976 17.4848L179.567 17.7902L179.725 17.2961L179.316 16.9951H179.817L179.976 16.5055ZM182.823 16.5055L182.981 16.9996H183.482L183.078 17.3006L183.232 17.7902L182.823 17.4848L182.419 17.7902L182.573 17.2961L182.168 16.9951H182.669L182.823 16.5055ZM185.675 16.5055L185.829 16.9996H186.334L185.926 17.3006L186.084 17.7902L185.675 17.4848L185.267 17.7902L185.425 17.2961L185.016 16.9951H185.521L185.675 16.5055ZM172.852 17.7453L173.006 18.235H173.511L173.103 18.5359L173.256 19.0301L172.852 18.7246L172.443 19.0256L172.597 18.5359L172.193 18.235H172.694L172.852 17.7453ZM175.7 17.7453L175.858 18.235H176.359L175.95 18.5359L176.108 19.0301L175.7 18.7246L175.291 19.0256L175.449 18.5359L175.041 18.235H175.546L175.7 17.7453ZM178.552 17.7453L178.706 18.235H179.211L178.802 18.5359L178.956 19.0301L178.552 18.7246L178.143 19.0256L178.297 18.5359L177.893 18.235H178.394L178.552 17.7453ZM181.399 17.7453L181.558 18.235H182.059L181.654 18.5359L181.808 19.0301L181.399 18.7246L180.995 19.0256L181.149 18.5359L180.74 18.235H181.25L181.399 17.7453ZM184.251 17.7453L184.405 18.235H184.911L184.502 18.5359L184.656 19.0301L184.251 18.7246L183.843 19.0256L183.997 18.5359L183.592 18.235H184.093L184.251 17.7453ZM171.424 18.9852L171.582 19.4748H172.083L171.679 19.7758L171.833 20.2699L171.424 19.9644L171.02 20.2654L171.173 19.7758L170.765 19.4748H171.274L171.424 18.9852ZM174.276 18.9852L174.43 19.4748H174.935L174.526 19.7758L174.68 20.2654L174.276 19.9644L173.867 20.2654L174.021 19.7758L173.617 19.4748H174.118L174.276 18.9852ZM177.124 18.9852L177.282 19.4748H177.778L177.374 19.7758L177.528 20.2699L177.119 19.9644L176.715 20.2654L176.869 19.7758L176.46 19.4748H176.965L177.124 18.9852ZM179.976 18.9852L180.129 19.4748H180.635L180.226 19.7758L180.384 20.2699L179.976 19.9644L179.567 20.2654L179.725 19.7758L179.316 19.4748H179.817L179.976 18.9852ZM182.823 18.9852L182.981 19.4748H183.482L183.078 19.7758L183.232 20.2699L182.823 19.9644L182.419 20.2654L182.573 19.7758L182.168 19.4748H182.669L182.823 18.9852ZM185.675 18.9852L185.829 19.4748H186.334L185.926 19.7758L186.084 20.2699L185.675 19.9644L185.267 20.2654L185.425 19.7758L185.016 19.4748H185.521L185.675 18.9852ZM172.852 20.225L173.006 20.7146H173.511L173.103 21.0156L173.256 21.5053L172.852 21.1998L172.443 21.5053L172.597 21.0111L172.193 20.7102H172.694L172.852 20.225ZM175.7 20.225L175.858 20.7146H176.359L175.95 21.0156L176.108 21.5053L175.7 21.1998L175.291 21.5053L175.449 21.0111L175.041 20.7102H175.546L175.7 20.225ZM178.552 20.225L178.706 20.7146H179.211L178.802 21.0156L178.956 21.5053L178.552 21.1998L178.143 21.5053L178.297 21.0111L177.893 20.7102H178.394L178.552 20.225ZM181.399 20.225L181.558 20.7146H182.059L181.654 21.0156L181.808 21.5053L181.399 21.1998L180.995 21.5053L181.149 21.0111L180.74 20.7102H181.25L181.399 20.225ZM184.251 20.225L184.405 20.7146H184.911L184.502 21.0156L184.656 21.5053L184.251 21.1998L183.843 21.5053L183.997 21.0111L183.592 20.7102H184.093L184.251 20.225ZM171.424 21.4603L171.582 21.9545H172.083L171.679 22.2555L171.833 22.7406L171.424 22.4396L171.02 22.7406L171.173 22.251L170.765 21.95H171.274L171.424 21.4603ZM174.276 21.4603L174.43 21.9545H174.935L174.526 22.2555L174.685 22.7406L174.276 22.4396L173.867 22.7406L174.025 22.251L173.617 21.95H174.118L174.276 21.4603ZM177.124 21.4603L177.282 21.9545H177.778L177.374 22.2555L177.528 22.7406L177.119 22.4396L176.715 22.7406L176.869 22.251L176.46 21.95H176.965L177.124 21.4603ZM179.976 21.4603L180.129 21.9545H180.635L180.226 22.2555L180.384 22.7406L179.976 22.4396L179.567 22.7406L179.725 22.251L179.316 21.95H179.817L179.976 21.4603ZM182.823 21.4603L182.981 21.9545H183.482L183.078 22.2555L183.232 22.7406L182.823 22.4396L182.419 22.7406L182.573 22.251L182.168 21.95H182.669L182.823 21.4603ZM185.675 21.4603L185.829 21.9545H186.334L185.926 22.2555L186.084 22.7406L185.675 22.4396L185.267 22.7406L185.425 22.251L185.016 21.95H185.521L185.675 21.4603ZM172.852 22.7002L173.006 23.1898H173.511L173.103 23.4908L173.256 23.985L172.852 23.6795L172.443 23.9805L172.597 23.4908L172.193 23.1898H172.694L172.852 22.7002ZM175.7 22.7002L175.858 23.1898H176.359L175.95 23.4908L176.108 23.985L175.7 23.6795L175.291 23.9805L175.449 23.4908L175.041 23.1898H175.546L175.7 22.7002ZM178.552 22.7002L178.706 23.1898H179.211L178.802 23.4908L178.956 23.985L178.552 23.6795L178.143 23.9805L178.297 23.4908L177.893 23.1898H178.394L178.552 22.7002ZM181.399 22.7002L181.558 23.1898H182.059L181.654 23.4908L181.808 23.985L181.399 23.6795L180.995 23.9805L181.149 23.4908L180.74 23.1898H181.25L181.399 22.7002ZM184.251 22.7002L184.405 23.1898H184.911L184.502 23.4908L184.656 23.985L184.251 23.6795L183.843 23.9805L183.997 23.4908L183.592 23.1898H184.093L184.251 22.7002ZM171.424 23.94L171.582 24.4297H172.083L171.679 24.7307L171.833 25.2203L171.424 24.9193L171.02 25.2203L171.173 24.7262L170.765 24.4252H171.274L171.424 23.94ZM174.276 23.94L174.43 24.4297H174.935L174.526 24.7307L174.685 25.2203L174.276 24.9193L173.867 25.2203L174.025 24.7262L173.617 24.4252H174.118L174.276 23.94ZM177.124 23.94L177.282 24.4297H177.778L177.383 24.7307L177.537 25.2203L177.128 24.9193L176.724 25.2203L176.877 24.7262L176.469 24.4252H176.974L177.124 23.94ZM179.976 23.94L180.129 24.4297H180.635L180.226 24.7307L180.384 25.2203L179.976 24.9193L179.567 25.2203L179.725 24.7262L179.316 24.4252H179.817L179.976 23.94ZM182.823 23.94L182.981 24.4297H183.482L183.078 24.7307L183.232 25.2203L182.823 24.9193L182.419 25.2203L182.573 24.7262L182.168 24.4252H182.669L182.823 23.94ZM185.675 23.94L185.829 24.4297H186.334L185.926 24.7307L186.084 25.2203L185.675 24.9193L185.267 25.2203L185.425 24.7262L185.016 24.4252H185.521L185.675 23.94Z" fill="white"></path>
  </g>
  <defs>
    <clipPath id="clip0_2708_38688">
      <rect width="30" height="23" fill="white" transform="translate(0 13.5)"></rect>
    </clipPath>
    <clipPath id="clip1_2708_38688">
      <rect width="30" height="23" fill="white" transform="translate(56.6665 13.5)"></rect>
    </clipPath>
    <clipPath id="clip2_2708_38688">
      <rect width="30" height="23" fill="white" transform="translate(113.333 13.5)"></rect>
    </clipPath>
    <clipPath id="clip3_2708_38688">
      <rect width="30" height="23" fill="white" transform="translate(170 13.5)"></rect>
    </clipPath>
  </defs>
</svg>
