<svg width="28" height="28" viewBox="0 0 28 28" fill="none" xmlns="http://www.w3.org/2000/svg">
<path fill-rule="evenodd" clip-rule="evenodd" d="M0 -0.000244141H28V27.9998H0V-0.000244141ZM7.66667 9.33504C8.58 9.33504 9.32 8.58904 9.32 7.66838C9.32 6.74838 8.58 6.00171 7.66667 6.00171C6.75333 6.00171 6.01333 6.74838 6.01333 7.66838C6.01333 8.58904 6.75333 9.33504 7.66667 9.33504ZM6 10.6684H9.33333V21.335H6V10.6684ZM11.3427 10.6684H14.6547V12.105C16.052 9.51904 22 9.32771 22 14.581V21.335H18.6747V15.7357C18.6747 12.3677 14.6553 12.6224 14.6553 15.7357V21.335H11.3427V10.6684Z" fill="white"/>
</svg>
