<?xml version="1.0" encoding="UTF-8"?>
<svg xmlns="http://www.w3.org/2000/svg" width="24" height="25" viewBox="0 0 24 25" fill="none">
  <path d="M12 2.16495C15.204 2.16495 15.584 2.17695 16.85 2.23495C20.102 2.38295 21.621 3.92595 21.769 7.15395C21.827 8.41895 21.838 8.79895 21.838 12.003C21.838 15.208 21.826 15.587 21.769 16.852C21.62 20.077 20.105 21.623 16.85 21.771C15.584 21.829 15.206 21.841 12 21.841C8.796 21.841 8.416 21.829 7.151 21.771C3.891 21.622 2.38 20.072 2.232 16.851C2.174 15.586 2.162 15.207 2.162 12.002C2.162 8.79795 2.175 8.41895 2.232 7.15295C2.381 3.92595 3.896 2.38195 7.151 2.23395C8.417 2.17695 8.796 2.16495 12 2.16495ZM12 0.00195313C8.741 0.00195313 8.333 0.0159531 7.053 0.0739531C2.695 0.273953 0.273 2.69195 0.073 7.05395C0.014 8.33495 0 8.74295 0 12.002C0 15.261 0.014 15.67 0.072 16.95C0.272 21.308 2.69 23.73 7.052 23.93C8.333 23.988 8.741 24.002 12 24.002C15.259 24.002 15.668 23.988 16.948 23.93C21.302 23.73 23.73 21.312 23.927 16.95C23.986 15.67 24 15.261 24 12.002C24 8.74295 23.986 8.33495 23.928 7.05495C23.732 2.70095 21.311 0.274953 16.949 0.0749531C15.668 0.0159531 15.259 0.00195312 12 0.00195312V0.00195313ZM12 5.83995C8.597 5.83995 5.838 8.59895 5.838 12.002C5.838 15.405 8.597 18.165 12 18.165C15.403 18.165 18.162 15.406 18.162 12.002C18.162 8.59895 15.403 5.83995 12 5.83995ZM12 16.002C9.791 16.002 8 14.212 8 12.002C8 9.79295 9.791 8.00195 12 8.00195C14.209 8.00195 16 9.79295 16 12.002C16 14.212 14.209 16.002 12 16.002ZM18.406 4.15695C17.61 4.15695 16.965 4.80195 16.965 5.59695C16.965 6.39195 17.61 7.03695 18.406 7.03695C19.201 7.03695 19.845 6.39195 19.845 5.59695C19.845 4.80195 19.201 4.15695 18.406 4.15695Z" fill="white"></path>
</svg>
