<?xml version="1.0" encoding="UTF-8"?>
<svg xmlns="http://www.w3.org/2000/svg" width="24" height="25" viewBox="0 0 24 25" fill="none">
  <path d="M12 0.00195312C5.372 0.00195312 0 5.37495 0 12.002C0 18.629 5.372 24.002 12 24.002C18.628 24.002 24 18.629 24 12.002C24 5.37495 18.628 0.00195312 12 0.00195312ZM21.885 11.443C19.31 11.021 16.942 10.998 14.782 11.37C14.538 10.807 14.285 10.245 14.015 9.68995C16.325 8.68995 18.18 7.33195 19.563 5.60795C20.913 7.20195 21.76 9.22695 21.885 11.443ZM18.043 4.16095C16.838 5.71495 15.175 6.94395 13.057 7.84095C12.041 5.97995 10.879 4.16495 9.569 2.40295C10.348 2.20595 11.16 2.08895 12 2.08895C14.275 2.08895 16.368 2.86795 18.043 4.16095ZM7.527 3.16795C8.858 4.90995 10.038 6.70595 11.064 8.54895C8.634 9.26395 5.733 9.63095 2.38 9.65395C3.072 6.81895 4.981 4.46095 7.527 3.16795ZM2.087 12.002L2.1 11.746C5.949 11.741 9.269 11.298 12.05 10.424C12.283 10.899 12.506 11.376 12.72 11.856C9.34 12.913 6.555 15.078 4.383 18.336C2.951 16.617 2.087 14.409 2.087 12.002ZM5.916 19.812C7.885 16.724 10.398 14.714 13.514 13.785C14.442 16.205 15.123 18.695 15.557 21.245C12.208 22.536 8.604 21.911 5.916 19.812ZM17.502 20.242C17.064 17.889 16.422 15.589 15.582 13.345C17.458 13.08 19.522 13.149 21.781 13.541C21.344 16.327 19.753 18.733 17.502 20.242Z" fill="white"></path>
</svg>
