<?xml version="1.0" encoding="UTF-8"?>
<svg xmlns="http://www.w3.org/2000/svg" width="200" height="80" viewBox="0 0 200 80" fill="none">
  <path d="M97.5641 48.3891L91.0681 41.916V32.0444L97.6182 38.5715L112.505 23.7371C104.277 15.5378 90.9599 15.5917 82.7858 23.7371C74.5576 31.9365 74.6117 45.2065 82.7858 53.3519C91.014 61.5513 104.331 61.4973 112.505 53.3519C118.784 47.0945 120.462 37.5466 116.619 29.509L97.5641 48.3891Z" fill="#EC6B1E"></path>
  <path d="M110.393 76.7094C108.498 76.116 108.065 74.4977 108.228 72.6636H110.989C110.989 73.9043 111.043 74.9832 112.558 74.9832C113.479 74.9832 113.966 74.3898 113.966 73.4728C113.966 71.0993 108.39 70.9374 108.39 67.0535C108.39 65.0037 109.365 63.3315 112.775 63.3315C115.482 63.3315 116.835 64.5182 116.618 67.2693H113.912C113.912 66.2983 113.749 65.2734 112.613 65.2734C111.909 65.1655 111.259 65.7049 111.205 66.4062C111.205 66.5141 111.205 66.568 111.205 66.6759C111.205 69.1573 116.781 68.9415 116.781 73.0952C116.781 75.3608 115.644 76.3318 114.291 76.6554L110.393 76.7094Z" fill="#1A1A1A" fill-opacity="0.6"></path>
  <path d="M123.493 67.5385C123.493 66.2978 123.331 65.2189 121.869 65.2189C120.137 65.2189 120.137 67.5385 120.137 70.0738C120.137 74.1735 120.57 74.9287 122.14 74.9287C122.627 74.9287 123.06 74.8208 123.493 74.659V71.7461H121.977V69.6962H126.254V76.3852C125.983 76.4391 125.496 76.547 124.955 76.601H120.191C117.647 75.9536 117.268 73.9577 117.268 69.912C117.268 66.6215 117.43 63.2231 121.977 63.2231C124.684 63.2231 126.362 64.7335 126.2 67.4846L123.493 67.5385Z" fill="#1A1A1A" fill-opacity="0.6"></path>
  <path d="M131.506 63.3315C133.942 63.3315 135.241 64.2485 135.457 66.4062V67.3232H132.751C132.751 66.3523 132.534 65.3273 131.397 65.3273C130.694 65.2195 130.044 65.7589 129.99 66.4602C129.99 66.568 129.99 66.622 129.99 66.7299C129.99 69.0494 134.754 69.0494 135.457 72.286V74.174C135.295 75.4147 134.32 76.4396 133.075 76.7094H129.232C127.337 76.116 126.904 74.4977 127.067 72.6636H129.827C129.827 73.9043 129.882 74.9832 131.397 74.9832C132.318 74.9832 132.805 74.3898 132.805 73.4728C132.805 71.0993 127.229 70.9374 127.229 67.0535C127.121 65.0037 128.149 63.3315 131.506 63.3315Z" fill="#1A1A1A" fill-opacity="0.6"></path>
  <path d="M99.8918 76.7104H140.816V77.2502H99.8918V76.7104Z" fill="#1A1A1A" fill-opacity="0.6"></path>
  <path d="M135.403 60.9037H135.944V79.9996H135.403V60.9037Z" fill="#1A1A1A" fill-opacity="0.6"></path>
  <path d="M59.6705 41.8092L59.6164 41.054L65.4627 40.6225L65.5169 41.3777L59.6705 41.8092Z" fill="#EC6B1E" stroke="#EC6B1E" stroke-width="0.543083"></path>
  <path d="M61.6192 43.6431H61.4568C60.9696 43.6431 60.5365 44.0747 60.5365 44.6141C60.5365 44.668 60.5365 44.722 60.5365 44.7759C60.6448 45.3693 60.9696 45.7469 61.6733 45.639C62.9725 45.4232 62.377 42.8879 64.1093 42.5642C65.1378 42.4024 65.7874 43.0497 65.9498 44.0207C66.1122 44.9917 65.7333 45.7469 64.5423 45.9087L64.4341 45.1535C65.0837 45.0456 65.4626 44.7759 65.3543 44.0747C65.3002 43.6431 64.9213 43.2655 64.4882 43.3194C64.4341 43.3194 64.38 43.3194 64.38 43.3194C63.0808 43.5352 63.7304 46.0706 61.8898 46.3942C60.6448 46.61 60.1576 45.8008 59.9952 44.8838C59.6704 43.2116 61.0237 42.9958 61.565 42.8879L61.6192 43.6431Z" fill="#EC6B1E" stroke="#EC6B1E" stroke-width="0.543083"></path>
  <path d="M62.7024 47.3094L64.5429 46.77C65.6797 46.4463 66.5459 46.77 66.9248 47.9567C67.3037 49.1435 66.7624 49.9526 65.6256 50.2763L63.7851 50.8157C62.2152 51.3012 61.4574 50.9236 61.0784 49.7368C60.6995 48.5501 61.1867 47.8488 62.7024 47.3094ZM63.5685 50.1684L65.4632 49.575C66.6541 49.1974 66.4376 48.3883 66.3293 48.1725C66.2211 47.9567 66.0045 47.1476 64.8136 47.5252L62.919 48.1185C61.6739 48.4961 61.5115 48.9277 61.6739 49.6289C61.8363 50.3302 62.3235 50.546 63.5685 50.1684Z" fill="#EC6B1E" stroke="#EC6B1E" stroke-width="0.543083"></path>
  <path d="M66.8159 55.8339C65.5167 56.4812 64.2175 57.1285 63.5138 55.7799C63.1349 55.1326 63.3514 54.3235 64.001 53.9459C64.0551 53.8919 64.1093 53.8919 64.1634 53.838L64.4882 54.4853C64.1093 54.6471 63.7845 55.0247 64.001 55.4563C64.3258 56.1036 65.0836 55.7799 66.3287 55.1326C65.9498 55.1326 65.5708 54.8629 65.4084 54.5392C65.1919 54.1616 65.0295 53.2985 66.437 52.5973C67.5738 52.0578 68.3316 52.4894 68.6564 53.1367C69.4143 54.5392 68.1692 55.1326 66.8159 55.8339ZM66.87 53.2446C66.3828 53.5143 65.8956 53.838 66.1663 54.4313C66.437 55.0247 67.0324 54.8089 67.5738 54.5932C68.1151 54.3774 68.5481 53.9459 68.2775 53.4064C68.0068 52.867 67.3031 52.9749 66.87 53.2446Z" fill="#EC6B1E" stroke="#EC6B1E" stroke-width="0.543083"></path>
  <path d="M69.0363 59.2864C67.7912 60.0956 66.6003 60.9047 65.7883 59.6101C64.9763 58.3154 66.1672 57.5602 67.4123 56.7511C68.6573 55.9419 69.8483 55.1328 70.7144 56.4274C71.5805 57.7221 70.2813 58.4773 69.0363 59.2864ZM67.6288 57.4524C66.8168 57.9918 65.7883 58.5852 66.2755 59.2864C66.7627 59.9877 67.6829 59.2864 68.4949 58.747C69.74 57.9378 70.552 57.3984 70.1189 56.7511C69.6859 56.1038 68.8739 56.6432 67.6288 57.4524Z" fill="#EC6B1E" stroke="#EC6B1E" stroke-width="0.543083"></path>
  <path d="M71.5797 62.4144C70.4429 63.3854 69.3603 64.3024 68.3859 63.1157C67.4115 61.9289 68.4941 61.0119 69.6309 60.0948C70.7677 59.1778 71.8504 58.2068 72.8789 59.3936C73.9074 60.5803 72.7706 61.4974 71.5797 62.4144ZM70.0099 60.7961C69.3061 61.3895 68.3317 62.1447 68.8731 62.7381C69.4144 63.3314 70.2805 62.5762 71.0384 61.9289C72.1752 60.9579 72.933 60.3646 72.4458 59.7712C71.9586 59.1778 71.2008 59.8251 70.0099 60.7961Z" fill="#EC6B1E" stroke="#EC6B1E" stroke-width="0.543083"></path>
  <path d="M71.796 66.5684L71.2546 66.029L74.5571 62.5767L73.5284 62.4148L74.0157 61.8754C74.3947 61.9833 74.7736 62.0372 75.1526 62.0372L75.6399 62.4688L71.796 66.5684Z" fill="#EC6B1E" stroke="#EC6B1E" stroke-width="0.543083"></path>
  <path fill-rule="evenodd" clip-rule="evenodd" d="M135.944 38.6797V57.8295L128.311 57.8834V38.7876V37.9784C128.095 21.0403 114.183 7.55448 97.1851 7.77025C80.1873 7.98602 66.6541 21.9033 66.8706 38.7876H59.1838V37.8705C59.4544 16.7248 76.8311 -0.213337 97.9971 0.00243555C119.217 0.272151 136.215 17.5879 135.944 38.6797ZM73.3665 15.8081L73.3123 15.7541L72.9875 16.0239C73.0416 16.1317 73.0958 16.2396 73.204 16.2936C73.6913 16.6172 74.341 16.5093 74.6658 16.0778C75.0989 15.5923 75.3155 14.9989 74.7199 14.4595C74.215 13.986 73.6449 14.1782 73.1347 14.3502C72.715 14.4916 72.3359 14.6194 72.0671 14.3516L72.013 14.2977C71.7964 14.0819 71.8506 13.7582 72.0671 13.5425C72.392 13.2188 72.6627 13.2728 72.9875 13.5964L73.3665 13.2188C73.3501 13.2025 73.3337 13.1812 73.3158 13.158C73.2746 13.1045 73.2254 13.0407 73.1499 13.003C72.7168 12.6794 72.1213 12.7873 71.7964 13.2188L71.6881 13.3267C71.3092 13.7582 71.3092 14.4056 71.7423 14.7832C72.1774 15.2167 72.7057 15.0308 73.2024 14.8561C73.6328 14.7047 74.0394 14.5616 74.341 14.8371L74.4493 14.945C74.6658 15.2147 74.6117 15.5923 74.341 15.8081C74.3203 15.8287 74.3075 15.8493 74.2966 15.8669C74.2789 15.8954 74.2662 15.916 74.2327 15.916C73.962 16.1317 73.583 16.0778 73.3665 15.8081ZM74.7196 10.6297L75.0986 10.3061L75.9107 12.8414L76.8852 13.9742L76.5062 14.2979L75.5317 13.165L73.1496 12.0322L73.5827 11.6546L75.4235 12.5717L74.7196 10.6297ZM77.7517 11.8697L77.6976 11.7618L77.2645 12.1394C77.2915 12.1933 77.3321 12.2338 77.3727 12.2742C77.4133 12.3147 77.4539 12.3551 77.481 12.4091C77.86 12.8406 78.5097 12.8406 78.9428 12.463C79.43 12.0854 79.7549 11.546 79.2676 10.8987C78.8522 10.337 78.258 10.4234 77.7255 10.5007C77.2863 10.5645 76.8892 10.6223 76.6689 10.3053C76.6689 10.3053 76.6148 10.3053 76.6148 10.2514C76.4524 9.98165 76.5606 9.65799 76.8313 9.49616C77.2103 9.22645 77.481 9.38828 77.7517 9.71193L78.1848 9.38828C78.1848 9.28039 78.0765 9.1725 78.0224 9.11856C77.6434 8.74096 77.0479 8.74096 76.6689 9.11856C76.6148 9.11856 76.6148 9.11856 76.5606 9.1725C76.0734 9.5501 76.0193 10.1974 76.3441 10.629C76.6908 11.1184 77.2534 11.0393 77.7768 10.9657C78.2341 10.9015 78.6614 10.8414 78.8886 11.1684C78.8886 11.1954 78.9022 11.2089 78.9157 11.2223C78.9292 11.2358 78.9428 11.2493 78.9428 11.2763C79.1052 11.5999 78.9969 11.9236 78.6721 12.0854C78.645 12.0854 78.6315 12.0989 78.6179 12.1124C78.6044 12.1259 78.5909 12.1394 78.5638 12.1394C78.2931 12.3012 77.9141 12.1933 77.7517 11.8697ZM80.4583 6.74454L80.6749 7.12214L79.8086 7.66157L81.5952 10.6284L81.1621 10.8982L79.4296 7.93129L78.5634 8.47072L78.3469 8.09312L80.4583 6.74454ZM81.216 6.36739L82.8943 9.8737L84.7351 9.01061L84.5726 8.63301L83.165 9.28032L82.5695 8.03963L83.8688 7.44626L83.7064 7.06865L82.4071 7.66203L81.8657 6.52922L83.2192 5.88191L83.0567 5.5043L81.216 6.36739ZM85.7623 8.57896L85.3292 8.74079L84.0842 5.07266L84.842 4.80294L86.7908 7.60798L86.7367 4.20957L87.4945 3.93985L88.7396 7.66193L88.2524 7.82376L87.1697 4.53322L87.2239 8.14742L86.7908 8.30925L84.6796 5.34237L85.7623 8.57896ZM91.8254 3.56239C91.9878 3.72422 92.042 3.88605 92.042 4.10182L92.5292 3.93999C92.4751 3.18479 92.0961 2.80718 91.3382 2.96901C90.5802 3.13084 90.1471 3.50845 90.3095 4.58731L90.4719 5.66617C90.6852 7.15388 91.4238 7.07157 91.9115 7.01721L91.9337 7.01475L91.9599 7.00838C92.212 6.94765 93.0086 6.75573 92.7999 5.61223L92.3127 5.66617C92.421 6.42138 91.9878 6.58321 91.8254 6.58321C91.4464 6.69109 91.1216 6.58321 90.9592 5.66617L90.7968 4.64125C90.709 4.11665 90.7635 3.94634 90.7873 3.87191C90.7929 3.8545 90.7968 3.84233 90.7968 3.8321C90.9051 3.61633 91.1216 3.4545 91.3382 3.4545C91.5006 3.4545 91.663 3.4545 91.8254 3.56239ZM93.7744 6.74542L93.5037 2.86152L95.5068 2.69969V3.13123L93.9909 3.23912L94.0451 4.47981L95.5068 4.37193V4.80347L94.0992 4.91136L94.2075 6.25994L95.7775 6.15205V6.5836L93.7744 6.74542ZM97.0236 6.58352V4.8034H97.5108C97.8357 4.74945 98.1064 4.96523 98.1064 5.28889C98.1064 5.72043 98.1605 6.15198 98.2688 6.58352H98.8102C98.756 6.25986 98.7019 5.88226 98.7019 5.5586C98.6477 4.74945 98.4853 4.58763 98.0522 4.53368C98.4853 4.47974 98.8102 4.10214 98.8102 3.67059V3.50876C98.8102 3.02327 98.3771 2.69962 97.8898 2.69962H96.5363V6.58352H97.0236ZM97.7815 4.37185H97.0236V3.13116H97.7815H97.8357C98.1605 3.1851 98.3771 3.45482 98.3229 3.72454C98.3229 4.10214 98.1605 4.37185 97.7815 4.37185ZM102.003 2.9691L101.949 3.40064L100.975 3.29276L100.704 6.74512L100.162 6.69118L100.433 3.23881L99.4045 3.13093V2.75333L102.003 2.9691ZM102.273 6.96122L102.76 7.01516L103.301 3.1852L102.814 3.13126L102.273 6.96122ZM103.627 7.12333L104.439 3.29337L106.334 3.67097L106.28 4.10251L104.818 3.8328L104.548 5.07349L105.901 5.3432L105.793 5.77475L104.439 5.50503L104.114 7.23122L103.627 7.12333ZM106.117 7.66216L106.604 7.77005L107.579 3.99402L107.091 3.88614L106.117 7.66216ZM110.014 5.88286C110.123 5.72103 110.123 5.50526 110.068 5.28948C109.96 5.12765 109.852 5.01977 109.689 5.01977C109.527 4.91188 109.256 4.96582 109.094 5.12765C109.089 5.13256 109.084 5.13746 109.078 5.14281C109.019 5.19631 108.912 5.29438 108.715 5.88286L108.39 6.85383C108.065 7.77087 108.336 7.98664 108.715 8.09453C108.877 8.14847 109.31 8.25636 109.581 7.50115L110.068 7.66298C109.723 8.74401 109.019 8.57175 108.691 8.49171C108.659 8.48388 108.631 8.47693 108.607 8.47213C108.119 8.3103 107.47 8.04058 107.957 6.63806L108.336 5.61314C108.661 4.58822 109.256 4.42639 109.96 4.69611C110.664 4.96582 110.826 5.39737 110.556 6.09863L110.014 5.88286ZM113.371 6.151L112.776 5.88128L110.123 8.84816L110.556 9.06393L111.206 8.36267L112.559 9.00998L112.397 9.98096L112.884 10.1967L113.371 6.151ZM111.476 8.03901L112.884 6.42071L112.613 8.57844L111.476 8.03901ZM116.782 7.98667L116.565 8.36427L115.699 7.82484L113.967 10.8457L113.533 10.5759L115.266 7.55513L114.4 7.01569L114.616 6.63809L116.782 7.98667ZM115.319 11.7077L115.752 11.9774L117.971 8.74082L117.538 8.4711L115.319 11.7077ZM117.431 11.3838L118.243 10.4128C118.676 9.87338 119.434 9.81944 119.975 10.251C120.517 10.6825 120.571 11.4377 120.138 11.9772L119.326 12.9481C118.622 13.7573 118.08 13.8652 117.431 13.3257C116.781 12.7863 116.727 12.2469 117.431 11.3838ZM118.893 12.6784L119.705 11.6535C120.246 11.0062 119.813 10.6286 119.705 10.5746C119.695 10.5697 119.682 10.5622 119.666 10.553C119.508 10.4606 119.065 10.2019 118.622 10.7904L117.81 11.8153C117.268 12.4627 117.323 12.7863 117.701 13.11C118.08 13.4336 118.351 13.3257 118.893 12.6784ZM120.949 16.6161L123.764 13.9189L123.493 13.5413L121.057 15.8609L122.411 12.4624L121.923 11.977L119.109 14.6741L119.433 14.9978L121.869 12.6782L120.462 16.1306L120.949 16.6161Z" fill="#1A1A1A" fill-opacity="0.6"></path>
</svg>
