<?xml version="1.0" encoding="UTF-8"?>
<svg xmlns="http://www.w3.org/2000/svg" width="200" height="80" viewBox="0 0 200 80" fill="none">
  <path d="M97.5396 48.4229L91.048 41.9455V32.0134L97.5937 38.5448L112.47 23.7007C104.248 15.4959 90.9398 15.5499 82.7711 23.7007C74.5484 31.9054 74.6025 45.1842 82.7711 53.335C90.9939 61.5397 104.302 61.4858 112.47 53.335C118.746 47.0735 120.423 37.5192 116.582 29.4764L97.5396 48.4229Z" fill="#EC6B1E"></path>
  <path d="M110.36 76.7075C108.466 76.1137 108.033 74.4943 108.196 72.6589H110.955C110.955 73.9005 111.009 74.9801 112.523 74.9801C113.443 74.9801 113.93 74.3863 113.93 73.4687C113.93 71.0935 108.358 70.9316 108.358 67.0449C108.358 64.9937 109.332 63.3203 112.74 63.3203C115.445 63.3203 116.797 64.5079 116.581 67.2609H113.876C113.876 66.2892 113.714 65.2636 112.577 65.2636C111.874 65.1556 111.225 65.6954 111.171 66.3972C111.171 66.5051 111.171 66.5591 111.171 66.6671C111.171 69.1502 116.743 68.9343 116.743 73.0908C116.743 75.358 115.607 76.3296 114.254 76.6535L110.36 76.7075Z" fill="#1A1A1A" fill-opacity="0.6"></path>
  <path d="M123.45 67.585C123.45 66.3435 123.288 65.2639 121.827 65.2639C120.096 65.2639 120.096 67.585 120.096 70.1221C120.096 74.2246 120.529 74.9804 122.098 74.9804C122.584 74.9804 123.017 74.8724 123.45 74.7105V71.7955H121.935V69.7443H126.209V76.4379C125.938 76.4918 125.452 76.5998 124.911 76.6538H120.15C117.607 76.006 117.229 74.0087 117.229 69.9602C117.229 66.6674 117.391 63.2666 121.935 63.2666C124.64 63.2666 126.317 64.778 126.155 67.531L123.45 67.585Z" fill="#1A1A1A" fill-opacity="0.6"></path>
  <path d="M131.458 63.3203C133.892 63.3203 135.19 64.238 135.407 66.3972V67.3148H132.702C132.702 66.3432 132.486 65.3176 131.35 65.3176C130.646 65.2096 129.997 65.7494 129.943 66.4512C129.943 66.5591 129.943 66.6131 129.943 66.7211C129.943 69.0422 134.704 69.0422 135.407 72.2811V74.1704C135.245 75.412 134.271 76.4376 133.027 76.7075H129.186C127.292 76.1137 126.86 74.4943 127.022 72.6589H129.781C129.781 73.9005 129.835 74.9801 131.35 74.9801C132.269 74.9801 132.756 74.3863 132.756 73.4687C132.756 71.0935 127.184 70.9316 127.184 67.0449C127.076 64.9937 128.104 63.3203 131.458 63.3203Z" fill="#1A1A1A" fill-opacity="0.6"></path>
  <path d="M99.8646 76.708H140.816V77.2478H99.8646V76.708Z" fill="#1A1A1A" fill-opacity="0.6"></path>
  <path d="M135.354 60.8916H135.895V80H135.354V60.8916Z" fill="#1A1A1A" fill-opacity="0.6"></path>
  <path fill-rule="evenodd" clip-rule="evenodd" d="M135.894 38.7058V57.8683H128.266V38.7598V37.9501C128.05 21.0008 114.147 7.50618 97.1601 7.7221C80.1736 7.93801 66.6493 21.8645 66.8657 38.7598H59.1839V37.8422C59.4544 16.6826 76.8196 -0.266745 97.9715 0.0031485C119.178 0.273042 136.164 17.6002 135.894 38.7058ZM73.3572 15.7648L73.3031 15.7108L72.9786 15.9807L72.9786 15.9807C73.0327 16.0887 73.0868 16.1967 73.1949 16.2506C73.6818 16.5745 74.331 16.4666 74.6556 16.0347C75.0883 15.5489 75.3047 14.9551 74.7097 14.4153C74.2051 13.9414 73.6354 14.1338 73.1257 14.3059C72.7063 14.4475 72.3275 14.5753 72.0589 14.3073L72.0048 14.2534C71.7884 14.0374 71.8425 13.7136 72.0589 13.4976C72.3835 13.1737 72.654 13.2277 72.9786 13.5516L73.3572 13.1737C73.3409 13.1574 73.3245 13.1361 73.3066 13.1129C73.2654 13.0593 73.2163 12.9955 73.1408 12.9578C72.7081 12.6339 72.113 12.7419 71.7884 13.1737L71.6802 13.2817C71.3016 13.7136 71.3016 14.3613 71.7343 14.7392C72.1691 15.173 72.697 14.987 73.1933 14.8122C73.6234 14.6607 74.0296 14.5175 74.331 14.7932L74.4392 14.9011C74.6556 15.171 74.6015 15.5489 74.331 15.7648C74.3103 15.7854 74.2976 15.8061 74.2866 15.8237C74.269 15.8522 74.2562 15.8728 74.2228 15.8728C73.9523 16.0887 73.5736 16.0347 73.3572 15.7648ZM74.7102 10.5836L75.0889 10.2597L75.9004 12.7968L76.8741 13.9304L76.4955 14.2543L75.5217 13.1207L73.1414 11.9871L73.5742 11.6093L75.4135 12.5269L74.7102 10.5836ZM77.7393 11.8245L77.6853 11.7165L77.2525 12.0944C77.2795 12.1484 77.3201 12.1888 77.3607 12.2293C77.4012 12.2698 77.4418 12.3103 77.4689 12.3643C77.8475 12.7961 78.4967 12.7961 78.9295 12.4183C79.4164 12.0404 79.7409 11.5006 79.2541 10.8528C78.839 10.2907 78.2452 10.3772 77.7132 10.4546C77.2743 10.5184 76.8775 10.5762 76.6574 10.259C76.6574 10.259 76.6033 10.259 76.6033 10.205C76.441 9.93515 76.5492 9.61126 76.8197 9.44932C77.1984 9.17942 77.4689 9.34136 77.7393 9.66524L78.1721 9.34136C78.1721 9.2334 78.0639 9.12543 78.0098 9.07145C77.6312 8.69359 77.0361 8.69359 76.6574 9.07145C76.6344 9.07145 76.6212 9.07145 76.6094 9.0756C76.5935 9.08121 76.5803 9.0944 76.5492 9.12542L76.5492 9.12543C76.0623 9.5033 76.0082 10.1511 76.3328 10.5829C76.6793 11.0727 77.2415 10.9935 77.7644 10.9199C78.2214 10.8556 78.6484 10.7955 78.8754 11.1227C78.8754 11.1497 78.8889 11.1632 78.9024 11.1767C78.916 11.1902 78.9295 11.2037 78.9295 11.2307C79.0918 11.5546 78.9836 11.8784 78.659 12.0404C78.632 12.0404 78.6184 12.0539 78.6049 12.0674C78.5914 12.0809 78.5779 12.0944 78.5508 12.0944C78.2803 12.2563 77.9016 12.1484 77.7393 11.8245ZM80.4441 6.69724L80.6605 7.0751L79.7949 7.61491L81.5801 10.5838L81.1473 10.8537L79.4162 7.88481L78.5507 8.42462L78.3343 8.04675L80.4441 6.69724ZM81.2005 6.37343L82.8775 9.88217L84.7709 8.9645L84.6086 8.58663L83.2021 9.2344L82.607 7.99285L83.9054 7.39906L83.689 7.02119L82.3906 7.61498L81.8497 6.48139L83.2021 5.8876L83.0398 5.50974L81.2005 6.37343ZM85.7457 8.53196L85.3129 8.6939L84.0687 5.02321L84.826 4.75331L86.7735 7.5603L86.7194 4.15952L87.4768 3.88962L88.721 7.61428L88.2341 7.77623L87.1522 4.48341L87.2063 8.10011L86.7735 8.26205L84.6637 5.29312L85.7457 8.53196ZM91.8048 3.51162C91.9671 3.67356 92.0212 3.8355 92.0212 4.05143L92.5081 3.88948C92.454 3.13375 92.0753 2.75589 91.3179 2.91783C90.5606 3.07977 90.1278 3.45764 90.2901 4.53725L90.4524 5.61687C90.6655 7.1056 91.4035 7.02324 91.8909 6.96885L91.913 6.96638L91.9392 6.96001C92.191 6.89924 92.9871 6.70718 92.7786 5.56288L92.2917 5.61687C92.3999 6.37259 91.9671 6.53454 91.8048 6.53454C91.4261 6.6425 91.1015 6.53454 90.9392 5.61687L90.777 4.59123C90.6893 4.06627 90.7437 3.89584 90.7675 3.82135C90.7731 3.80393 90.777 3.79176 90.777 3.78152C90.8851 3.5656 91.1015 3.40366 91.3179 3.40366C91.4802 3.40366 91.6425 3.40366 91.8048 3.51162ZM93.7522 6.69696L93.4818 2.81035L95.4834 2.64841V3.08025L93.9686 3.18821L94.0768 4.42977L95.5374 4.32181V4.75365L94.1309 4.86161L94.2391 6.21113L95.8079 6.10317V6.53502L93.7522 6.69696ZM96.9979 6.53502V4.75365H97.4848C97.8094 4.69967 98.0799 4.9156 98.0799 5.23948C98.0799 5.67132 98.134 6.10317 98.2422 6.53502H98.7831C98.729 6.21113 98.6749 5.83327 98.6749 5.50938C98.6208 4.69967 98.4585 4.53773 98.0258 4.48375C98.4585 4.42977 98.7831 4.0519 98.7831 3.62006V3.45812C98.7831 2.97229 98.3504 2.64841 97.8635 2.64841H96.511V6.53502H96.9979ZM97.7553 4.32181H96.9979V3.08025H97.7553H97.8094C98.134 3.13423 98.3504 3.40414 98.2963 3.67404C98.2963 4.0519 98.134 4.32181 97.7553 4.32181ZM101.975 2.91804L101.92 3.34989L100.947 3.24192L100.676 6.69669L100.189 6.64271L100.46 3.18794L99.4319 3.07998V2.70212L101.975 2.91804ZM102.245 6.91268L102.732 6.96666L103.273 3.13403L102.786 3.08005L102.245 6.91268ZM103.597 7.07478L104.408 3.24216L106.302 3.62002L106.248 4.05187L104.787 3.78196L104.517 5.02352L105.869 5.29342L105.761 5.72527L104.408 5.45536L104.084 7.18275L103.597 7.07478ZM106.085 7.61456L106.572 7.72252L107.546 3.94387L107.059 3.83591L106.085 7.61456ZM109.981 5.83256C110.09 5.67061 110.09 5.45469 110.035 5.23877C109.927 5.07683 109.819 4.96886 109.657 4.96886C109.494 4.8609 109.224 4.91488 109.062 5.07683C109.057 5.08173 109.051 5.08664 109.046 5.09199C108.987 5.14553 108.88 5.24367 108.683 5.83256L108.358 6.80421C108.034 7.72188 108.304 7.9378 108.683 8.04576C108.845 8.09974 109.278 8.20771 109.549 7.45198L110.035 7.61392C109.691 8.6957 108.986 8.52332 108.659 8.44322C108.627 8.43539 108.599 8.42844 108.575 8.42363C108.088 8.26169 107.439 7.99178 107.926 6.58828L108.304 5.56265C108.629 4.53702 109.224 4.37508 109.927 4.64498C110.631 4.91488 110.793 5.34673 110.522 6.04848L109.981 5.83256ZM113.335 6.10288L112.74 5.83298L110.089 8.80191L110.522 9.01784L111.171 8.31609L112.524 8.96386L112.361 9.93551L112.848 10.1514L113.335 6.10288ZM111.442 7.9922L112.848 6.37278L112.578 8.53201L111.442 7.9922ZM116.742 7.93738L116.526 8.31524L115.66 7.77543L113.929 10.7984L113.496 10.5284L115.228 7.50553L114.362 6.96572L114.578 6.58786L116.742 7.93738ZM115.283 11.6626L115.715 11.9325L117.933 8.6937L117.501 8.4238L115.283 11.6626ZM117.392 11.3385L118.204 10.3668C118.637 9.82699 119.394 9.77301 119.935 10.2049C120.476 10.6367 120.53 11.3924 120.097 11.9322L119.286 12.9039C118.583 13.7136 118.042 13.8216 117.392 13.2818C116.743 12.742 116.689 12.2021 117.392 11.3385ZM118.853 12.634L119.665 11.6084C120.205 10.9606 119.773 10.5827 119.665 10.5287C119.655 10.5238 119.642 10.5163 119.626 10.507C119.468 10.4146 119.025 10.1557 118.583 10.7447L117.771 11.7703C117.23 12.4181 117.284 12.742 117.663 13.0658C118.042 13.3897 118.312 13.2818 118.853 12.634ZM120.908 16.5749L123.721 13.8759L123.451 13.498L121.016 15.8192L122.369 12.4184L121.882 11.9326L119.069 14.6316L119.393 14.9555L121.828 12.6343L120.421 16.0891L120.908 16.5749Z" fill="#1A1A1A" fill-opacity="0.6"></path>
  <path d="M59.671 43.2951L59.5628 42.5393L65.4053 41.8916L65.5135 42.6473L59.671 43.2951Z" fill="#EC6B1E" stroke="#EC6B1E" stroke-width="0.551559"></path>
  <path d="M61.7266 45.1843L61.5643 45.2383C61.0775 45.2923 60.6988 45.7241 60.6988 46.2099C60.6988 46.2639 60.6988 46.3179 60.7529 46.4258C60.8611 46.9657 61.1857 47.3975 61.8889 47.2356C63.1332 46.9657 62.484 44.4286 64.2151 44.0507C65.0266 43.8348 65.8921 44.3746 66.1085 45.1843C66.1085 45.2383 66.1626 45.3462 66.1626 45.4002C66.379 46.4258 66.0003 47.1276 64.8102 47.3435L64.5938 46.5878C65.243 46.4798 65.5675 46.1559 65.4593 45.5082C65.4052 45.0763 65.0266 44.7524 64.5397 44.8064C64.4856 44.8064 64.4315 44.8064 64.4315 44.8064C63.1873 45.0763 63.8905 47.6134 62.1053 47.9913C60.9152 48.2612 60.3201 47.5055 60.1578 46.5878C59.7791 44.9144 61.0775 44.6445 61.6184 44.5365L61.7266 45.1843Z" fill="#EC6B1E" stroke="#EC6B1E" stroke-width="0.551559"></path>
  <path d="M63.1328 49.3411L64.918 48.6933C65.9999 48.2615 66.9196 48.5854 67.3524 49.7729C67.7851 50.9605 67.2983 51.7162 66.2163 52.1481L64.4311 52.7958C62.9164 53.3357 62.1049 53.0118 61.6722 51.8782C61.2394 50.7446 61.6181 49.8809 63.1328 49.3411ZM64.1065 52.0941L65.9458 51.3923C67.0819 50.9605 66.8114 50.1508 66.7573 49.9349C66.7032 49.7189 66.3245 48.9092 65.1885 49.3411L63.3492 50.0428C62.159 50.4747 61.9426 50.9605 62.2131 51.6083C62.4836 52.256 62.9164 52.5259 64.1065 52.0941Z" fill="#EC6B1E" stroke="#EC6B1E" stroke-width="0.551559"></path>
  <path d="M63.8358 56.4661L64.3767 56.1423C67.1898 56.4122 67.7849 56.6281 68.6504 56.1423C68.975 55.9803 69.1373 55.6025 69.0291 55.2786C69.0291 55.2246 68.975 55.1706 68.975 55.1706C68.7045 54.6848 68.2176 54.8467 67.839 55.0626L67.4603 54.4149C68.2176 53.8751 68.975 53.983 69.4619 54.8467C69.9487 55.7104 69.8405 56.3582 68.9209 56.898C67.839 57.5458 67.1357 57.1679 64.7554 56.898L65.8914 58.8413L65.3505 59.1652L63.8358 56.4661Z" fill="#EC6B1E" stroke="#EC6B1E" stroke-width="0.551559"></path>
  <path d="M70.6526 56.8974L72.4378 59.2186L71.8968 59.5965L67.0281 61.4318L66.4871 60.7301L71.41 58.9487L70.1116 57.2213L70.6526 56.8974Z" fill="#EC6B1E" stroke="#EC6B1E" stroke-width="0.551559"></path>
  <path d="M72.9172 60.1667L75.0345 62.1895L74.5572 62.6452L70.024 65.1993L69.3826 64.5879L73.9775 62.079L72.4317 60.569L72.9172 60.1667Z" fill="#EC6B1E" stroke="#EC6B1E" stroke-width="0.551559"></path>
  <path d="M76.4411 66.9368C75.5215 68.0704 74.6018 69.204 73.4117 68.2323C72.2215 67.2607 73.1412 66.1811 74.0609 64.9935C74.9805 63.8059 75.9001 62.7263 77.0903 63.698C78.2804 64.6696 77.4149 65.7492 76.4411 66.9368ZM74.6018 65.5873C74.0068 66.343 73.1953 67.2067 73.8445 67.7465C74.4936 68.2863 75.1969 67.3147 75.792 66.5589C76.7657 65.3714 77.3067 64.6696 76.7657 64.1838C76.2247 63.698 75.5215 64.3997 74.6018 65.5873Z" fill="#EC6B1E" stroke="#EC6B1E" stroke-width="0.551559"></path>
  <path d="M77.5225 70.9872L76.8734 70.6094L79.47 66.5608H78.4422L78.8208 65.967C79.1995 65.967 79.5782 65.967 79.9569 65.9131L80.4979 66.2369L77.5225 70.9872Z" fill="#EC6B1E" stroke="#EC6B1E" stroke-width="0.551559"></path>
</svg>
