<?xml version="1.0" encoding="UTF-8"?>
<svg xmlns="http://www.w3.org/2000/svg" width="224" height="80" viewBox="0 0 224 80" fill="none">
  <g clip-path="url(#clip0_2708_38259)">
    <circle cx="22.1543" cy="40" r="7.5" fill="#F40000"></circle>
    <path d="M32.7609 50.6066C30.6631 52.7044 27.9904 54.133 25.0807 54.7118C22.1709 55.2906 19.1549 54.9935 16.414 53.8582C13.6732 52.7229 11.3305 50.8003 9.68225 48.3336C8.03403 45.8668 7.1543 42.9667 7.1543 40C7.1543 37.0333 8.03403 34.1332 9.68225 31.6664C11.3305 29.1997 13.6732 27.2771 16.414 26.1418C19.1549 25.0065 22.1709 24.7094 25.0806 25.2882C27.9904 25.867 30.6631 27.2956 32.7609 29.3934" stroke="#1A1A1A" stroke-width="8.33333"></path>
  </g>
  <path d="M70.8043 55.975C70.5043 55.975 70.2493 55.885 70.0393 55.705C69.8593 55.495 69.7693 55.24 69.7693 54.94V48.46H55.1893C54.8893 48.46 54.6343 48.37 54.4243 48.19C54.2443 47.98 54.1543 47.725 54.1543 47.425V45.625C54.1543 45.505 54.1843 45.325 54.2443 45.085C54.3343 44.815 54.4693 44.545 54.6493 44.275L68.1493 25.24C68.5093 24.73 69.0643 24.475 69.8143 24.475H73.0543C73.3543 24.475 73.5943 24.58 73.7743 24.79C73.9843 24.97 74.0893 25.21 74.0893 25.51V44.545H78.1393C78.4693 44.545 78.7243 44.65 78.9043 44.86C79.1143 45.04 79.2193 45.28 79.2193 45.58V47.425C79.2193 47.725 79.1143 47.98 78.9043 48.19C78.7243 48.37 78.4843 48.46 78.1843 48.46H74.0893V54.94C74.0893 55.24 73.9843 55.495 73.7743 55.705C73.5943 55.885 73.3543 55.975 73.0543 55.975H70.8043ZM58.9693 44.635H69.8143V29.2L58.9693 44.635Z" fill="#1A1A1A"></path>
  <path d="M84.0993 55.975C83.7993 55.975 83.5443 55.885 83.3343 55.705C83.1543 55.495 83.0643 55.24 83.0643 54.94V51.7C83.0643 51.4 83.1543 51.16 83.3343 50.98C83.5443 50.77 83.7993 50.665 84.0993 50.665H87.3393C87.6393 50.665 87.8793 50.77 88.0593 50.98C88.2693 51.16 88.3743 51.4 88.3743 51.7V54.94C88.3743 55.24 88.2693 55.495 88.0593 55.705C87.8793 55.885 87.6393 55.975 87.3393 55.975H84.0993Z" fill="#1A1A1A"></path>
  <path d="M98.0507 55.975C97.7807 55.975 97.5557 55.885 97.3757 55.705C97.2257 55.495 97.1507 55.255 97.1507 54.985C97.1507 54.835 97.1657 54.715 97.1957 54.625C97.2557 54.535 97.3007 54.46 97.3307 54.4L104.216 44.815C103.466 44.995 102.656 45.085 101.786 45.085C100.106 45.055 98.6057 44.755 97.2857 44.185C95.9657 43.615 94.8407 42.85 93.9107 41.89C92.9807 40.9 92.2757 39.79 91.7957 38.56C91.3157 37.33 91.0757 36.04 91.0757 34.69C91.0757 33.37 91.3007 32.08 91.7507 30.82C92.2307 29.56 92.9357 28.42 93.8657 27.4C94.8257 26.38 96.0107 25.57 97.4207 24.97C98.8307 24.34 100.496 24.025 102.416 24.025C104.306 24.025 105.956 24.325 107.366 24.925C108.806 25.495 110.006 26.29 110.966 27.31C111.956 28.3 112.676 29.425 113.126 30.685C113.606 31.945 113.846 33.25 113.846 34.6C113.846 35.83 113.666 36.955 113.306 37.975C112.946 38.995 112.511 39.91 112.001 40.72C111.521 41.53 111.041 42.28 110.561 42.97L101.921 55.075C101.801 55.225 101.636 55.42 101.426 55.66C101.216 55.87 100.901 55.975 100.481 55.975H98.0507ZM102.416 41.44C103.676 41.44 104.831 41.17 105.881 40.63C106.961 40.06 107.816 39.28 108.446 38.29C109.076 37.27 109.391 36.055 109.391 34.645C109.391 33.235 109.076 32.035 108.446 31.045C107.816 30.025 106.961 29.245 105.881 28.705C104.831 28.135 103.676 27.85 102.416 27.85C101.186 27.85 100.046 28.135 98.9957 28.705C97.9457 29.245 97.1057 30.025 96.4757 31.045C95.8457 32.035 95.5307 33.235 95.5307 34.645C95.5307 36.055 95.8457 37.27 96.4757 38.29C97.1057 39.28 97.9457 40.06 98.9957 40.63C100.046 41.17 101.186 41.44 102.416 41.44Z" fill="#1A1A1A"></path>
  <path d="M133.846 38.1386L129.314 39.911L129.592 35.0371L126.512 31.2585L131.217 30.0186L133.846 25.911L136.474 30.0186L141.179 31.2585L138.099 35.0371L138.378 39.911L133.846 38.1386Z" fill="#F40000"></path>
  <path d="M153.846 38.1386L149.314 39.911L149.592 35.0371L146.512 31.2585L151.217 30.0186L153.846 25.911L156.474 30.0186L161.179 31.2585L158.099 35.0371L158.378 39.911L153.846 38.1386Z" fill="#F40000"></path>
  <path d="M173.846 38.1386L169.313 39.911L169.592 35.0371L166.512 31.2585L171.217 30.0186L173.846 25.911L176.474 30.0186L181.179 31.2585L178.099 35.0371L178.378 39.911L173.846 38.1386Z" fill="#F40000"></path>
  <path d="M193.846 38.1386L189.313 39.911L189.592 35.0371L186.512 31.2585L191.217 30.0186L193.846 25.911L196.474 30.0186L201.179 31.2585L198.099 35.0371L198.378 39.911L193.846 38.1386Z" fill="#F40000"></path>
  <path d="M213.846 38.1386L209.313 39.911L209.592 35.0371L206.512 31.2585L211.217 30.0186L213.846 25.911L216.474 30.0186L221.179 31.2585L218.099 35.0371L218.378 39.911L213.846 38.1386Z" fill="#F40000"></path>
  <path d="M126.168 58.949C126.074 58.949 125.995 58.921 125.93 58.865C125.874 58.7997 125.846 58.7203 125.846 58.627V58.179C125.846 58.095 125.869 58.0017 125.916 57.899C125.962 57.7963 126.056 57.6843 126.196 57.563L129.164 54.595C129.64 54.1937 130.013 53.853 130.284 53.573C130.564 53.2837 130.76 53.0083 130.872 52.747C130.993 52.4857 131.054 52.215 131.054 51.935C131.054 51.403 130.904 50.983 130.606 50.675C130.307 50.3577 129.864 50.199 129.276 50.199C128.902 50.199 128.58 50.2783 128.31 50.437C128.039 50.5863 127.824 50.7963 127.666 51.067C127.516 51.3283 127.418 51.627 127.372 51.963C127.353 52.0843 127.302 52.1683 127.218 52.215C127.143 52.2617 127.073 52.285 127.008 52.285H126.28C126.196 52.285 126.126 52.2617 126.07 52.215C126.014 52.159 125.986 52.0937 125.986 52.019C125.995 51.6643 126.07 51.3097 126.21 50.955C126.35 50.591 126.555 50.2643 126.826 49.975C127.106 49.6857 127.446 49.4523 127.848 49.275C128.258 49.0883 128.734 48.995 129.276 48.995C130.013 48.995 130.615 49.1303 131.082 49.401C131.558 49.6623 131.908 50.0123 132.132 50.451C132.356 50.8897 132.468 51.3703 132.468 51.893C132.468 52.3037 132.398 52.6817 132.258 53.027C132.118 53.363 131.912 53.6943 131.642 54.021C131.38 54.3383 131.054 54.665 130.662 55.001L127.974 57.731H132.342C132.444 57.731 132.524 57.759 132.58 57.815C132.645 57.871 132.678 57.9503 132.678 58.053V58.627C132.678 58.7203 132.645 58.7997 132.58 58.865C132.524 58.921 132.444 58.949 132.342 58.949H126.168Z" fill="#1A1A1A"></path>
  <path d="M137.549 59.089C136.961 59.089 136.447 59.019 136.009 58.879C135.57 58.7297 135.201 58.5337 134.903 58.291C134.604 58.0483 134.375 57.7823 134.217 57.493C134.067 57.2037 133.988 56.905 133.979 56.597C133.979 56.513 134.007 56.4477 134.063 56.401C134.119 56.3543 134.189 56.331 134.273 56.331H134.959C135.043 56.331 135.117 56.3497 135.183 56.387C135.248 56.4243 135.304 56.5037 135.351 56.625C135.444 56.961 135.603 57.2223 135.827 57.409C136.06 57.5957 136.326 57.7263 136.625 57.801C136.933 57.8663 137.241 57.899 137.549 57.899C138.193 57.899 138.715 57.745 139.117 57.437C139.518 57.129 139.719 56.6763 139.719 56.079C139.719 55.4723 139.537 55.0383 139.173 54.777C138.809 54.5157 138.305 54.385 137.661 54.385H136.331C136.237 54.385 136.158 54.357 136.093 54.301C136.037 54.245 136.009 54.1657 136.009 54.063V53.685C136.009 53.601 136.023 53.531 136.051 53.475C136.088 53.4097 136.125 53.3537 136.163 53.307L138.879 50.339H134.749C134.655 50.339 134.576 50.311 134.511 50.255C134.455 50.199 134.427 50.1197 134.427 50.017V49.485C134.427 49.3823 134.455 49.303 134.511 49.247C134.576 49.1817 134.655 49.149 134.749 49.149H140.335C140.437 49.149 140.517 49.1817 140.573 49.247C140.638 49.303 140.671 49.3823 140.671 49.485V49.989C140.671 50.0543 140.652 50.115 140.615 50.171C140.587 50.2177 140.554 50.2643 140.517 50.311L137.815 53.321L138.039 53.335C138.655 53.3537 139.191 53.4657 139.649 53.671C140.115 53.8763 140.475 54.1843 140.727 54.595C140.988 54.9963 141.119 55.505 141.119 56.121C141.119 56.7463 140.965 57.283 140.657 57.731C140.349 58.1697 139.924 58.5057 139.383 58.739C138.841 58.9723 138.23 59.089 137.549 59.089Z" fill="#1A1A1A"></path>
  <path d="M146.574 58.949C146.481 58.949 146.402 58.921 146.336 58.865C146.28 58.7997 146.252 58.7203 146.252 58.627V52.005C146.252 51.9117 146.28 51.8323 146.336 51.767C146.402 51.7017 146.481 51.669 146.574 51.669H147.218C147.312 51.669 147.391 51.7017 147.456 51.767C147.522 51.8323 147.554 51.9117 147.554 52.005V52.621C147.741 52.3037 147.998 52.0657 148.324 51.907C148.651 51.7483 149.043 51.669 149.5 51.669H150.06C150.154 51.669 150.228 51.7017 150.284 51.767C150.34 51.823 150.368 51.8977 150.368 51.991V52.565C150.368 52.6583 150.34 52.733 150.284 52.789C150.228 52.845 150.154 52.873 150.06 52.873H149.22C148.716 52.873 148.32 53.0223 148.03 53.321C147.741 53.6103 147.596 54.007 147.596 54.511V58.627C147.596 58.7203 147.564 58.7997 147.498 58.865C147.433 58.921 147.354 58.949 147.26 58.949H146.574Z" fill="#1A1A1A"></path>
  <path d="M154.332 59.089C153.371 59.089 152.605 58.795 152.036 58.207C151.467 57.6097 151.154 56.7977 151.098 55.771C151.089 55.6497 151.084 55.4957 151.084 55.309C151.084 55.113 151.089 54.9543 151.098 54.833C151.135 54.1703 151.289 53.5917 151.56 53.097C151.831 52.593 152.199 52.2057 152.666 51.935C153.142 51.6643 153.697 51.529 154.332 51.529C155.041 51.529 155.634 51.6783 156.11 51.977C156.595 52.2757 156.964 52.7003 157.216 53.251C157.468 53.8017 157.594 54.4457 157.594 55.183V55.421C157.594 55.5237 157.561 55.603 157.496 55.659C157.44 55.715 157.365 55.743 157.272 55.743H152.428C152.428 55.7523 152.428 55.771 152.428 55.799C152.428 55.827 152.428 55.8503 152.428 55.869C152.447 56.2517 152.531 56.611 152.68 56.947C152.829 57.2737 153.044 57.5397 153.324 57.745C153.604 57.9503 153.94 58.053 154.332 58.053C154.668 58.053 154.948 58.0017 155.172 57.899C155.396 57.7963 155.578 57.6843 155.718 57.563C155.858 57.4323 155.951 57.3343 155.998 57.269C156.082 57.1477 156.147 57.0777 156.194 57.059C156.241 57.031 156.315 57.017 156.418 57.017H157.09C157.183 57.017 157.258 57.045 157.314 57.101C157.379 57.1477 157.407 57.2177 157.398 57.311C157.389 57.451 157.314 57.6237 157.174 57.829C157.034 58.025 156.833 58.221 156.572 58.417C156.311 58.613 155.993 58.7763 155.62 58.907C155.247 59.0283 154.817 59.089 154.332 59.089ZM152.428 54.777H156.264V54.735C156.264 54.315 156.185 53.9417 156.026 53.615C155.877 53.2883 155.657 53.0317 155.368 52.845C155.079 52.649 154.733 52.551 154.332 52.551C153.931 52.551 153.585 52.649 153.296 52.845C153.016 53.0317 152.801 53.2883 152.652 53.615C152.503 53.9417 152.428 54.315 152.428 54.735V54.777Z" fill="#1A1A1A"></path>
  <path d="M161.556 58.949C161.416 58.949 161.304 58.9163 161.22 58.851C161.145 58.7857 161.085 58.7017 161.038 58.599L158.448 52.103C158.429 52.0563 158.42 52.0097 158.42 51.963C158.42 51.879 158.448 51.809 158.504 51.753C158.56 51.697 158.63 51.669 158.714 51.669H159.386C159.489 51.669 159.568 51.697 159.624 51.753C159.68 51.809 159.713 51.8603 159.722 51.907L161.864 57.423L163.992 51.907C164.011 51.8603 164.043 51.809 164.09 51.753C164.146 51.697 164.225 51.669 164.328 51.669H165.014C165.089 51.669 165.154 51.697 165.21 51.753C165.275 51.809 165.308 51.879 165.308 51.963C165.308 52.0097 165.299 52.0563 165.28 52.103L162.676 58.599C162.639 58.7017 162.578 58.7857 162.494 58.851C162.419 58.9163 162.307 58.949 162.158 58.949H161.556Z" fill="#1A1A1A"></path>
  <path d="M167.096 58.949C167.003 58.949 166.923 58.921 166.858 58.865C166.802 58.7997 166.774 58.7203 166.774 58.627V51.991C166.774 51.8977 166.802 51.823 166.858 51.767C166.923 51.7017 167.003 51.669 167.096 51.669H167.768C167.861 51.669 167.936 51.7017 167.992 51.767C168.048 51.823 168.076 51.8977 168.076 51.991V58.627C168.076 58.7203 168.048 58.7997 167.992 58.865C167.936 58.921 167.861 58.949 167.768 58.949H167.096ZM166.984 50.311C166.891 50.311 166.811 50.283 166.746 50.227C166.69 50.1617 166.662 50.0823 166.662 49.989V49.233C166.662 49.1397 166.69 49.065 166.746 49.009C166.811 48.9437 166.891 48.911 166.984 48.911H167.866C167.959 48.911 168.034 48.9437 168.09 49.009C168.155 49.065 168.188 49.1397 168.188 49.233V49.989C168.188 50.0823 168.155 50.1617 168.09 50.227C168.034 50.283 167.959 50.311 167.866 50.311H166.984Z" fill="#1A1A1A"></path>
  <path d="M173.09 59.089C172.129 59.089 171.363 58.795 170.794 58.207C170.225 57.6097 169.912 56.7977 169.856 55.771C169.847 55.6497 169.842 55.4957 169.842 55.309C169.842 55.113 169.847 54.9543 169.856 54.833C169.893 54.1703 170.047 53.5917 170.318 53.097C170.589 52.593 170.957 52.2057 171.424 51.935C171.9 51.6643 172.455 51.529 173.09 51.529C173.799 51.529 174.392 51.6783 174.868 51.977C175.353 52.2757 175.722 52.7003 175.974 53.251C176.226 53.8017 176.352 54.4457 176.352 55.183V55.421C176.352 55.5237 176.319 55.603 176.254 55.659C176.198 55.715 176.123 55.743 176.03 55.743H171.186C171.186 55.7523 171.186 55.771 171.186 55.799C171.186 55.827 171.186 55.8503 171.186 55.869C171.205 56.2517 171.289 56.611 171.438 56.947C171.587 57.2737 171.802 57.5397 172.082 57.745C172.362 57.9503 172.698 58.053 173.09 58.053C173.426 58.053 173.706 58.0017 173.93 57.899C174.154 57.7963 174.336 57.6843 174.476 57.563C174.616 57.4323 174.709 57.3343 174.756 57.269C174.84 57.1477 174.905 57.0777 174.952 57.059C174.999 57.031 175.073 57.017 175.176 57.017H175.848C175.941 57.017 176.016 57.045 176.072 57.101C176.137 57.1477 176.165 57.2177 176.156 57.311C176.147 57.451 176.072 57.6237 175.932 57.829C175.792 58.025 175.591 58.221 175.33 58.417C175.069 58.613 174.751 58.7763 174.378 58.907C174.005 59.0283 173.575 59.089 173.09 59.089ZM171.186 54.777H175.022V54.735C175.022 54.315 174.943 53.9417 174.784 53.615C174.635 53.2883 174.415 53.0317 174.126 52.845C173.837 52.649 173.491 52.551 173.09 52.551C172.689 52.551 172.343 52.649 172.054 52.845C171.774 53.0317 171.559 53.2883 171.41 53.615C171.261 53.9417 171.186 54.315 171.186 54.735V54.777Z" fill="#1A1A1A"></path>
  <path d="M179.766 58.949C179.645 58.949 179.552 58.921 179.486 58.865C179.421 58.7997 179.365 58.711 179.318 58.599L177.33 52.103C177.312 52.0563 177.302 52.0097 177.302 51.963C177.302 51.879 177.33 51.809 177.386 51.753C177.452 51.697 177.522 51.669 177.596 51.669H178.212C178.315 51.669 178.394 51.697 178.45 51.753C178.506 51.809 178.544 51.8603 178.562 51.907L180.116 57.185L181.782 51.963C181.801 51.8977 181.838 51.8323 181.894 51.767C181.96 51.7017 182.053 51.669 182.174 51.669H182.65C182.772 51.669 182.865 51.7017 182.93 51.767C182.996 51.8323 183.033 51.8977 183.042 51.963L184.708 57.185L186.262 51.907C186.272 51.8603 186.304 51.809 186.36 51.753C186.416 51.697 186.496 51.669 186.598 51.669H187.214C187.298 51.669 187.368 51.697 187.424 51.753C187.48 51.809 187.508 51.879 187.508 51.963C187.508 52.0097 187.499 52.0563 187.48 52.103L185.492 58.599C185.464 58.711 185.413 58.7997 185.338 58.865C185.273 58.921 185.175 58.949 185.044 58.949H184.498C184.377 58.949 184.274 58.921 184.19 58.865C184.116 58.7997 184.064 58.711 184.036 58.599L182.412 53.587L180.788 58.599C180.751 58.711 180.695 58.7997 180.62 58.865C180.546 58.921 180.443 58.949 180.312 58.949H179.766Z" fill="#1A1A1A"></path>
  <path d="M191.401 59.089C190.879 59.089 190.431 59.0237 190.057 58.893C189.684 58.7623 189.381 58.6037 189.147 58.417C188.914 58.2303 188.737 58.0437 188.615 57.857C188.503 57.6703 188.443 57.521 188.433 57.409C188.424 57.3063 188.457 57.227 188.531 57.171C188.606 57.115 188.681 57.087 188.755 57.087H189.371C189.427 57.087 189.469 57.0963 189.497 57.115C189.535 57.1243 189.581 57.1617 189.637 57.227C189.759 57.3577 189.894 57.4883 190.043 57.619C190.193 57.7497 190.375 57.857 190.589 57.941C190.813 58.025 191.089 58.067 191.415 58.067C191.891 58.067 192.283 57.9783 192.591 57.801C192.899 57.6143 193.053 57.3437 193.053 56.989C193.053 56.7557 192.988 56.569 192.857 56.429C192.736 56.289 192.512 56.163 192.185 56.051C191.868 55.939 191.429 55.8223 190.869 55.701C190.309 55.5703 189.866 55.4117 189.539 55.225C189.213 55.029 188.979 54.8003 188.839 54.539C188.699 54.2683 188.629 53.965 188.629 53.629C188.629 53.2837 188.732 52.9523 188.937 52.635C189.143 52.3083 189.441 52.0423 189.833 51.837C190.235 51.6317 190.734 51.529 191.331 51.529C191.817 51.529 192.232 51.5897 192.577 51.711C192.923 51.8323 193.207 51.9863 193.431 52.173C193.655 52.3503 193.823 52.5277 193.935 52.705C194.047 52.8823 194.108 53.0317 194.117 53.153C194.127 53.2463 194.099 53.3257 194.033 53.391C193.968 53.447 193.893 53.475 193.809 53.475H193.221C193.156 53.475 193.1 53.461 193.053 53.433C193.016 53.405 192.979 53.3723 192.941 53.335C192.848 53.2137 192.736 53.0923 192.605 52.971C192.484 52.8497 192.321 52.7517 192.115 52.677C191.919 52.593 191.658 52.551 191.331 52.551C190.865 52.551 190.515 52.649 190.281 52.845C190.048 53.041 189.931 53.2883 189.931 53.587C189.931 53.7643 189.983 53.923 190.085 54.063C190.188 54.203 190.384 54.329 190.673 54.441C190.963 54.553 191.392 54.6743 191.961 54.805C192.577 54.9263 193.063 55.0897 193.417 55.295C193.772 55.5003 194.024 55.7383 194.173 56.009C194.323 56.2797 194.397 56.5923 194.397 56.947C194.397 57.339 194.281 57.6983 194.047 58.025C193.823 58.3517 193.487 58.613 193.039 58.809C192.601 58.9957 192.055 59.089 191.401 59.089Z" fill="#1A1A1A"></path>
  <defs>
    <clipPath id="clip0_2708_38259">
      <rect width="40" height="40" fill="white" transform="translate(2.1543 20)"></rect>
    </clipPath>
  </defs>
</svg>
