<?xml version="1.0" encoding="UTF-8"?>
<svg xmlns="http://www.w3.org/2000/svg" width="200" height="50" viewBox="0 0 200 50" fill="none">
  <path d="M44 32.8415L37.2016 35.5L37.62 28.1891L33 22.5213L40.0569 20.6615L44 14.5L47.9431 20.6615L55 22.5213L50.38 28.1891L50.7984 35.5L44 32.8415Z" fill="#1A1A1A"></path>
  <path d="M72 32.8415L65.2016 35.5L65.62 28.1891L61 22.5213L68.0569 20.6615L72 14.5L75.9431 20.6615L83 22.5213L78.38 28.1891L78.7984 35.5L72 32.8415Z" fill="#1A1A1A"></path>
  <path d="M100 32.8415L93.2016 35.5L93.62 28.1891L89 22.5213L96.0569 20.6615L100 14.5L103.943 20.6615L111 22.5213L106.38 28.1891L106.798 35.5L100 32.8415Z" fill="#1A1A1A"></path>
  <path d="M128 32.8415L121.202 35.5L121.62 28.1891L117 22.5213L124.057 20.6615L128 14.5L131.943 20.6615L139 22.5213L134.38 28.1891L134.798 35.5L128 32.8415Z" fill="#1A1A1A"></path>
  <path d="M156 32.8415L149.202 35.5L149.62 28.1891L145 22.5213L152.057 20.6615L156 14.5L159.943 20.6615L167 22.5213L162.38 28.1891L162.798 35.5L156 32.8415Z" fill="#1A1A1A"></path>
</svg>
