<?xml version="1.0" encoding="UTF-8"?>
<svg xmlns="http://www.w3.org/2000/svg" width="200" height="50" viewBox="0 0 200 50" fill="none">
  <path d="M44 32.8415L37.2016 35.5L37.62 28.1891L33 22.5213L40.0569 20.6615L44 14.5L47.9431 20.6615L55 22.5213L50.38 28.1891L50.7984 35.5L44 32.8415Z" fill="#1A1A1A"></path>
  <path d="M72 32.8415L65.2016 35.5L65.62 28.1891L61 22.5213L68.0569 20.6615L72 14.5L75.9431 20.6615L83 22.5213L78.38 28.1891L78.7984 35.5L72 32.8415Z" fill="#1A1A1A"></path>
  <path d="M100 32.8415L93.2016 35.5L93.62 28.1891L89 22.5213L96.0569 20.6615L100 14.5L103.943 20.6615L111 22.5213L106.38 28.1891L106.798 35.5L100 32.8415Z" fill="#1A1A1A"></path>
  <path d="M128 32.8415L121.202 35.5L121.62 28.1891L117 22.5213L124.057 20.6615L128 14.5L131.943 20.6615L139 22.5213L134.38 28.1891L134.798 35.5L128 32.8415Z" fill="#1A1A1A"></path>
  <path d="M156.382 31.8636L156 31.714L155.618 31.8636L150.343 33.9261L150.668 28.2491L150.692 27.8419L150.434 27.5257L146.844 23.1212L152.325 21.6768L152.721 21.5724L152.941 21.2274L156 16.448L159.059 21.2274L159.279 21.5724L159.675 21.6768L165.156 23.1212L161.566 27.5257L161.308 27.8419L161.332 28.2491L161.657 33.9261L156.382 31.8636Z" stroke="#1A1A1A" stroke-width="2.1"></path>
  <path d="M156 16.5L158.5 21V33L155.5 32L150.5 34V28L147 23L152 21.5L156 16.5Z" fill="#1A1A1A"></path>
</svg>
