<svg width="200" height="80" viewBox="0 0 200 80" fill="none" xmlns="http://www.w3.org/2000/svg">
<path fill-rule="evenodd" clip-rule="evenodd" d="M27.071 35.195L17.1715 45.0945L5.05013 32.9732C2.31646 30.2395 2.31646 25.8074 5.05013 23.0737C7.7838 20.34 12.216 20.34 14.9496 23.0737L27.071 35.195Z" fill="url(#paint0_linear_2725_40594)"/>
<path fill-rule="evenodd" clip-rule="evenodd" d="M17.1716 34.9521L27.0711 44.8516L14.9497 56.973C12.2161 59.7066 7.78392 59.7066 5.05025 56.973C2.31658 54.2393 2.31658 49.8071 5.05025 47.0735L17.1716 34.9521Z" fill="url(#paint1_linear_2725_40594)"/>
<g style="mix-blend-mode:overlay">
<path fill-rule="evenodd" clip-rule="evenodd" d="M27.071 35.195L17.1715 45.0945L5.05013 32.9732C2.31646 30.2395 2.31646 25.8074 5.05013 23.0737C7.7838 20.34 12.216 20.34 14.9496 23.0737L27.071 35.195Z" fill="url(#paint2_linear_2725_40594)"/>
</g>
<circle cx="22" cy="40.0234" r="7" fill="#674AD2"/>
<path d="M40.1719 45.6482L41.3343 43.3064C42.7015 44.159 44.275 44.6101 45.8797 44.6094C47.7881 44.6094 48.5862 44.0723 48.5862 43.1655C48.5862 40.6564 40.5969 43.0158 40.5969 37.7775C40.5969 35.2947 42.8003 33.6748 46.2874 33.6748C47.9526 33.6519 49.5985 34.0385 51.0845 34.8017L49.9221 37.1348C48.7952 36.4722 47.5115 36.1343 46.2094 36.1575C44.3704 36.1575 43.5029 36.7738 43.5029 37.6278C43.5029 40.269 51.4922 37.9271 51.4922 43.0598C51.4922 45.525 49.2628 47.1185 45.6282 47.1185C43.7098 47.1548 41.8198 46.6455 40.1719 45.6482Z" fill="#1A1A1A"/>
<path d="M61.434 46.2379C60.5866 46.8467 59.5656 47.156 58.528 47.1183C55.7001 47.1183 54.078 45.5952 54.078 42.7163V30.9189H57.1054V33.9211H60.5752V36.3862H57.1054V42.6283C57.1054 43.9048 57.756 44.6004 58.8924 44.6004C59.5152 44.6252 60.1276 44.4326 60.6273 44.0545L61.434 46.2379Z" fill="#1A1A1A"/>
<path d="M71.1844 33.6748V36.5977C70.953 36.5507 70.7177 36.5271 70.4817 36.5273C68.1743 36.5273 66.7257 37.9007 66.7257 40.5771V46.9512H63.6982V33.8157H66.5782V35.7349C67.4543 34.3615 69.0244 33.6748 71.1844 33.6748Z" fill="#1A1A1A"/>
<path fill-rule="evenodd" clip-rule="evenodd" d="M84.9153 44.979L83.3105 43.0861C82.3904 44.0436 81.1142 44.5617 79.7973 44.5124C78.1411 44.6629 76.5709 43.7391 75.8764 42.2057L85.7827 40.2336C85.8485 38.4574 85.1753 36.735 83.9279 35.4874C82.6805 34.2398 80.9737 33.5819 79.2248 33.6746C77.4463 33.6028 75.7184 34.2847 74.4549 35.5571C73.1913 36.8295 72.5059 38.5777 72.5627 40.3833C72.5627 44.2923 75.3733 47.1183 79.7105 47.1183C81.676 47.2474 83.5922 46.4598 84.9153 44.979ZM75.5122 40.2142L75.5035 40.2159H75.5122C75.5122 40.2153 75.5122 40.2148 75.5122 40.2142ZM75.5122 40.2142L82.8162 38.7896C82.3791 37.1661 80.8899 36.0683 79.2336 36.1484C77.0394 36.1308 75.5129 37.706 75.5122 40.2142Z" fill="#1A1A1A"/>
<path fill-rule="evenodd" clip-rule="evenodd" d="M98.5776 46.9507H101.458V33.8151H98.3867V35.4351C97.3234 34.263 95.8092 33.62 94.2403 33.6743C92.4711 33.5943 90.7513 34.2781 89.5065 35.5565C88.2618 36.835 87.6085 38.5885 87.7083 40.3829C87.6036 42.1811 88.2544 43.9401 89.4994 45.2239C90.7445 46.5076 92.4671 47.1959 94.2403 47.118C95.8924 47.2084 97.493 46.5196 98.5776 45.2515V46.9507ZM96.6383 36.7799C97.867 37.5376 98.5776 38.9269 98.4812 40.3828C98.5776 41.8388 97.867 43.228 96.6383 43.9857C95.4095 44.7434 93.8672 44.7434 92.6385 43.9857C91.4097 43.228 90.6991 41.8388 90.7955 40.3828C90.6991 38.9269 91.4097 37.5376 92.6385 36.7799C93.8672 36.0222 95.4095 36.0222 96.6383 36.7799Z" fill="#1A1A1A"/>
<path d="M126.874 39.4235V46.9509H123.846V39.8197C123.846 37.4866 122.779 36.3509 120.94 36.3509C118.954 36.3509 117.575 37.6803 117.575 40.2863V46.9509H114.547V39.8197C114.547 37.4866 113.48 36.3509 111.633 36.3509C109.629 36.3509 108.267 37.6803 108.267 40.2863V46.9509H105.24V33.8153H108.119V35.5057C109.193 34.2845 110.751 33.6184 112.361 33.6921C114.087 33.5865 115.737 34.4176 116.699 35.8755C117.898 34.4342 119.681 33.6296 121.539 33.6921C124.688 33.6745 126.874 35.5057 126.874 39.4235Z" fill="#1A1A1A"/>
<path d="M150.504 33.8154L145.733 46.951H142.827L139.488 37.9005L136.096 46.951H133.19L128.445 33.8154H131.299L134.717 43.4998L138.273 33.8154H140.824L144.293 43.5526L147.763 33.8154H150.504Z" fill="#1A1A1A"/>
<path fill-rule="evenodd" clip-rule="evenodd" d="M162.118 46.9511H164.972V33.8155H161.919V35.4355C160.858 34.2648 159.347 33.6218 157.781 33.6747C156.01 33.5921 154.288 34.2748 153.042 35.5535C151.795 36.8323 151.14 38.5873 151.24 40.3833C151.138 42.1823 151.791 43.9412 153.037 45.2246C154.284 46.508 156.007 47.196 157.781 47.1184C159.434 47.2115 161.035 46.5222 162.118 45.2519V46.9511ZM160.154 36.7804C161.383 37.5381 162.094 38.9273 161.997 40.3833C162.094 41.8392 161.383 43.2285 160.154 43.9862C158.925 44.7439 157.383 44.7439 156.154 43.9862C154.926 43.2285 154.215 41.8392 154.311 40.3833C154.215 38.9273 154.926 37.5381 156.154 36.7804C157.383 36.0227 158.925 36.0227 160.154 36.7804Z" fill="#1A1A1A"/>
<path d="M181.202 33.8155L175.13 48.0076C173.942 50.9833 172.294 51.8901 170.134 51.8901C168.873 51.9177 167.643 51.4903 166.664 50.684L167.878 48.4213C168.486 48.9885 169.282 49.3028 170.108 49.3017C171.175 49.3017 171.799 48.7911 172.38 47.4881L172.597 46.9687L166.959 33.7627H170.108L174.176 43.4471L178.27 33.7627L181.202 33.8155Z" fill="#1A1A1A"/>
<path d="M181.663 45.6481L182.825 43.3062C184.18 44.1511 185.737 44.6018 187.327 44.6092C189.244 44.6092 190.042 44.0722 190.042 43.1653C190.042 40.6562 182.044 43.0157 182.044 37.7773C182.044 35.2946 184.256 33.6746 187.743 33.6746C189.423 33.6431 191.085 34.03 192.584 34.8015L191.421 37.1346C190.298 36.4724 189.017 36.1345 187.717 36.1574C185.878 36.1574 185.002 36.7736 185.002 37.6276C185.002 40.2688 193 37.927 193 43.0597C193 45.5248 190.771 47.1183 187.136 47.1183C185.212 47.1589 183.315 46.6494 181.663 45.6481H181.663Z" fill="#1A1A1A"/>
<defs>
<linearGradient id="paint0_linear_2725_40594" x1="2.99988" y1="21.0234" x2="21.4999" y2="39.5234" gradientUnits="userSpaceOnUse">
<stop stop-color="#EDF9F0"/>
<stop offset="1" stop-color="#44D7D9"/>
</linearGradient>
<linearGradient id="paint1_linear_2725_40594" x1="5.5" y1="57.5234" x2="22" y2="40.5234" gradientUnits="userSpaceOnUse">
<stop stop-color="#D7EFFF"/>
<stop offset="1" stop-color="#915FFB"/>
</linearGradient>
<linearGradient id="paint2_linear_2725_40594" x1="2.99988" y1="21.0234" x2="21.4999" y2="39.5234" gradientUnits="userSpaceOnUse">
<stop stop-color="#EDF9F0"/>
<stop offset="1" stop-color="#44D7D9"/>
</linearGradient>
</defs>
</svg>
