<?xml version="1.0" encoding="UTF-8"?>
<svg xmlns="http://www.w3.org/2000/svg" width="200" height="80" viewBox="0 0 200 80" fill="none">
  <path fill-rule="evenodd" clip-rule="evenodd" d="M100 12.0854C113.307 12.0854 124.108 22.8823 124.108 36.1935C124.108 48.5303 114.643 60.4843 100 67.9142V59.0314C87.3937 59.0314 75.8921 48.8044 75.8921 36.1935C75.8921 22.8823 86.6933 12.0854 100 12.0854ZM108.565 29.8508V33.8138L114.912 27.4714V44.9195L108.569 38.5771V42.54C108.569 43.3535 108.256 44.1669 107.639 44.7846C107.016 45.4067 106.207 45.7155 105.394 45.7155H89.5336C88.7201 45.7155 87.911 45.4067 87.2889 44.7846C86.6669 44.1626 86.358 43.3535 86.358 42.54V29.8508C86.358 29.0374 86.6712 28.2239 87.2889 27.6062C87.911 26.9841 88.7201 26.6753 89.5336 26.6753H105.39C106.203 26.6753 107.016 26.9885 107.634 27.6062C108.256 28.2283 108.565 29.0374 108.565 29.8508Z" fill="#1A1A1A"></path>
</svg>
