<?xml version="1.0" encoding="UTF-8"?>
<svg xmlns="http://www.w3.org/2000/svg" width="200" height="80" viewBox="0 0 200 80" fill="none">
  <path d="M89.4858 42.8534L86.7555 34.4416C86.7567 34.4454 86.7572 34.4493 86.7584 34.4531C86.757 34.4487 86.7563 34.4443 86.7551 34.44C86.7549 34.4397 86.7549 34.4395 86.7549 34.4392C86.7549 34.439 86.7549 34.4389 86.7549 34.4389L81.3349 17.7461C81.0385 16.8668 80.2227 16.2766 79.2874 16.2838C78.3493 16.2887 77.5559 16.8675 77.2658 17.759L72.1212 33.6036H55.888L50.7337 17.7579C50.4439 16.8672 49.6503 16.2885 48.7124 16.2837C48.7087 16.2837 48.705 16.2837 48.7011 16.2837C47.7776 16.2837 46.9601 16.8702 46.6605 17.7594L41.2553 34.4372L41.2546 34.4393C41.2546 34.4395 41.2546 34.4396 41.2546 34.4398C41.2532 34.444 41.2526 34.4483 41.2512 34.4525C41.2525 34.4487 41.2529 34.4448 41.2541 34.441L38.5139 42.8534C38.1017 44.1233 38.549 45.5034 39.6272 46.288L63.2881 63.4859C63.2916 63.4885 63.2955 63.49 63.299 63.4926C63.3091 63.4999 63.319 63.5073 63.3293 63.5141C63.3196 63.5076 63.3105 63.5005 63.301 63.4938C63.301 63.4938 63.301 63.4937 63.3008 63.4937C63.3023 63.4949 63.3041 63.4956 63.3058 63.4967C63.3072 63.4976 63.3085 63.4982 63.3099 63.4991C63.31 63.4993 63.3102 63.4994 63.3105 63.4996C63.3471 63.525 63.3851 63.5483 63.4244 63.5696C63.4298 63.5727 63.4347 63.5764 63.4401 63.5793C63.4403 63.5793 63.4403 63.5795 63.4404 63.5795C63.4438 63.5811 63.4468 63.5832 63.4501 63.5849C63.4527 63.5861 63.4554 63.5869 63.4578 63.5881C63.4596 63.589 63.4616 63.5896 63.4634 63.5904C63.4678 63.5925 63.4727 63.5938 63.477 63.5961C63.4976 63.6059 63.5192 63.614 63.5404 63.6226C63.5602 63.6308 63.5794 63.6403 63.5997 63.6474C63.6006 63.6477 63.6014 63.6482 63.6023 63.6485C63.6056 63.6497 63.6086 63.6513 63.6121 63.6526C63.6164 63.6541 63.6204 63.6557 63.6247 63.6571C63.6263 63.6575 63.628 63.6578 63.6297 63.6583C63.635 63.66 63.6407 63.6607 63.646 63.6622C63.648 63.6628 63.6502 63.6631 63.6524 63.6638C63.6808 63.6724 63.7103 63.6786 63.7396 63.6851C63.7511 63.6877 63.7622 63.6913 63.7738 63.6934C63.7755 63.6937 63.777 63.6943 63.7788 63.6946C63.7826 63.6954 63.7861 63.6967 63.79 63.6973C63.7962 63.6984 63.8023 63.7004 63.8086 63.7013C63.8136 63.702 63.8188 63.7017 63.8237 63.7025C63.8247 63.7026 63.8254 63.7025 63.8263 63.7026C63.8266 63.7026 63.8268 63.7026 63.8271 63.7026C63.8829 63.7107 63.9395 63.7163 63.9971 63.7163C63.9974 63.7163 63.9977 63.7163 63.9982 63.7163C63.9983 63.7163 63.9985 63.7163 63.9985 63.7163H63.9986C63.9988 63.7163 63.9989 63.7163 63.9991 63.7163C64.0569 63.7163 64.1134 63.7107 64.1694 63.7026C64.1695 63.7026 64.1699 63.7026 64.17 63.7026C64.1709 63.7025 64.1718 63.7026 64.1727 63.7025C64.1777 63.7017 64.183 63.702 64.188 63.7013C64.1944 63.7002 64.2004 63.6984 64.2068 63.6973C64.2105 63.6967 64.214 63.6954 64.2178 63.6946C64.2195 63.6943 64.221 63.6937 64.2226 63.6934C64.2344 63.6911 64.2458 63.6875 64.2576 63.6849C64.2865 63.6786 64.3155 63.6724 64.3438 63.6639C64.3458 63.6633 64.3477 63.6631 64.3497 63.6625C64.3553 63.6609 64.3611 63.6601 64.3667 63.6585C64.3683 63.6579 64.3701 63.6577 64.3718 63.6572C64.3762 63.6559 64.3804 63.6541 64.3847 63.6526C64.388 63.6513 64.391 63.6497 64.3943 63.6485C64.3952 63.6482 64.396 63.6477 64.3969 63.6474C64.4184 63.6398 64.4387 63.6299 64.4597 63.6212C64.4792 63.6131 64.4992 63.6058 64.5182 63.5967C64.5229 63.5944 64.5279 63.5931 64.5324 63.5908C64.5343 63.5899 64.5364 63.5893 64.5382 63.5884C64.5408 63.5872 64.5435 63.5864 64.5461 63.5851C64.5495 63.5832 64.5529 63.5811 64.5562 63.5795C64.5562 63.5795 64.5563 63.5795 64.5563 63.5793C64.5619 63.5764 64.5669 63.5724 64.5725 63.5693C64.6116 63.5481 64.6494 63.525 64.6858 63.4997C64.6887 63.4977 64.692 63.4962 64.6951 63.4941C64.6958 63.4935 64.6967 63.4932 64.6975 63.4926C64.701 63.49 64.705 63.4884 64.7085 63.4858L88.373 46.2876C89.4507 45.5034 89.898 44.1233 89.4858 42.8534ZM79.3023 19.3099L83.9433 33.6036H74.6614L79.3023 19.3099ZM83.1305 36.0206L81.2368 38.448L67.2695 56.3509L73.8765 36.0206H83.1305ZM62.8494 62.8817C62.8506 62.8853 62.8526 62.8887 62.8538 62.8924C62.8526 62.8887 62.8506 62.8853 62.8494 62.8817ZM60.7305 56.3521L44.8781 36.0206H54.1327L60.7305 56.3521ZM48.6978 19.3098L53.3473 33.6036H44.0655L48.6978 19.3098ZM41.0479 44.333C40.8186 44.1661 40.7236 43.8715 40.8115 43.6009L42.8485 37.3474L57.7742 56.4904L41.0479 44.333ZM63.2465 63.454C63.2418 63.4502 63.2373 63.4461 63.2327 63.4422C63.2318 63.4415 63.2309 63.4404 63.2299 63.4396C63.2208 63.4321 63.2119 63.4244 63.2031 63.4165C63.1858 63.4015 63.1689 63.3862 63.1527 63.3702C63.1541 63.3714 63.1556 63.3725 63.157 63.3737C63.1588 63.3753 63.1607 63.3767 63.1625 63.3784C63.1972 63.4115 63.2336 63.4427 63.2718 63.4714C63.2722 63.4717 63.2725 63.4722 63.273 63.4725C63.2748 63.4738 63.2763 63.4755 63.2781 63.477C63.2677 63.4694 63.2568 63.4622 63.2465 63.454ZM63.9991 58.5969L60.1168 46.6332L56.673 36.0206H71.3359L63.9991 58.5969ZM64.7937 63.4165C64.7846 63.4244 64.7758 63.4322 64.7666 63.4398C64.7655 63.4407 64.7645 63.4418 64.7634 63.4427C64.7587 63.4464 64.7544 63.4505 64.7498 63.4543C64.7398 63.4623 64.7289 63.4696 64.7185 63.4773C64.7203 63.476 64.7218 63.4741 64.7238 63.4729C64.7241 63.4726 64.7244 63.4723 64.7247 63.472C64.7628 63.4433 64.7991 63.4124 64.8335 63.3793C64.8348 63.3779 64.8365 63.3768 64.8379 63.3756C64.8397 63.374 64.8416 63.3726 64.8433 63.3709C64.8273 63.3865 64.8105 63.4017 64.7937 63.4165ZM86.9523 44.3326L70.2285 56.4867L85.1592 37.3489L87.188 43.5997C87.276 43.8715 87.1812 44.1661 86.9523 44.3326Z" fill="#1A1A1A" stroke="#1A1A1A" stroke-width="0.5"></path>
  <g clip-path="url(#clip0_2708_38639)">
    <path fill-rule="evenodd" clip-rule="evenodd" d="M113.726 40.5265C113.726 51.0644 120.59 60.0046 130.108 63.1584C131.305 63.3792 131.745 62.641 131.745 62.011C131.745 61.4423 131.722 59.5635 131.712 57.5705C125.048 59.0133 123.641 54.7564 123.641 54.7564C122.552 51.9996 120.982 51.2666 120.982 51.2666C118.808 49.7863 121.145 49.8167 121.145 49.8167C123.551 49.985 124.818 52.2745 124.818 52.2745C126.954 55.9208 130.422 54.8666 131.789 54.2572C132.004 52.7157 132.624 51.6635 133.31 51.0679C127.989 50.4648 122.395 48.4197 122.395 39.2808C122.395 36.6768 123.331 34.5492 124.864 32.8789C124.615 32.2782 123.795 29.8524 125.096 26.5671C125.096 26.5671 127.107 25.9261 131.685 29.0119C133.596 28.4834 135.645 28.2184 137.681 28.2093C139.717 28.2184 141.768 28.4834 143.682 29.0119C148.255 25.9261 150.263 26.5671 150.263 26.5671C151.567 29.8524 150.747 32.2782 150.498 32.8789C152.034 34.5492 152.964 36.6768 152.964 39.2808C152.964 48.4415 147.36 50.4585 142.025 51.049C142.885 51.7891 143.65 53.2406 143.65 55.4658C143.65 58.657 143.622 61.2255 143.622 62.011C143.622 62.6457 144.054 63.3894 145.268 63.1552C154.781 59.9979 161.636 51.0608 161.636 40.5265C161.636 27.3539 150.911 16.6758 137.681 16.6758C124.453 16.6758 113.726 27.3539 113.726 40.5265Z" fill="#1A1A1A"></path>
  </g>
  <defs>
    <clipPath id="clip0_2708_38639">
      <rect width="48" height="47" fill="white" transform="translate(113.638 16.5)"></rect>
    </clipPath>
  </defs>
</svg>
