<?xml version="1.0" encoding="UTF-8"?>
<svg xmlns="http://www.w3.org/2000/svg" width="200" height="80" viewBox="0 0 200 80" fill="none">
  <path d="M91.6135 64.9991C96.2429 64.9991 100 61.2658 100 56.6658V48.3325H91.6135C86.9842 48.3325 83.2271 52.0658 83.2271 56.6658C83.2271 61.2658 86.9842 64.9991 91.6135 64.9991Z" stroke="#1A1A1A" stroke-width="3"></path>
  <path d="M83.2271 39.9998C83.2271 35.3998 86.9842 31.6665 91.6135 31.6665H100V48.3331H91.6135C86.9842 48.3331 83.2271 44.5998 83.2271 39.9998Z" stroke="#1A1A1A" stroke-width="3"></path>
  <path d="M83.2271 23.3338C83.2271 18.7338 86.9842 15.0005 91.6135 15.0005H100V31.6671H91.6135C86.9842 31.6671 83.2271 27.9338 83.2271 23.3338Z" stroke="#1A1A1A" stroke-width="3"></path>
  <path d="M100 15.0005H108.386C113.016 15.0005 116.773 18.7338 116.773 23.3338C116.773 27.9338 113.016 31.6671 108.386 31.6671H100V15.0005Z" stroke="#1A1A1A" stroke-width="3"></path>
  <path d="M116.773 39.9998C116.773 44.5998 113.016 48.3331 108.386 48.3331C103.757 48.3331 100 44.5998 100 39.9998C100 35.3998 103.757 31.6665 108.386 31.6665C113.016 31.6665 116.773 35.3998 116.773 39.9998Z" stroke="#1A1A1A" stroke-width="3"></path>
</svg>
