<?xml version="1.0" encoding="UTF-8"?>
<svg xmlns="http://www.w3.org/2000/svg" width="200" height="80" viewBox="0 0 200 80" fill="none">
  <path fill-rule="evenodd" clip-rule="evenodd" d="M93.3322 15C90.5683 15.002 88.3314 17.2406 88.3335 19.999C88.3314 22.7574 90.5704 24.9959 93.3343 24.998H98.3351V20.001C98.3371 17.2426 96.0982 15.0041 93.3322 15C93.3343 15 93.3343 15 93.3322 15V15ZM93.3322 28.3333H80.0008C77.2369 28.3354 74.998 30.5739 75 33.3323C74.9959 36.0907 77.2348 38.3293 79.9988 38.3333H93.3322C96.0962 38.3313 98.3351 36.0928 98.3331 33.3344C98.3351 30.5739 96.0962 28.3354 93.3322 28.3333V28.3333Z" fill="#1A1A1A"></path>
  <path fill-rule="evenodd" clip-rule="evenodd" d="M125 33.3323C125.002 30.5739 122.763 28.3354 119.999 28.3333C117.235 28.3354 114.996 30.5739 114.998 33.3323V38.3333H119.999C122.763 38.3313 125.002 36.0928 125 33.3323ZM111.667 33.3323V19.999C111.669 17.2426 109.432 15.0041 106.668 15C103.904 15.002 101.665 17.2406 101.667 19.999V33.3323C101.663 36.0907 103.902 38.3293 106.666 38.3333C109.43 38.3313 111.669 36.0928 111.667 33.3323Z" fill="#1A1A1A"></path>
  <path fill-rule="evenodd" clip-rule="evenodd" d="M106.666 64.9994C109.43 64.9974 111.669 62.7589 111.667 60.0005C111.669 57.242 109.43 55.0035 106.666 55.0015H101.665V60.0005C101.663 62.7568 103.902 64.9954 106.666 64.9994ZM106.666 51.6641H119.999C122.763 51.662 125.002 49.4235 125 46.6651C125.004 43.9067 122.765 41.6681 120.001 41.6641H106.668C103.904 41.6661 101.665 43.9046 101.667 46.663C101.665 49.4235 103.902 51.662 106.666 51.6641V51.6641Z" fill="#1A1A1A"></path>
  <path fill-rule="evenodd" clip-rule="evenodd" d="M75 46.666C74.998 49.4244 77.2369 51.6629 80.0008 51.665C82.7648 51.6629 85.0037 49.4244 85.0016 46.666V41.667H80.0008C77.2369 41.669 74.998 43.9076 75 46.666ZM88.3335 46.666V59.9993C88.3294 62.7577 90.5683 64.9962 93.3322 65.0003C96.0962 64.9983 98.3351 62.7598 98.3331 60.0013V46.6701C98.3371 43.9116 96.0982 41.6731 93.3343 41.669C90.5683 41.669 88.3314 43.9076 88.3335 46.666C88.3335 46.668 88.3335 46.666 88.3335 46.666Z" fill="#1A1A1A"></path>
</svg>
