<?xml version="1.0" encoding="UTF-8"?>
<svg xmlns="http://www.w3.org/2000/svg" width="200" height="80" viewBox="0 0 200 80" fill="none">
  <path d="M88.3779 38.4883L65.2417 15.2505L62.9994 13L37.6227 38.4883C36.7931 39.3237 36.7931 40.6763 37.6227 41.5101L53.534 57.4908L62.9994 67L88.3779 41.5101C89.208 40.6763 89.208 39.3237 88.3779 38.4883V38.4883ZM62.9994 47.9816L55.0525 40.0003L62.9994 32.0161L70.9481 40.0003L62.9994 47.9816Z" fill="#1A1A1A"></path>
  <path fill-rule="evenodd" clip-rule="evenodd" d="M138 15.0005C151.823 15.0005 163 26.1766 163 39.9998C163 53.8229 151.823 64.9991 138 64.9991C124.177 65.041 113.001 53.8229 113.001 39.9998C113.001 26.1766 124.177 15.0005 138 15.0005ZM137.665 36.8902C139.051 36.8902 139.849 36.134 139.849 34.8315C139.891 33.7391 139.051 32.8147 137.959 32.7727H137.749H134.597V30.4619C134.681 29.1594 133.673 27.9829 132.329 27.9409C131.026 27.8569 129.85 28.8653 129.808 30.2098V30.5039V46.5538C129.808 50.4193 131.362 52.1419 134.807 52.1419C136.11 52.1839 137.412 51.8478 138.547 51.2176C139.093 50.8814 139.429 50.2512 139.387 49.621C139.387 48.5706 138.673 47.4362 137.707 47.4362C137.58 47.4362 137.412 47.4782 137.286 47.5202L137.118 47.6042C136.782 47.7723 136.362 47.8983 135.984 47.8983C135.354 47.8983 134.639 47.6882 134.639 45.9656V36.8902H137.665ZM143.757 47.8563C143.757 45.5455 145.648 43.6548 147.958 43.6548C150.269 43.6548 152.16 45.5455 152.16 47.8563C152.16 50.1672 150.269 52.0579 147.958 52.0579C145.648 52.0579 143.757 50.1672 143.757 47.8563Z" fill="#1A1A1A"></path>
</svg>
