<?xml version="1.0" encoding="UTF-8"?>
<svg xmlns="http://www.w3.org/2000/svg" width="92" height="87" viewBox="0 0 92 87" fill="none">
  <g clip-path="url(#clip0_3056_50417)">
    <path d="M74.6109 32.0746C74.97 32.0726 75.3035 31.8902 75.497 31.5902C75.6903 31.2904 75.7171 30.9136 75.5682 30.5898L65.8715 10.2485C65.5336 9.60096 65.3534 9.51164 64.4637 9.80192L61.0851 11.0188L63.8667 19.7269L60.3755 11.164L54.5418 6.32984H54.4629V6.2182L48.0096 0.97101C47.3565 0.39047 47.0186 0.379306 46.7032 0.75889L40.126 9.53398L44.7999 18.6105L39.7094 10.2485L36.2293 4.55472C36.1178 4.31204 35.8735 4.15632 35.6043 4.15632C35.3354 4.15632 35.091 4.31204 34.9793 4.55472L19.3925 30.5004C19.1972 30.8216 19.1919 31.2224 19.3786 31.5486C19.5653 31.875 19.9151 32.076 20.2934 32.0746H22.163L23.0415 30.9582C22.4332 30.8464 22.5909 30.5786 22.8387 30.2994C22.9456 30.1542 23.0622 30.016 23.1877 29.8864C23.5031 29.5962 23.6496 29.3282 23.0639 29.1496C23.4357 28.6918 23.7847 28.2898 24.0775 27.8656C24.1654 27.6872 24.2189 27.4942 24.2352 27.2962H24.0325C24.5956 26.6264 25.1587 25.9454 25.7668 25.1974L27.3661 27.14C27.3661 27.1958 27.4563 27.3186 27.4224 27.352C27.0394 27.754 27.4224 27.955 27.6701 28.223L28.4586 29.2166C27.7716 29.585 28.2445 29.8306 28.5712 30.1654C28.65 29.9868 28.7852 29.7524 28.7513 29.73C28.3008 29.4398 28.7513 29.2166 28.8302 28.9932C28.9091 28.77 29.1792 28.4238 29.3483 28.1224C29.5172 27.821 29.5285 27.7764 29.4609 27.6982C29.1117 27.3298 29.4609 27.073 29.6072 26.7716C29.7222 26.5732 29.8059 26.3586 29.8551 26.1352C29.8551 25.9008 29.8551 25.644 29.8551 25.4318C30.0127 24.9182 30.4069 24.5388 30.4182 23.9024C30.4293 23.266 31.1276 22.6072 31.5444 21.9486C31.9723 22.7524 32.7832 23.333 32.6706 24.1814C32.8875 24.6636 33.132 25.1334 33.4026 25.5882C33.4026 25.6886 33.5603 25.8672 33.5264 25.8896C33.0535 26.2468 33.5264 26.4924 33.6279 26.7938C33.7292 27.0954 34.191 27.341 33.7179 27.687C33.6616 27.687 33.7855 27.9662 33.8644 28.1C34.0784 28.4796 34.3149 28.848 34.5177 29.2166C34.5177 29.317 34.6526 29.4956 34.6189 29.5292C34.1458 29.931 34.6189 30.0874 34.8441 30.4L35.5424 29.5402L34.8104 29.384L36.1731 27.6312L35.5087 27.4302L37.1867 25.3314H36.9839C36.9839 25.1304 36.8939 24.8736 36.9839 24.7284C37.457 24.081 37.9862 23.467 38.4819 22.8418C38.7634 22.4844 38.9548 22.518 39.2139 22.8418C39.6793 23.4446 40.1638 24.0364 40.6667 24.6168C40.9482 24.9294 40.9258 25.1528 40.5203 25.3202L41.9844 27.1512C42.2658 26.8856 42.3179 26.4596 42.1083 26.1352L42.7389 25.3314C42.9754 25.041 43.4372 24.8178 43.0317 24.3712C43.0317 24.3712 43.0317 24.2596 43.0317 24.215C43.0317 24.1702 43.2684 23.9136 43.3922 23.7572C43.5161 23.601 43.4709 23.4782 43.5048 23.333V23.2772C43.5611 22.931 43.6061 22.5962 43.6624 22.25C43.7225 21.943 43.8052 21.6408 43.9101 21.3458C44.0905 20.888 44.2818 20.4303 44.4732 19.9725H44.8675C44.9599 20.0767 45.0428 20.1888 45.1152 20.3075C45.3797 20.6246 45.5407 21.014 45.577 21.4238C45.577 21.8704 45.9374 22.3282 46.0275 22.797C46.1175 23.266 46.1175 23.5228 46.1401 23.9136L46.4892 24.3266C46.1401 24.7284 46.2414 24.9852 46.9736 25.51C47.1507 25.1286 47.3049 24.7372 47.4352 24.3378C47.661 23.6034 47.8488 22.8582 47.9983 22.105C48.1222 21.3792 48.1111 20.6312 48.2349 19.8721C48.3136 19.4032 48.6855 18.9454 48.6742 18.4989C48.7143 18.0879 48.8793 17.6986 49.1471 17.3824C49.2195 17.2664 49.2984 17.1546 49.3835 17.0475H49.6652L50.1494 18.2532V18.1751L50.0818 18.0411L50.172 17.9853L50.3296 18.0858V18.3872H50.2396V18.51C50.3124 18.6705 50.3655 18.8392 50.3971 19.0124C50.3971 19.191 50.3971 19.3697 50.4873 19.5371L50.5775 19.6041L50.4534 19.6711C50.4534 19.8944 50.5323 20.1177 50.5662 20.341C50.7688 21.1672 50.9828 21.982 51.1743 22.8194C51.2532 23.1432 51.2756 23.4892 51.3321 23.8242C51.375 24.048 51.4352 24.2682 51.5122 24.4828C51.6135 24.7954 51.7374 25.108 51.8839 25.4876L52.6158 24.6616L51.9063 24.4606L53.6069 22.3282C53.2015 22.1608 53.1789 21.9374 53.4493 21.6248C53.9597 21.0444 54.4441 20.4526 54.9021 19.8497C55.1612 19.5036 55.3637 19.4701 55.6341 19.8497C56.1296 20.4749 56.6703 21.089 57.1432 21.7364C57.2447 21.8816 57.1432 22.1384 57.1432 22.3394H56.9404L58.6299 24.4382L57.9541 24.6392L59.3282 26.392L58.5847 26.5482L59.283 27.408C59.4971 27.0954 59.9813 26.939 59.5197 26.5372C59.5197 26.5372 59.5197 26.325 59.6096 26.2356C59.8237 25.856 60.0602 25.4764 60.2742 25.1192C60.3416 24.9852 60.4655 24.7508 60.4205 24.7062C59.9363 24.36 60.4205 24.0922 60.5107 23.813C60.6007 23.534 61.0851 23.266 60.612 22.9088C60.612 22.9088 60.612 22.7078 60.7245 22.6072C61.004 22.1574 61.2487 21.687 61.4567 21.2006C61.3552 20.3186 62.1774 19.7381 62.5829 18.9678C62.9771 19.6264 63.7091 20.2628 63.7091 20.9214C63.7091 21.5802 64.1146 21.9374 64.2835 22.451C64.3511 22.6632 64.2835 22.9198 64.2835 23.1544C64.3362 23.3784 64.4235 23.593 64.5425 23.7908C64.6888 24.0922 65.0268 24.349 64.6777 24.7174C64.6214 24.7954 64.6777 25.0076 64.8016 25.1416C64.9592 25.443 65.1845 25.711 65.3195 26.0124C65.4547 26.3138 65.8376 26.459 65.3984 26.7492C65.3984 26.7492 65.4999 27.006 65.5786 27.1846C65.8939 26.8498 66.3783 26.604 65.6913 26.2356C65.9502 25.9008 66.2092 25.5658 66.4796 25.242C66.7499 24.9182 67.099 24.7732 66.7273 24.3712C66.7273 24.3712 66.7273 24.215 66.7273 24.1592L68.3266 22.2166L70.0496 24.3154L69.8471 24.3936C69.8739 24.5894 69.927 24.781 70.0046 24.963C70.3087 25.3872 70.6466 25.7892 71.0183 26.2468C70.4439 26.4254 70.5903 26.6934 70.9057 26.9836C71.0409 27.1064 71.1308 27.2628 71.2547 27.3968C71.3786 27.5308 71.6602 27.9438 71.052 28.0554L72.4598 29.8082C72.3696 29.9756 72.1894 30.1766 72.2346 30.2548C72.3623 30.4326 72.5502 30.5594 72.7638 30.612H73.1694V32.0188L74.6109 32.0746Z" fill="white"></path>
    <path d="M29.2917 40.0685C28.92 40.1355 28.706 39.7671 29.0213 39.5995L29.9561 39.153C30.7966 38.7812 31.6576 38.4567 32.5351 38.1815C34.3694 37.6224 36.256 37.2484 38.1662 37.0649L39.6191 36.9309C40.1033 36.9309 40.5875 36.9309 41.083 36.9309C42.0516 36.9309 43.0313 36.9309 44.0113 37.0203C44.4955 37.0203 44.9799 37.0983 45.4641 37.1653L46.1961 37.2548L46.9169 37.3664C47.8743 37.534 48.8203 37.746 49.7437 37.9582L50.9938 38.2709L52.2552 38.5387C53.0999 38.7063 53.9444 38.8514 54.8005 38.9632C55.6563 39.0748 56.5122 39.164 57.3682 39.2422C58.2241 39.3204 59.0912 39.3316 59.9585 39.3316C61.6977 39.3022 63.4311 39.1228 65.139 38.7956C66.339 38.5823 67.5211 38.2801 68.6753 37.8912C69.0246 37.7796 69.3173 38.1257 69.047 38.3267C68.7768 38.5277 68.4952 38.7063 68.2024 38.8738C67.4255 39.3502 66.6078 39.7575 65.7586 40.0909C63.9501 40.7906 62.0568 41.2523 60.1274 41.4643C58.172 41.6911 56.1982 41.7173 54.2374 41.5423C53.2575 41.4753 52.3001 41.3303 51.3428 41.1739C50.8699 41.0957 50.3968 40.9952 49.9239 40.8948L48.5273 40.5822C48.1107 40.4816 47.7052 40.37 47.2886 40.2808C46.8717 40.1913 46.4551 40.0909 46.0272 40.0239C45.1938 39.8453 44.3379 39.7223 43.4819 39.6107C41.7567 39.3846 40.019 39.2652 38.2788 39.2534C36.5032 39.2374 34.7279 39.3268 32.963 39.5215C31.7692 39.6555 30.5304 39.8341 29.2917 40.0685Z" fill="white"></path>
    <path d="M35.0582 42.223C34.6979 42.223 34.6303 41.81 34.9681 41.7206C35.5876 41.5573 36.2153 41.4267 36.8488 41.3299C37.9673 41.1657 39.097 41.0873 40.2276 41.0953C42.48 41.1167 44.7178 41.4589 46.8722 42.1114C48.7951 42.7063 50.7602 43.158 52.7511 43.4624C53.7625 43.618 54.7811 43.7224 55.803 43.775C56.4113 43.775 57.0081 43.775 57.6275 43.775C57.9991 43.775 58.1119 44.1435 57.7853 44.2663L57.5488 44.3445C57.022 44.5213 56.4839 44.663 55.9382 44.7688C54.8253 44.9848 53.6935 45.0896 52.5596 45.0814C50.3052 45.0624 48.0659 44.7126 45.9148 44.0431C43.9972 43.463 42.0399 43.0189 40.0585 42.7143C38.3918 42.5023 36.7588 42.3346 35.0582 42.223Z" fill="white"></path>
    <path fill-rule="evenodd" clip-rule="evenodd" d="M10.1461 80.3016C10.484 83.8296 11.9143 85.9618 14.865 85.6828C19.6064 85.225 22.0953 80.2012 21.87 77.332C21.9039 76.8564 21.7215 76.3906 21.3729 76.0622C21.024 75.7338 20.5455 75.5772 20.0681 75.635C19.847 75.659 19.6306 75.7154 19.4262 75.8024C18.9982 79.1294 17.917 82.8806 15.7322 84.3766C14.606 84.1532 13.7163 82.8806 13.4797 80.391C13.3412 78.3956 13.47 76.391 13.8627 74.4292C15.7696 72.9068 17.2927 70.965 18.3112 68.7578C18.1872 69.5906 18.1872 70.437 18.3112 71.2698C18.6765 72.6642 19.9923 73.6026 21.4421 73.5026C25.8794 73.0896 29.7085 60.6302 29.1904 55.1598C28.8864 51.8998 26.983 50.2476 23.9648 50.5378C20.3721 50.9062 15.7209 55.1374 12.2296 66.5362C11.3083 69.4112 10.6524 72.3632 10.27 75.3558C9.59524 75.6224 8.88653 75.7952 8.16401 75.8694C5.83274 76.1486 3.59157 74.8982 3.32128 70.6222C3.07351 66.6142 5.69758 59.9828 8.05137 58.8662C8.36671 58.978 8.60323 59.3686 8.60323 59.9828C8.82847 62.5616 6.85759 68.6126 5.44983 70.7116C5.6073 71.0096 5.93535 71.1788 6.27196 71.1358C8.07391 70.9794 11.6102 66.5138 11.0809 60.9316C11.0963 60.0078 10.6928 59.126 9.98144 58.529C9.27009 57.932 8.32604 57.6828 7.40943 57.8504C2.66806 58.297 -0.28262 65.6542 0.0214581 71.0464C0.257963 74.9094 2.25136 77.611 7.30807 77.1422C8.2772 77.0484 9.23065 76.8346 10.1461 76.5058C10.0336 77.7686 10.0336 79.0388 10.1461 80.3016ZM25.1812 51.5872C25.7007 52.1726 25.9817 52.9288 25.9694 53.7084C26.4762 59.123 22.5459 71.6158 20.6538 72.1964C20.5073 72.0848 20.4173 71.8838 20.4173 71.5488C20.2259 69.5616 21.6224 64.761 23.0301 60.9652C20.879 59.8488 19.8091 62.249 18.9644 64.8392C18.0167 67.7988 16.3899 70.5006 14.2118 72.7322C14.2457 72.5928 14.2796 72.4526 14.3138 72.3112C14.7124 70.6646 15.1437 68.8828 15.766 66.8264C18.6604 57.3814 22.084 52.8264 25.1812 51.5872Z" fill="white"></path>
    <path fill-rule="evenodd" clip-rule="evenodd" d="M34.405 71.3589C33.9349 72.8929 33.6068 74.4661 33.425 76.0591C33.6225 77.0999 34.5304 77.8601 35.5987 77.8789C38.8871 77.5775 43.2119 64.8391 43.0542 63.1533C43.0318 62.9857 42.9979 62.9857 42.7614 62.9857C41.1171 68.2887 37.8961 75.3557 35.7789 76.4721C35.9153 75.5391 36.407 73.9631 36.9763 72.1385C37.3469 70.9503 37.7504 69.6569 38.1102 68.3669C38.8506 66.1645 39.3675 63.8945 39.653 61.5903C39.5291 60.3063 38.4368 60.3063 37.0516 60.4739C37.0199 60.5865 36.9878 60.7017 36.9549 60.8191C36.7532 61.5403 36.5278 62.3469 36.2857 63.1533C36.1013 61.6207 34.779 60.4739 33.2223 60.4961C30.9249 60.7083 29.3145 64.5153 28.1881 68.5903C27.3877 70.9677 27.0066 73.4641 27.0619 75.9697C27.2838 77.4083 28.5569 78.4543 30.0239 78.4035C31.6456 78.2473 32.8958 75.1883 34.405 71.3589ZM34.4885 68.4131C34.3838 68.7013 34.2795 68.9885 34.1796 69.2713C32.7832 72.9443 31.2065 76.1595 29.9902 76.8405C29.7874 75.9587 30.1816 72.8997 31.1164 69.8295C32.8845 63.9793 33.7067 62.5281 34.2811 62.4833C34.8555 62.4387 35.4299 62.9635 35.5424 64.2027C35.6375 65.2495 35.0576 66.8457 34.4885 68.4131Z" fill="white"></path>
    <path d="M51.546 73.6479C51.4334 72.5315 52.2893 69.5841 53.472 66.5921C54.6544 63.6001 55.9158 60.6303 55.7243 59.7037C54.4856 59.6143 49.3049 70.8679 47.9084 76.3607C47.6532 76.4249 47.3933 76.4697 47.1312 76.4947C46.2191 76.5841 45.1829 76.4389 45.1042 75.6015C44.9914 74.3959 45.9261 70.5777 46.8611 67.4741C47.8971 64.1247 49.1135 60.9653 48.9783 59.9269C47.7395 59.8377 42.3787 72.2077 41.1736 77.0195C40.8696 77.0195 40.5655 77.1087 40.2952 77.1311C39.4167 77.2203 38.7185 77.1311 38.6172 76.0147C38.8601 73.6915 39.3393 71.3987 40.0474 69.1709C40.9146 66.0449 42.1533 62.9191 42.5026 60.7867C42.0361 60.9883 41.5432 61.1235 41.0384 61.1885C40.2839 61.2555 40.0587 60.9765 40.0248 60.6415C40.0141 60.5005 40.0371 60.3589 40.0924 60.2285C41.106 60.1615 42.0747 59.8711 42.9531 59.7931C43.4427 59.6747 43.9602 59.7823 44.3605 60.0861C44.7608 60.3897 45.0011 60.8565 45.014 61.3561C45.1042 62.2939 44.327 64.9175 43.1895 68.3783C45.4419 63.2093 47.0862 58.7547 49.0572 58.5761C50.1045 58.4757 51.6475 58.8775 51.7938 60.3513C51.9063 61.5905 50.8027 65.0513 49.913 67.9765C51.9063 63.0195 53.731 58.5427 55.8032 58.3529C56.9857 58.2411 58.6976 58.6543 58.8439 60.1949C58.9567 61.3113 58.0893 64.0689 56.8505 67.2619C55.7243 70.1423 54.3954 73.3911 54.5982 74.6861C57.346 73.0339 60.2291 66.3911 61.9186 61.1215C62.1551 61.1215 62.2001 61.1215 62.2114 61.3001C62.3689 62.9859 58.2132 75.7021 54.1137 76.0817C52.7626 76.0251 51.6636 74.9833 51.546 73.6479Z" fill="white"></path>
    <path fill-rule="evenodd" clip-rule="evenodd" d="M60.1358 67.8595C59.0736 71.6761 55.9254 82.9883 56.1296 85.2251C56.2535 86.1183 57.0643 86.4421 58.5285 86.2635C59.7672 81.0273 60.8823 76.6511 61.907 73.0673C62.842 74.5409 63.9006 75.2555 65.3534 75.1103C71.5251 74.5297 75.6469 61.8137 75.4893 60.1391C75.4781 59.9605 75.4331 59.9605 75.1964 59.9605C73.6762 64.8169 70.7142 70.6447 67.9661 72.9669C70.3087 69.6733 71.6826 63.3097 71.3449 59.7483C71.1169 58.2893 69.8497 57.2133 68.3604 57.2141C67.0427 57.3369 65.5336 59.4469 64.0245 63.6559C64.2169 62.8503 64.5359 61.7407 64.8684 60.5845C65.508 58.3593 66.1971 55.9615 66.1304 55.2269C66.0291 54.3561 65.4434 54.1775 63.7767 54.2891C63.5118 55.6719 62.1189 60.6975 61.0518 64.5473C60.7576 65.6087 60.4883 66.5807 60.274 67.3623C60.2333 67.5095 60.1869 67.6757 60.1358 67.8595ZM68.3717 58.8441C68.6081 59.7371 68.0787 62.8297 67.2455 65.8999L67.2792 65.9111C65.6911 71.8281 65.0268 73.1343 64.137 73.2013C63.6302 73.2459 63.0897 72.9221 62.2789 71.9509C64.8466 63.0083 66.6711 59.2459 68.3717 58.8441Z" fill="white"></path>
    <path fill-rule="evenodd" clip-rule="evenodd" d="M87.4945 57.8505C87.4608 57.5155 87.0778 57.4151 86.7512 57.5155C84.7915 63.9237 80.2529 71.5043 77.0432 72.5091C76.0683 72.3073 75.3714 71.4533 75.3763 70.4661V69.4501C75.6934 69.4993 76.0164 69.4993 76.3336 69.4501C80.5569 69.0593 83.3613 61.9253 83.091 59.1009C82.8658 56.6447 80.8836 55.9859 79.1604 56.1535C77.7765 56.2813 76.5297 57.0353 75.7818 58.1965C73.4126 61.8749 72.2337 66.1831 72.4032 70.5441C72.6284 72.8329 74.9371 74.2061 77.5837 73.9493C84.1159 73.3463 87.6296 59.1901 87.4945 57.8505ZM80.7147 58.1071C80.9512 60.5633 78.6199 67.6861 75.6242 68.4787C76.176 64.2251 78.8226 57.5713 80.4107 57.3591C80.6152 57.5539 80.726 57.8261 80.7147 58.1071Z" fill="white"></path>
    <path d="M84.9156 70.5553C84.758 68.9141 88.8574 60.6973 88.7673 59.6591C88.7673 59.1901 88.3956 59.0227 87.9564 58.7883C86.8326 58.3215 86.1158 57.2157 86.1543 56.0083C85.8166 52.4469 87.0667 50.8727 88.4069 50.7499C89.0961 50.6947 89.7625 51.0101 90.1525 51.5761C89.2791 53.1247 88.526 54.7369 87.9001 56.3991C87.7756 56.6679 87.7214 56.9637 87.7423 57.2587C87.7389 57.4811 87.8868 57.6781 88.1029 57.7387C90.6819 58.3081 91.4815 58.2301 91.639 59.7707C91.7405 60.8871 90.693 63.7563 89.7133 66.4693C89.0909 68.0405 88.6048 69.6615 88.2604 71.3145C89.6729 70.1921 90.7513 68.7103 91.38 67.0275C91.639 67.0275 91.8531 67.0275 91.8868 67.3513C92.022 68.7913 89.747 72.8329 87.7087 73.0227C86.2504 73.1051 85.0003 72.0009 84.9156 70.5553Z" fill="white"></path>
  </g>
  <defs>
    <clipPath id="clip0_3056_50417">
      <rect width="92" height="86" fill="white" transform="translate(0 0.5)"></rect>
    </clipPath>
  </defs>
</svg>
