<?xml version="1.0" encoding="UTF-8"?>
<svg xmlns="http://www.w3.org/2000/svg" width="100" height="43" viewBox="0 0 100 43" fill="none">
  <path fill-rule="evenodd" clip-rule="evenodd" d="M98.8945 9.3166C99.3654 9.78961 99.6005 10.3621 99.6005 11.0333C99.6005 11.7087 99.3654 12.2841 98.8945 12.7607C98.4231 13.2366 97.8506 13.4749 97.177 13.4749C96.5052 13.4749 95.9327 13.2366 95.4601 12.7607C94.9916 12.2841 94.7577 11.7087 94.7577 11.0333C94.7577 10.3621 94.9934 9.78961 95.4642 9.3166C95.9386 8.84005 96.5087 8.60237 97.177 8.60237C97.8489 8.60237 98.4208 8.84005 98.8945 9.3166ZM99.1743 9.04362C98.623 8.49588 97.9582 8.2229 97.177 8.2229C96.4017 8.2229 95.7399 8.49588 95.1921 9.04362C94.6425 9.5937 94.3662 10.2573 94.3662 11.0333C94.3662 11.8158 94.6384 12.483 95.1844 13.0331C95.7322 13.5861 96.3964 13.8626 97.177 13.8626C97.9582 13.8626 98.623 13.5861 99.1743 13.0331C99.7251 12.4812 100 11.8129 100 11.0333C100 10.255 99.7251 9.59194 99.1743 9.04362ZM97.5955 10.9021C97.4803 10.9486 97.3075 10.971 97.0777 10.971H96.5851V9.8508H97.0501C97.3528 9.8508 97.5726 9.88904 97.709 9.96552C97.8465 10.042 97.9147 10.1932 97.9147 10.4191C97.9147 10.6562 97.8095 10.818 97.5955 10.9021ZM96.0414 12.5724H96.5851V11.351H97.0166C97.3063 11.351 97.5085 11.3852 97.6226 11.4516C97.8183 11.5664 97.9147 11.8035 97.9147 12.1623V12.4071L97.927 12.5077C97.9288 12.52 97.9323 12.5324 97.9341 12.5418C97.9364 12.5524 97.9388 12.5624 97.9411 12.5724H98.4525L98.4331 12.5347C98.4208 12.5089 98.4114 12.4547 98.4067 12.373C98.4014 12.2912 98.399 12.2141 98.399 12.1429V11.9158C98.399 11.7605 98.3426 11.5999 98.2298 11.4363C98.1169 11.2722 97.9388 11.1704 97.6955 11.1333C97.8877 11.1022 98.0375 11.0522 98.1463 10.9833C98.3473 10.8527 98.4484 10.6492 98.4484 10.3726C98.4484 9.98317 98.2885 9.72254 97.9688 9.58899C97.7901 9.51545 97.5085 9.4778 97.1235 9.4778H96.0414V12.5724Z" fill="white"></path>
  <path fill-rule="evenodd" clip-rule="evenodd" d="M28.0449 34.3891H34.8909V8.60449H28.0449V34.3891Z" fill="white"></path>
  <path fill-rule="evenodd" clip-rule="evenodd" d="M13.485 22.2289L18.5418 13.1022V22.2289H13.485ZM18.4648 0.708496L0 34.389H6.90123L9.7326 29.167H18.5418V34.3396V34.389H25.1826V34.3396V12.2862V0.708496H18.4648Z" fill="white"></path>
  <path fill-rule="evenodd" clip-rule="evenodd" d="M64.3221 24.217H70.6291V18.7761H64.3256L64.3221 14.0507H70.6373V8.60986H57.9258V34.3833H70.6261V28.9406H64.3221V24.217Z" fill="white"></path>
  <path fill-rule="evenodd" clip-rule="evenodd" d="M47.677 19.1997H44.3167V13.9977H47.6859C49.0966 13.993 50.3362 15.0467 50.3362 16.6005C50.3362 17.9471 49.3264 19.1997 47.677 19.1997ZM51.2008 24.2563C52.9636 23.738 56.5491 21.4894 56.5491 16.584C56.5491 16.1151 56.5033 15.6603 56.4316 15.2161C56.428 15.1902 56.4251 15.1638 56.421 15.1385C56.3851 14.9314 56.341 14.7284 56.2911 14.5278C56.2829 14.4954 56.2758 14.4631 56.2676 14.4313C56.2164 14.2324 56.1571 14.0377 56.0918 13.8459C56.0807 13.8159 56.0707 13.7853 56.0601 13.7547C55.9913 13.5617 55.9178 13.3729 55.8367 13.1882C55.8261 13.164 55.8144 13.1393 55.8032 13.1152C55.718 12.9258 55.6269 12.7404 55.5281 12.5598C55.5228 12.5492 55.5164 12.5386 55.5111 12.5281C54.205 10.1636 51.8157 8.61157 49.1977 8.61157H37.7563V8.61804V34.3897H44.3167L44.319 24.0316L54.2667 42.3003H61.0757C61.0757 42.3003 51.1914 24.2599 51.2008 24.2563Z" fill="white"></path>
  <path fill-rule="evenodd" clip-rule="evenodd" d="M72.0567 34.389H78.9121L82.484 27.8233L86.0543 34.389H92.9102L85.8832 21.5717L92.9367 8.60446H86.1918L82.4835 15.3696L74.4578 0.699707H67.7012L79.0837 21.5712L72.0567 34.389Z" fill="white"></path>
</svg>
