<?xml version="1.0" encoding="UTF-8"?>
<svg xmlns="http://www.w3.org/2000/svg" width="240" height="80" viewBox="0 0 240 80" fill="none">
  <path fill-rule="evenodd" clip-rule="evenodd" d="M4.78584 44.4068C4.3189 45.7005 2.905 46.3689 1.6231 45.8975C0.344473 45.4271 -0.317759 43.9874 0.150272 42.6937L5.13168 28.8194C5.60081 27.5223 7.01473 26.8538 8.29554 27.3264C9.57198 27.7978 10.232 29.2343 9.76509 30.5335L4.78584 44.4068Z" fill="white"></path>
  <path fill-rule="evenodd" clip-rule="evenodd" d="M13.2945 48.0344C12.6813 49.7332 10.8288 50.6085 9.15637 49.9899C7.47735 49.3702 6.61437 47.49 7.22423 45.7945L13.9839 26.97C14.5927 25.2702 16.4452 24.3959 18.1231 25.0145C19.7967 25.632 20.6629 27.5134 20.0509 29.2132L13.2945 48.0344Z" fill="white"></path>
  <path fill-rule="evenodd" clip-rule="evenodd" d="M24.0179 52.4622C23.1964 54.7387 20.7144 55.914 18.4713 55.084C16.2239 54.2562 15.0631 51.7341 15.8814 49.461L24.7641 24.7224C25.5834 22.4415 28.0687 21.2663 30.3139 22.0963C32.5603 22.9263 33.7178 25.4417 32.9006 27.7237L24.0179 52.4622Z" fill="white"></path>
  <path fill-rule="evenodd" clip-rule="evenodd" d="M37.4788 58.0011C36.3955 61.0102 33.1106 62.5628 30.1409 61.4683C27.1702 60.3672 25.6373 57.0372 26.7196 54.0271L38.2785 21.8373C39.3619 18.8216 42.6446 17.2711 45.6186 18.3679C48.5872 19.4635 50.1179 22.7979 49.0378 25.8124L37.4788 58.0011Z" fill="white"></path>
  <path d="M61.239 32.7515L66.7921 47.7724L72.367 32.7515H75.5766V50.6287H73.3565V35.755H73.3096L67.8034 50.6287H65.8026L60.2986 35.755H60.2516V50.6287H58.0315V32.7515H61.239Z" fill="white"></path>
  <path d="M86.5042 43.9442C86.2424 44.1434 85.8944 44.2884 85.4678 44.3791C85.0379 44.4721 84.5928 44.5451 84.1215 44.6026C83.6557 44.6591 83.1822 44.7266 82.7021 44.8018C82.2265 44.8782 81.7988 44.9977 81.4224 45.1626C81.0428 45.3297 80.734 45.5677 80.4951 45.8731C80.254 46.183 80.1361 46.598 80.1361 47.1325C80.1361 47.4811 80.2071 47.7744 80.3456 48.0167C80.4853 48.2558 80.6685 48.4528 80.8911 48.6011C81.1137 48.7516 81.3701 48.8578 81.6679 48.9253C81.9646 48.9928 82.2756 49.0271 82.6061 49.0271C83.2967 49.0271 83.8891 48.9287 84.3833 48.7394C84.8754 48.5457 85.279 48.3056 85.5932 48.0167C85.9053 47.7246 86.1355 47.4103 86.2817 47.0694C86.4311 46.7308 86.5042 46.411 86.5042 46.1111V43.9442ZM89.9113 50.5798C89.5491 50.7934 89.0473 50.9018 88.4058 50.9018C87.8636 50.9018 87.4315 50.748 87.1097 50.4404C86.79 50.1327 86.6275 49.6269 86.6275 48.9253C86.0514 49.6269 85.3838 50.1327 84.6168 50.4404C83.8499 50.748 83.025 50.9018 82.1348 50.9018C81.561 50.9018 81.0111 50.8377 80.4951 50.7026C79.9769 50.5687 79.5263 50.3595 79.1499 50.0784C78.7702 49.7929 78.4713 49.42 78.2488 48.9629C78.0262 48.5037 77.916 47.9481 77.916 47.2974C77.916 46.5648 78.0393 45.9617 78.288 45.4946C78.5346 45.0287 78.8564 44.648 79.259 44.357C79.6648 44.0637 80.1231 43.8423 80.6424 43.6929C81.1606 43.5424 81.6919 43.4163 82.2363 43.3167C82.8101 43.2016 83.3567 43.1119 83.876 43.0555C84.3942 42.999 84.8524 42.9128 85.2474 42.8032C85.6401 42.6959 85.9544 42.5387 86.1824 42.3273C86.4126 42.1204 86.5282 41.8172 86.5282 41.4143C86.5282 40.9473 86.442 40.571 86.2685 40.2888C86.0983 40.0033 85.8758 39.7875 85.6042 39.6381C85.3314 39.4853 85.0281 39.3869 84.6899 39.336C84.3517 39.2873 84.0222 39.2596 83.6895 39.2596C82.8025 39.2596 82.0606 39.4322 81.4693 39.7731C80.878 40.1162 80.5584 40.7636 80.506 41.7153H78.408C78.4429 40.9119 78.6077 40.2368 78.9034 39.6868C79.199 39.1368 79.5917 38.6886 80.0892 38.3455C80.5813 38.0047 81.1442 37.759 81.7781 37.6096C82.4097 37.4569 83.0905 37.3838 83.8149 37.3838C84.391 37.3838 84.9626 37.427 85.5299 37.5067C86.0983 37.5919 86.6122 37.7623 87.0726 38.0201C87.5308 38.278 87.9028 38.641 88.1832 39.1069C88.4625 39.5739 88.6022 40.1815 88.6022 40.9307V47.5763C88.6022 48.0754 88.6327 48.4417 88.6883 48.6763C88.7462 48.9087 88.9425 49.0271 89.2698 49.0271C89.4498 49.0271 89.6648 48.9928 89.9113 48.9253V50.5798Z" fill="white"></path>
  <path d="M93.8268 37.6837V39.7355H93.877C94.7487 38.1684 96.1288 37.3838 98.0239 37.3838C98.8596 37.3838 99.5611 37.4989 100.122 37.7335C100.679 37.9659 101.132 38.2935 101.478 38.7107C101.824 39.1268 102.065 39.6248 102.206 40.2014C102.344 40.7747 102.418 41.4154 102.418 42.1126V50.6285H100.315V41.8669C100.315 41.0635 100.085 40.4305 99.6265 39.9613C99.1683 39.4932 98.5322 39.2608 97.726 39.2608C97.0845 39.2608 96.5292 39.3603 96.0579 39.5617C95.5888 39.762 95.2015 40.0454 94.8873 40.4117C94.5764 40.778 94.3407 41.2107 94.1836 41.7021C94.0287 42.1945 93.9501 42.7335 93.9501 43.3156V50.6285H91.8533V37.6837H93.8268Z" fill="white"></path>
  <path d="M114.707 42.2786C114.55 41.7021 114.312 41.1897 113.99 40.7393C113.671 40.2855 113.26 39.9292 112.757 39.6625C112.255 39.3957 111.666 39.2608 110.992 39.2608C110.288 39.2608 109.686 39.4024 109.191 39.6879C108.698 39.9712 108.292 40.343 107.981 40.799C107.669 41.2605 107.445 41.7806 107.303 42.3638C107.164 42.9504 107.093 43.5435 107.093 44.1445C107.093 44.7775 107.166 45.3895 107.316 45.9827C107.465 46.5758 107.699 47.0982 108.017 47.5486C108.34 48.0001 108.754 48.3631 109.267 48.6376C109.775 48.912 110.39 49.0492 111.116 49.0492C111.84 49.0492 112.446 48.9087 112.93 48.6232C113.414 48.3421 113.807 47.9669 114.103 47.4988C114.396 47.0318 114.611 46.4962 114.744 45.8963C114.875 45.2943 114.939 44.6779 114.939 44.0415C114.939 43.4406 114.864 42.8541 114.707 42.2786ZM107.166 37.6837V39.4356H107.217C107.562 38.7195 108.107 38.1983 108.845 37.8707C109.586 37.5454 110.4 37.3838 111.288 37.3838C112.278 37.3838 113.136 37.5664 113.869 37.936C114.6 38.3035 115.21 38.7959 115.692 39.4234C116.179 40.0498 116.549 40.7713 116.792 41.5903C117.041 42.4081 117.161 43.2735 117.161 44.1954C117.161 45.1128 117.043 45.9794 116.805 46.7972C116.566 47.6139 116.205 48.3299 115.719 48.9375C115.231 49.5461 114.624 50.0253 113.891 50.3773C113.162 50.7281 112.309 50.9029 111.338 50.9029C111.026 50.9029 110.675 50.8697 110.291 50.8033C109.903 50.7369 109.521 50.6285 109.141 50.4757C108.761 50.3263 108.408 50.1238 108.068 49.8626C107.733 49.6059 107.447 49.285 107.217 48.8998H107.166V55.5598H105.07V37.6837H107.166Z" fill="white"></path>
  <path d="M121.053 46.2584C121.259 46.8681 121.545 47.3783 121.904 47.7855C122.267 48.1961 122.691 48.5071 123.176 48.7262C123.664 48.942 124.176 49.0504 124.719 49.0504C125.261 49.0504 125.776 48.942 126.26 48.7262C126.748 48.5071 127.172 48.1961 127.533 47.7855C127.897 47.3783 128.18 46.8681 128.384 46.2584C128.59 45.6497 128.693 44.9514 128.693 44.169C128.693 43.3832 128.59 42.6871 128.384 42.0762C128.18 41.4686 127.897 40.9529 127.533 40.5368C127.172 40.1196 126.748 39.8031 126.26 39.584C125.776 39.3693 125.261 39.2609 124.719 39.2609C124.176 39.2609 123.664 39.3693 123.176 39.584C122.691 39.8031 122.267 40.1196 121.904 40.5368C121.545 40.9529 121.259 41.4686 121.053 42.0762C120.849 42.6871 120.744 43.3832 120.744 44.169C120.744 44.9514 120.849 45.6497 121.053 46.2584ZM118.919 41.5018C119.183 40.6752 119.576 39.9558 120.105 39.3471C120.631 38.7385 121.283 38.2582 122.053 37.9096C122.828 37.5577 123.716 37.3828 124.719 37.3828C125.736 37.3828 126.632 37.5577 127.397 37.9096C128.164 38.2582 128.809 38.7385 129.334 39.3471C129.86 39.9558 130.253 40.6752 130.518 41.5018C130.782 42.3274 130.913 43.2183 130.913 44.169C130.913 45.1196 130.782 46.0038 130.518 46.8216C130.253 47.6384 129.86 48.3555 129.334 48.963C128.809 49.5728 128.164 50.0465 127.397 50.3895C126.632 50.7293 125.736 50.902 124.719 50.902C123.716 50.902 122.828 50.7293 122.053 50.3895C121.283 50.0465 120.631 49.5728 120.105 48.963C119.576 48.3555 119.183 47.6384 118.919 46.8216C118.657 46.0038 118.526 45.1196 118.526 44.169C118.526 43.2183 118.657 42.3274 118.919 41.5018Z" fill="white"></path>
  <path d="M143.197 50.6285L140.608 40.3408H140.556L137.987 50.6285H135.72L131.622 37.6837H133.942L136.829 48.2735H136.88L139.446 37.6837H141.742L144.407 48.2735H144.454L147.319 37.6837H149.492L145.418 50.6285H143.197Z" fill="white"></path>
  <path d="M159.044 41.4896C158.853 41.0403 158.598 40.6507 158.277 40.3253C157.957 40 157.579 39.741 157.143 39.5507C156.708 39.3592 156.223 39.2608 155.7 39.2608C155.155 39.2608 154.665 39.3592 154.231 39.5507C153.794 39.741 153.416 40.0055 153.107 40.3408C152.791 40.6717 152.548 41.0602 152.367 41.5029C152.186 41.9455 152.079 42.4148 152.047 42.9161H159.373C159.345 42.4148 159.232 41.94 159.044 41.4896ZM159.549 49.8007C158.593 50.5366 157.392 50.9041 155.946 50.9041C154.925 50.9041 154.042 50.7369 153.294 50.4038C152.545 50.0707 151.911 49.6004 151.403 49.0005C150.895 48.3996 150.51 47.6836 150.257 46.847C150.003 46.0114 149.859 45.1029 149.825 44.1179C149.825 43.133 149.971 42.2354 150.267 41.4132C150.565 40.5976 150.979 39.886 151.516 39.2828C152.05 38.6852 152.683 38.2182 153.414 37.8829C154.147 37.5487 154.951 37.3838 155.823 37.3838C156.956 37.3838 157.899 37.6207 158.645 38.0965C159.397 38.5724 159.997 39.1777 160.45 39.9126C160.903 40.6474 161.215 41.4475 161.385 42.314C161.563 43.1828 161.63 44.0083 161.596 44.793H152.047C152.028 45.3607 152.094 45.8996 152.243 46.4098C152.393 46.9167 152.629 47.3682 152.958 47.7622C153.289 48.1528 153.704 48.4671 154.218 48.7006C154.725 48.933 155.328 49.0515 156.017 49.0515C156.907 49.0515 157.635 48.8423 158.206 48.4229C158.771 48.0068 159.143 47.3737 159.329 46.5216H161.4C161.12 47.9736 160.502 49.067 159.549 49.8007Z" fill="white"></path>
  <path d="M165.741 37.6837V40.4117H165.788C166.296 39.3604 166.927 38.5835 167.663 38.0833C168.406 37.5842 169.341 37.3506 170.478 37.3838V39.636C169.64 39.636 168.922 39.7544 168.331 39.9879C167.738 40.2225 167.259 40.5622 166.898 41.0138C166.537 41.4642 166.272 42.0119 166.113 42.6549C165.945 43.2957 165.864 44.035 165.864 44.8705V50.6285H163.762V37.6837H165.741Z" fill="white"></path>
  <path d="M183.288 50.4138C182.269 50.8221 181.24 51.0269 180.2 51.0269C178.883 51.0269 177.707 50.7812 176.673 50.2887C175.635 49.794 174.757 49.1333 174.032 48.2978C173.306 47.4645 172.754 46.5039 172.377 45.4194C171.997 44.3327 171.812 43.2093 171.812 42.0385C171.812 40.7348 171.986 39.4987 172.343 38.3201C172.693 37.1459 173.22 36.1145 173.922 35.2302C174.621 34.3449 175.493 33.64 176.535 33.1143C177.58 32.5875 178.803 32.3263 180.2 32.3263C181.156 32.3263 182.057 32.437 182.905 32.6627C183.751 32.8896 184.511 33.2437 185.175 33.7263C185.841 34.2099 186.398 34.8252 186.851 35.5655C187.304 36.3092 187.614 37.209 187.778 38.2581H185.432C185.319 37.5753 185.104 36.9865 184.79 36.4929C184.479 36.0016 184.094 35.5977 183.634 35.2789C183.172 34.9646 182.648 34.7245 182.065 34.5673C181.478 34.4069 180.863 34.3283 180.2 34.3283C179.132 34.3283 178.214 34.5463 177.449 34.9779C176.684 35.4139 176.058 35.9827 175.573 36.6954C175.087 37.4037 174.731 38.2149 174.5 39.1202C174.27 40.0299 174.155 40.9606 174.155 41.9145C174.155 42.8497 174.286 43.7472 174.55 44.6049C174.812 45.4648 175.199 46.2239 175.71 46.8857C176.22 47.5431 176.847 48.0699 177.595 48.4605C178.347 48.8534 179.213 49.0515 180.2 49.0515C181.122 49.0515 181.936 48.8998 182.643 48.5977C183.35 48.2978 183.948 47.8839 184.434 47.3605C184.919 46.8348 185.285 46.2161 185.534 45.5057C185.777 44.7985 185.885 44.035 185.854 43.2149H180.227V41.214H187.951V50.6274H186.469L185.854 48.4007C185.165 49.3337 184.306 50.0065 183.288 50.4138Z" fill="white"></path>
  <path d="M192.649 37.6837V40.4117H192.696C193.207 39.3604 193.832 38.5835 194.574 38.0833C195.315 37.5842 196.252 37.3506 197.385 37.3838V39.636C196.548 39.636 195.831 39.7544 195.238 39.9879C194.647 40.2225 194.17 40.5622 193.809 41.0138C193.445 41.4642 193.183 42.0119 193.016 42.6549C192.853 43.2957 192.772 44.035 192.772 44.8705V50.6285H190.675V37.6837H192.649Z" fill="white"></path>
  <path d="M200.238 46.2584C200.442 46.8681 200.725 47.3783 201.089 47.7855C201.448 48.1961 201.874 48.5071 202.359 48.7262C202.843 48.942 203.356 49.0504 203.904 49.0504C204.446 49.0504 204.962 48.942 205.443 48.7262C205.927 48.5071 206.352 48.1961 206.713 47.7855C207.077 47.3783 207.36 46.8681 207.564 46.2584C207.771 45.6497 207.878 44.9514 207.878 44.169C207.878 43.3832 207.771 42.6871 207.564 42.0762C207.36 41.4686 207.077 40.9529 206.713 40.5368C206.352 40.1196 205.927 39.8031 205.443 39.584C204.962 39.3693 204.446 39.2609 203.904 39.2609C203.356 39.2609 202.843 39.3693 202.359 39.584C201.874 39.8031 201.448 40.1196 201.089 40.5368C200.725 40.9529 200.442 41.4686 200.238 42.0762C200.028 42.6871 199.926 43.3832 199.926 44.169C199.926 44.9514 200.028 45.6497 200.238 46.2584ZM198.099 41.5018C198.366 40.6752 198.761 39.9558 199.284 39.3471C199.811 38.7385 200.461 38.2582 201.235 37.9096C202.011 37.5577 202.896 37.3828 203.904 37.3828C204.919 37.3828 205.815 37.5577 206.577 37.9096C207.341 38.2582 207.988 38.7385 208.514 39.3471C209.043 39.9558 209.436 40.6752 209.701 41.5018C209.965 42.3274 210.096 43.2183 210.096 44.169C210.096 45.1196 209.965 46.0038 209.701 46.8216C209.436 47.6384 209.043 48.3555 208.514 48.963C207.988 49.5728 207.341 50.0465 206.577 50.3895C205.815 50.7293 204.919 50.902 203.904 50.902C202.896 50.902 202.011 50.7293 201.235 50.3895C200.461 50.0465 199.811 49.5728 199.284 48.963C198.761 48.3555 198.366 47.6384 198.099 46.8216C197.837 46.0038 197.704 45.1196 197.704 44.169C197.704 43.2183 197.837 42.3274 198.099 41.5018Z" fill="white"></path>
  <path d="M220.653 50.6285V48.5745H220.603C220.157 49.3768 219.589 49.9633 218.898 50.3385C218.209 50.7148 217.395 50.9029 216.455 50.9029C215.617 50.9029 214.919 50.7912 214.358 50.5643C213.8 50.3385 213.348 50.0176 212.998 49.6003C212.654 49.1831 212.409 48.6874 212.271 48.1119C212.13 47.5342 212.061 46.8968 212.061 46.1952V37.6837H214.159V46.4464C214.159 47.2465 214.395 47.8817 214.853 48.3487C215.311 48.8157 215.944 49.0492 216.751 49.0492C217.395 49.0492 217.95 48.9508 218.416 48.7493C218.888 48.5501 219.275 48.2668 219.589 47.8983C219.903 47.5276 220.139 47.1015 220.294 46.609C220.448 46.1176 220.526 45.5787 220.526 44.9933V37.6837H222.626V50.6285H220.653Z" fill="white"></path>
  <path d="M235.033 42.2786C234.874 41.7021 234.638 41.1897 234.319 40.7393C233.997 40.2855 233.582 39.9292 233.083 39.6625C232.58 39.3957 231.994 39.2608 231.315 39.2608C230.61 39.2608 230.011 39.4024 229.514 39.6879C229.024 39.9712 228.618 40.343 228.306 40.799C227.997 41.2605 227.769 41.7806 227.631 42.3638C227.487 42.9504 227.416 43.5435 227.416 44.1445C227.416 44.7775 227.492 45.3895 227.642 45.9827C227.786 46.5758 228.024 47.0982 228.341 47.5486C228.665 48.0001 229.079 48.3631 229.589 48.6376C230.1 48.912 230.715 49.0492 231.444 49.0492C232.164 49.0492 232.771 48.9087 233.253 48.6232C233.743 48.3421 234.132 47.9669 234.429 47.4988C234.721 47.0318 234.939 46.4962 235.07 45.8963C235.201 45.2943 235.267 44.6779 235.267 44.0415C235.267 43.4406 235.188 42.8541 235.033 42.2786ZM227.492 37.6837V39.4356H227.543C227.887 38.7195 228.43 38.1983 229.174 37.8707C229.909 37.5454 230.726 37.3838 231.611 37.3838C232.604 37.3838 233.462 37.5664 234.193 37.936C234.923 38.3035 235.536 38.7959 236.015 39.4234C236.507 40.0498 236.872 40.7713 237.115 41.5903C237.366 42.4081 237.487 43.2735 237.487 44.1954C237.487 45.1128 237.369 45.9794 237.13 46.7972C236.89 47.6139 236.528 48.3299 236.047 48.9375C235.559 49.5461 234.949 50.0253 234.216 50.3773C233.486 50.7281 232.637 50.9029 231.666 50.9029C231.352 50.9029 231.001 50.8697 230.614 50.8033C230.231 50.7369 229.847 50.6285 229.469 50.4757C229.09 50.3263 228.731 50.1238 228.394 49.8626C228.055 49.6059 227.773 49.285 227.543 48.8998H227.492V55.5598H225.398V37.6837H227.492Z" fill="white"></path>
  <path d="M238.075 33.9321C238.152 33.9321 238.225 33.931 238.296 33.9266C238.363 33.921 238.423 33.9066 238.479 33.8801C238.528 33.8568 238.573 33.8203 238.61 33.7716C238.636 33.7218 238.655 33.6521 238.655 33.5646C238.655 33.4905 238.638 33.4319 238.612 33.3843C238.584 33.3422 238.545 33.3079 238.502 33.2836C238.455 33.2615 238.403 33.2448 238.343 33.2349C238.288 33.226 238.227 33.2227 238.173 33.2227H237.716V33.9321H238.075ZM238.227 32.9416C238.487 32.9416 238.681 32.9925 238.806 33.0999C238.934 33.2061 238.997 33.3632 238.997 33.5801C238.997 33.7815 238.939 33.9298 238.833 34.0206C238.72 34.1146 238.584 34.1711 238.419 34.1877L239.05 35.1726H238.681L238.081 34.2143H237.716V35.1726H237.374V32.9416H238.227ZM236.672 34.7012C236.751 34.9004 236.861 35.0742 237 35.2203C237.138 35.3663 237.303 35.4814 237.494 35.5633C237.683 35.6485 237.89 35.6906 238.109 35.6906C238.33 35.6906 238.528 35.6485 238.72 35.5633C238.908 35.4814 239.068 35.3663 239.209 35.2203C239.353 35.0742 239.461 34.9004 239.536 34.7012C239.615 34.5009 239.657 34.284 239.657 34.0505C239.657 33.8203 239.615 33.6089 239.536 33.4108C239.461 33.2116 239.353 33.0434 239.209 32.8962C239.068 32.7512 238.908 32.6406 238.72 32.5543C238.528 32.4724 238.33 32.4292 238.109 32.4292C237.89 32.4292 237.683 32.4724 237.494 32.5543C237.303 32.6406 237.138 32.7512 237 32.8962C236.861 33.0434 236.751 33.2116 236.672 33.4108C236.594 33.6089 236.551 33.8203 236.551 34.0505C236.551 34.284 236.594 34.5009 236.672 34.7012ZM236.366 33.298C236.463 33.0667 236.604 32.8675 236.772 32.6937C236.947 32.5266 237.146 32.3905 237.376 32.2931C237.607 32.199 237.851 32.1503 238.109 32.1503C238.369 32.1503 238.612 32.199 238.838 32.2931C239.068 32.3905 239.27 32.5266 239.437 32.6937C239.61 32.8675 239.746 33.0667 239.848 33.298C239.948 33.5315 240 33.7816 240 34.0505C240 34.3239 239.948 34.5784 239.848 34.8119C239.746 35.0487 239.61 35.2512 239.437 35.4228C239.27 35.5932 239.068 35.7282 238.838 35.8234C238.612 35.9163 238.369 35.9661 238.109 35.9661C237.851 35.9661 237.607 35.9163 237.376 35.8234C237.146 35.7282 236.947 35.5932 236.772 35.4228C236.604 35.2512 236.463 35.0487 236.366 34.8119C236.259 34.5784 236.211 34.3239 236.211 34.0505C236.211 33.7816 236.259 33.5315 236.366 33.298Z" fill="white"></path>
</svg>
