<svg width="200" height="80" viewBox="0 0 200 80" fill="none" xmlns="http://www.w3.org/2000/svg">
<path fill-rule="evenodd" clip-rule="evenodd" d="M31.9999 8H64V72H0V8H31.9999ZM8.16007 45.2763H11.3618V46.2539C12.0218 45.7407 13.0971 45.081 14.8081 45.081C16.0788 45.081 17.1056 45.6186 17.6678 46.4494C18.6208 45.692 19.7201 45.081 21.2599 45.081C24.0706 45.081 25.2194 46.8647 25.2194 49.3091V57.2762H21.9688V49.7977C21.9688 48.4291 21.5534 47.6472 20.1601 47.6472C19.4756 47.6472 18.6937 48.0136 18.2049 48.3074C18.2541 48.5517 18.3273 49.0156 18.3273 49.4798V57.2762H15.0521V49.7483C15.0521 48.234 14.4414 47.647 13.3168 47.647C12.6571 47.647 11.9482 48.0376 11.435 48.4045V57.2759H8.16007V45.2763ZM32.6729 45.0808C28.9338 45.0808 26.9786 47.8915 26.9786 51.2883C26.9786 54.9294 28.8115 57.4717 33.1863 57.4717C34.6525 57.4717 35.9968 57.1779 36.9744 56.7869V54.2941C36.1192 54.6851 34.8729 55.027 33.4306 55.027C31.109 55.027 30.3756 53.7565 30.3271 51.7769H37.7078C37.7568 51.4348 37.7811 50.9463 37.7811 50.6525C37.7811 47.7684 36.5349 45.0808 32.6729 45.0808ZM34.5792 49.7481V49.8707H30.4246C30.5714 48.3313 31.4025 47.4758 32.6729 47.4758C33.9684 47.4758 34.5792 48.5998 34.5792 49.7481ZM39.0423 51.4102C39.0423 47.8917 41.1691 45.081 44.5901 45.081C45.7879 45.081 46.448 45.3495 46.7655 45.4964V40.6576H50.0158V57.2759H46.7655V56.3468C46.2277 56.9339 45.2744 57.4717 43.906 57.4717C40.5823 57.4717 39.0423 55.0032 39.0423 51.4102ZM46.7655 54.2455V47.8915C46.4227 47.7203 45.8856 47.5488 45.2501 47.5488C43.368 47.5488 42.4888 48.9908 42.4888 51.2635C42.4888 53.2919 43.0993 54.905 44.9812 54.905C45.6901 54.9053 46.35 54.661 46.7655 54.2455ZM54.2019 39.8748C53.0534 39.8748 52.2221 40.7303 52.2221 41.7569C52.2221 42.7835 53.0532 43.6631 54.2019 43.6631C55.3263 43.6631 56.1576 42.7835 56.1576 41.7569C56.1576 40.7303 55.3263 39.8748 54.2019 39.8748ZM54.1897 45.2763H52.54V57.2759H55.84V45.2763H54.1897ZM55.8399 63.36H27.3602V61.9199V60.4799H55.8399V63.36ZM8.16007 63.36H25.2191V60.4799H8.16007V61.9199V63.36Z" fill="white"/>
</svg>
