<?xml version="1.0" encoding="UTF-8"?>
<svg xmlns="http://www.w3.org/2000/svg" width="207" height="39" viewBox="0 0 207 39" fill="none">
  <path d="M18.2322 17.6109L17.1716 16.5502L16.1109 17.6109L6.11091 27.6109C3.96303 29.7588 3.96303 33.2412 6.11091 35.3891C8.2588 37.537 11.7412 37.537 13.8891 35.3891L23.8891 25.3891L24.9497 24.3284L23.8891 23.2678L18.2322 17.6109Z" stroke="white" stroke-width="3"></path>
  <path d="M23.8891 15.7322L24.9497 14.6716L23.8891 13.6109L13.8891 3.61091C11.7412 1.46303 8.2588 1.46303 6.11091 3.61091C3.96303 5.7588 3.96303 9.2412 6.11091 11.3891L16.1109 21.3891L17.1716 22.4497L18.2322 21.3891L23.8891 15.7322Z" stroke="white" stroke-width="3"></path>
  <circle cx="22" cy="19.5" r="7" fill="white"></circle>
  <path d="M40 26.1106L41.2631 23.5657C42.7489 24.4923 44.4587 24.9825 46.2026 24.9816C48.2764 24.9816 49.1436 24.3981 49.1436 23.4126C49.1436 20.686 40.4619 23.25 40.4619 17.5576C40.4619 14.8597 42.8562 13.0994 46.6456 13.0994C48.4551 13.0745 50.2437 13.4946 51.8584 14.324L50.5953 16.8592C49.3707 16.1393 47.9757 15.7721 46.5608 15.7973C44.5624 15.7973 43.6197 16.467 43.6197 17.395C43.6197 20.2651 52.3014 17.7203 52.3014 23.2978C52.3014 25.9766 49.8788 27.7083 45.9292 27.7083C43.8446 27.7477 41.7908 27.1943 40 26.1106Z" fill="white"></path>
  <path d="M63.103 26.7516C62.1821 27.4131 61.0726 27.7493 59.9451 27.7083C56.8721 27.7083 55.1094 26.0532 55.1094 22.9248V10.1049H58.3992V13.3673H62.1697V16.0461H58.3992V22.8291C58.3992 24.2163 59.1062 24.9721 60.341 24.9721C61.0178 24.9991 61.6832 24.7898 62.2263 24.379L63.103 26.7516Z" fill="white"></path>
  <path d="M73.7014 13.0995V16.2757C73.45 16.2246 73.1942 16.199 72.9378 16.1992C70.4304 16.1992 68.8562 17.6917 68.8562 20.6001V27.5266H65.5664V13.2526H68.696V15.3382C69.648 13.8457 71.3542 13.0995 73.7014 13.0995Z" fill="white"></path>
  <path fill-rule="evenodd" clip-rule="evenodd" d="M88.622 25.3835L86.8782 23.3266C85.8783 24.3671 84.4916 24.9301 83.0605 24.8764C81.2607 25.04 79.5544 24.0362 78.7997 22.3699L89.5647 20.2269C89.6361 18.2967 88.9046 16.425 87.5491 15.0693C86.1936 13.7135 84.3389 12.9986 82.4383 13.0994C80.5057 13.0214 78.628 13.7624 77.255 15.145C75.882 16.5277 75.1371 18.4274 75.1989 20.3895C75.1989 24.6373 78.253 27.7083 82.9662 27.7083C85.102 27.8486 87.1843 26.9927 88.622 25.3835ZM78.404 20.2058L78.3945 20.2076H78.404C78.404 20.207 78.404 20.2064 78.404 20.2058ZM78.404 20.2058L86.341 18.6578C85.866 16.8935 84.2478 15.7006 82.4479 15.7876C80.0635 15.7685 78.4047 17.4802 78.404 20.2058Z" fill="white"></path>
  <path fill-rule="evenodd" clip-rule="evenodd" d="M103.468 27.5264H106.597V13.2523H103.26V15.0127C102.105 13.739 100.459 13.0403 98.7545 13.0993C96.832 13.0123 94.9631 13.7554 93.6105 15.1447C92.2578 16.5339 91.5479 18.4394 91.6564 20.3894C91.5426 22.3434 92.2498 24.2549 93.6027 25.6499C94.9557 27.0449 96.8277 27.7928 98.7545 27.7081C100.55 27.8064 102.289 27.0579 103.468 25.6799V27.5264ZM101.359 16.4741C102.694 17.2975 103.466 18.8071 103.361 20.3893C103.466 21.9714 102.694 23.481 101.359 24.3044C100.023 25.1278 98.3474 25.1278 97.0121 24.3044C95.6769 23.481 94.9047 21.9714 95.0095 20.3893C94.9047 18.8071 95.6769 17.2975 97.0121 16.4741C98.3474 15.6507 100.023 15.6507 101.359 16.4741Z" fill="white"></path>
  <path d="M134.216 19.3466V27.5264H130.927V19.7771C130.927 17.2418 129.767 16.0077 127.769 16.0077C125.61 16.0077 124.111 17.4523 124.111 20.2841V27.5264H120.822V19.7771C120.822 17.2418 119.662 16.0077 117.654 16.0077C115.477 16.0077 113.997 17.4523 113.997 20.2841V27.5264H110.707V13.2524H113.837V15.0892C115.003 13.7622 116.696 13.0384 118.446 13.1184C120.321 13.0037 122.115 13.9068 123.159 15.4911C124.462 13.9248 126.401 13.0506 128.419 13.1184C131.841 13.0993 134.216 15.0892 134.216 19.3466Z" fill="white"></path>
  <path d="M159.897 13.2523L154.713 27.5264H151.555L147.926 17.6914L144.24 27.5264H141.082L135.926 13.2523H139.027L142.741 23.7761L146.606 13.2523H149.377L153.148 23.8335L156.918 13.2523H159.897Z" fill="white"></path>
  <path fill-rule="evenodd" clip-rule="evenodd" d="M172.516 27.5265H175.617V13.2525H172.299V15.0128C171.146 13.7406 169.504 13.0419 167.802 13.0994C165.878 13.0096 164.007 13.7515 162.652 15.1411C161.297 16.5306 160.586 18.4378 160.695 20.3895C160.584 22.3444 161.293 24.2557 162.648 25.6504C164.002 27.045 165.875 27.7927 167.802 27.7083C169.598 27.8095 171.339 27.0605 172.516 25.6801V27.5265ZM170.382 16.4743C171.717 17.2977 172.489 18.8073 172.385 20.3895C172.489 21.9716 171.717 23.4813 170.382 24.3046C169.047 25.128 167.371 25.128 166.036 24.3046C164.7 23.4813 163.928 21.9716 164.033 20.3895C163.928 18.8073 164.7 17.2977 166.036 16.4743C167.371 15.6509 169.047 15.6509 170.382 16.4743Z" fill="white"></path>
  <path d="M193.252 13.2525L186.653 28.6746C185.362 31.9083 183.571 32.8937 181.224 32.8937C179.854 32.9236 178.517 32.4592 177.453 31.583L178.773 29.1243C179.433 29.7406 180.298 30.0821 181.195 30.081C182.355 30.081 183.034 29.5261 183.665 28.1102L183.901 27.5457L177.774 13.1951H181.195L185.616 23.7189L190.066 13.1951L193.252 13.2525Z" fill="white"></path>
  <path d="M193.754 26.1105L195.017 23.5657C196.489 24.4838 198.182 24.9736 199.909 24.9816C201.993 24.9816 202.86 24.398 202.86 23.4126C202.86 20.686 194.169 23.25 194.169 17.5576C194.169 14.8597 196.572 13.0993 200.362 13.0993C202.187 13.0651 203.993 13.4856 205.622 14.3239L204.359 16.8592C203.137 16.1396 201.745 15.7724 200.334 15.7973C198.335 15.7973 197.383 16.4669 197.383 17.395C197.383 20.2651 206.074 17.7202 206.074 23.2978C206.074 25.9766 203.652 27.7082 199.702 27.7082C197.611 27.7523 195.55 27.1987 193.754 26.1105H193.754Z" fill="white"></path>
</svg>
