<?xml version="1.0" encoding="UTF-8"?>
<svg xmlns="http://www.w3.org/2000/svg" width="118" height="78" viewBox="0 0 118 78" fill="none">
  <path d="M61.5895 0.193115L83.0363 20.0259L109.437 7.88584L97.4148 34.3296L117.351 55.5447L88.2319 51.9387L73.7326 77.4208L69.6378 60.2377H19.4079V46.3367H0V26.2575H37.2632V12.3565H63.3062L61.5895 0.193115ZM28.5513 46.4803H24.8126V54.0595H28.7144L28.9665 54.0542C29.4627 54.033 29.9099 53.9482 30.3012 53.8C30.7468 53.627 31.0945 53.3783 31.3445 53.054C31.5945 52.7404 31.7141 52.362 31.7141 51.9403C31.7141 51.4538 31.5728 51.0429 31.301 50.6862C31.0185 50.3402 30.6489 50.1239 30.1816 50.0266C30.5837 49.9077 30.8989 49.7023 31.1272 49.4103C31.3554 49.1184 31.4749 48.7724 31.4749 48.394C31.4749 48.0048 31.3554 47.6696 31.1163 47.3777C30.8772 47.0858 30.5403 46.8696 30.0947 46.7074C29.649 46.556 29.1382 46.4803 28.5513 46.4803ZM36.1918 46.4803H32.6379V54.0595H34.8985V52.016H36.094L37.1048 54.0595H39.6697L38.1264 51.5835L38.2767 51.4903C38.6169 51.2632 38.8831 50.97 39.0828 50.6105C39.3002 50.2104 39.4089 49.7239 39.4089 49.1725C39.4089 48.3183 39.1263 47.648 38.572 47.1831C38.0069 46.7182 37.2135 46.4803 36.1918 46.4803ZM45.3648 46.4803H43.0389L39.7893 54.0595H42.1151L42.5716 52.8485H45.6474L46.093 54.0595H48.5058L45.3648 46.4803ZM60.9066 46.4803H57.57V54.0595H60.8305L61.1023 54.0535C61.8172 54.0215 62.4548 53.8624 63.0151 53.5837C63.6455 53.2702 64.1345 52.8269 64.4823 52.2539C64.8301 51.6808 65.004 51.0105 65.004 50.2645C65.004 49.5185 64.8301 48.8481 64.4932 48.2751C64.1563 47.7021 63.6781 47.2588 63.0586 46.9452C62.4391 46.6317 61.7218 46.4803 60.9066 46.4803ZM50.9946 46.4803H49.06V54.0595H51.1359V49.8428L54.3638 54.0595H56.2875V46.4803H54.2225V50.7078L50.9946 46.4803ZM28.5536 50.999L28.6676 51.0063C28.8512 51.0251 29.0032 51.0769 29.1274 51.1619C29.2904 51.2808 29.3773 51.4538 29.3773 51.6592C29.3773 51.8863 29.2904 52.0593 29.1274 52.189C28.9535 52.3187 28.7252 52.3836 28.4318 52.3728H27.0624V50.9997L28.5536 50.999ZM60.8632 48.2535C61.4066 48.2535 61.8522 48.4373 62.1891 48.8157C62.526 49.1941 62.6999 49.6806 62.6999 50.2861C62.6999 50.8916 62.5369 51.3781 62.2217 51.7457C61.9065 52.1133 61.4827 52.2971 60.9718 52.2971H59.8307V48.2535H60.8632ZM44.1367 48.7292L45.0496 51.2051H43.202L44.1367 48.7292ZM36.1918 48.2102C36.5288 48.2102 36.8005 48.2967 36.9852 48.4697C37.17 48.6535 37.2569 48.9022 37.2569 49.2374C37.2569 49.5725 37.17 49.832 36.9852 50.0158C36.8005 50.1996 36.5288 50.2861 36.1918 50.2861H34.8985V48.2102H36.1918ZM28.4318 48.167C28.66 48.167 28.8339 48.221 28.9643 48.3292C29.0948 48.4481 29.16 48.5995 29.16 48.7941C29.16 48.9995 29.0948 49.1509 28.9643 49.2698C28.8339 49.3887 28.66 49.4536 28.4318 49.4536H27.0624V48.167H28.4318ZM78.1121 37.888C77.0579 37.888 75.9602 38.2772 74.8298 39.0448L75.6776 40.6666L75.8993 40.4928C76.1949 40.2713 76.4905 40.0914 76.7862 39.953C77.1448 39.7909 77.4817 39.7044 77.7752 39.7044C77.9926 39.7044 78.1665 39.7476 78.286 39.8341C78.4056 39.9314 78.4599 40.0612 78.4599 40.2341C78.4599 40.3747 78.4056 40.5477 78.286 40.7423C78.1665 40.9477 78.0034 41.1423 77.8078 41.337L75.0907 44.1264L75.1016 45.5644H80.9922V43.8129H77.9708L79.3402 42.4506L79.5385 42.2487C79.9218 41.8487 80.2252 41.4713 80.4488 41.1099C80.6988 40.6991 80.8292 40.299 80.8292 39.899C80.8292 39.4989 80.7097 39.153 80.4814 38.8502C80.2423 38.5475 79.9163 38.3096 79.5141 38.1366C79.1011 37.9745 78.6338 37.888 78.1121 37.888ZM86.9404 37.9853H83.2886V39.78H84.6797V45.5644H86.9404V37.9853ZM41.036 32.4388C40.2427 32.4388 39.5362 32.6118 38.9058 32.9469C38.2755 33.2821 37.7864 33.747 37.4277 34.3417C37.0691 34.9363 36.8843 35.6067 36.8843 36.3527C36.8843 37.0987 37.0691 37.7799 37.4277 38.3745C37.7864 38.98 38.2755 39.4557 38.9058 39.7909C39.5362 40.1368 40.2427 40.3098 41.036 40.3098C41.8186 40.3098 42.525 40.1368 43.1663 39.7909C43.7966 39.4557 44.2966 38.98 44.6552 38.3745C45.0139 37.7799 45.1878 37.0987 45.1878 36.3527C45.1878 35.6067 45.0139 34.9363 44.6552 34.3417C44.2966 33.747 43.7966 33.2821 43.1663 32.9469C42.525 32.6118 41.8186 32.4388 41.036 32.4388ZM47.5571 32.5793H45.2965L48.0896 37.8015V40.1585H50.3503V37.7582L53.0891 32.5793H50.8394L49.22 35.6715L47.5571 32.5793ZM12.2565 32.5793H6.02887V40.1585H12.3652V38.4286H8.2895V37.2284H11.8869V35.4985H8.2895V34.3092H12.2565V32.5793ZM15.8757 32.5793H13.452V40.1585H15.4409V35.6607L17.1799 39.4124H18.6471L20.386 35.6607V40.1585H22.375V32.5793H19.9513L17.9189 36.7852L15.8757 32.5793ZM27.1136 32.5793H23.6574V40.1585H25.9181V38.1258L27.1136 38.115L27.322 38.1112C28.2102 38.0782 28.9022 37.8308 29.4068 37.369C29.9394 36.8717 30.2111 36.1689 30.2111 35.2715C30.2111 34.4174 29.9394 33.747 29.4068 33.2821C28.8634 32.8172 28.1026 32.5793 27.1136 32.5793ZM64.6314 32.5793H61.0774V40.1585H63.338V38.115H64.5336L65.5443 40.1585H68.1093L66.566 37.6825L66.7163 37.5893C67.0564 37.3622 67.3227 37.069 67.5224 36.7095C67.7398 36.3094 67.8484 35.8229 67.8484 35.2715C67.8484 34.4174 67.5659 33.747 67.0116 33.2821C66.4464 32.8172 65.653 32.5793 64.6314 32.5793ZM59.8819 32.5793H53.6543V40.1585H59.9906V38.4286H55.9149V37.2284H59.5124V35.4985H55.9149V34.3092H59.8819V32.5793ZM33.3412 32.5793H31.0806V40.1585H36.5365V38.2772H33.3412V32.5793ZM41.0687 34.3092C41.4056 34.3092 41.7099 34.3957 41.9816 34.5795C42.2533 34.7633 42.4707 35.0012 42.6337 35.3147C42.7967 35.6283 42.8728 35.9851 42.8728 36.3635C42.8728 36.7527 42.7967 37.0987 42.6337 37.4122C42.4707 37.7258 42.2533 37.9745 41.9816 38.1583C41.699 38.3421 41.3947 38.4394 41.0687 38.4394C40.7317 38.4394 40.4274 38.3421 40.1448 38.1583C39.8514 37.9745 39.6232 37.7258 39.4601 37.4122C39.2862 37.0987 39.1993 36.7419 39.1993 36.3635C39.1993 35.9851 39.2862 35.6283 39.4601 35.3147C39.6232 35.0012 39.8514 34.7633 40.1448 34.5795C40.4274 34.3957 40.7317 34.3092 41.0687 34.3092ZM27.0049 34.3092C27.3418 34.3092 27.6135 34.3957 27.7983 34.5687C27.9831 34.7525 28.07 35.0012 28.07 35.3364C28.07 35.6715 27.9831 35.931 27.7983 36.1148C27.6135 36.2986 27.3418 36.3851 27.0049 36.3851H25.9181V34.3092H27.0049ZM64.6314 34.3092C64.9683 34.3092 65.24 34.3957 65.4248 34.5687C65.6095 34.7525 65.6965 35.0012 65.6965 35.3364C65.6965 35.6715 65.6095 35.931 65.4248 36.1148C65.24 36.2986 64.9683 36.3851 64.6314 36.3851H63.338V34.3092H64.6314ZM85.7992 27.1085C84.6797 27.1085 83.832 27.4437 83.2451 28.1032C82.6473 28.7627 82.3539 29.7142 82.3539 30.9576C82.3539 32.2009 82.6473 33.1632 83.2451 33.8227C83.832 34.493 84.6797 34.8282 85.7992 34.8282C86.8969 34.8282 87.7446 34.493 88.3424 33.8227C88.9402 33.1524 89.2336 32.2009 89.2336 30.9576C89.2336 29.7142 88.9402 28.7627 88.3424 28.1032C87.7446 27.4437 86.8969 27.1085 85.7992 27.1085ZM78.1121 27.0761C77.0579 27.0761 75.9602 27.4653 74.8298 28.233L75.6776 29.8547L75.8993 29.6809C76.1949 29.4595 76.4905 29.2796 76.7862 29.1412C77.1448 28.979 77.4817 28.8925 77.7752 28.8925C77.9926 28.8925 78.1665 28.9357 78.286 29.0222C78.4056 29.1195 78.4599 29.2493 78.4599 29.4223C78.4599 29.5628 78.4056 29.7358 78.286 29.9304C78.1665 30.1359 78.0034 30.3305 77.8078 30.5251L75.0907 33.3145L75.1016 34.7525H80.9922V33.001H77.9708L79.3402 31.6387L79.5385 31.4368C79.9218 31.0368 80.2252 30.6595 80.4488 30.298C80.6988 29.8872 80.8292 29.4871 80.8292 29.0871C80.8292 28.6871 80.7097 28.3411 80.4814 28.0383C80.2423 27.7356 79.9163 27.4978 79.5141 27.3248C79.1011 27.1626 78.6338 27.0761 78.1121 27.0761ZM85.7992 28.7411C86.2013 28.7411 86.4839 28.9033 86.6578 29.2385C86.8208 29.5736 86.9078 30.1467 86.9078 30.9576C86.9078 31.7684 86.8208 32.3415 86.6578 32.6766C86.4839 33.0118 86.2013 33.1848 85.7992 33.1848C85.3971 33.1848 85.1036 33.0118 84.9297 32.6766C84.7558 32.3415 84.6689 31.7684 84.6689 30.9576C84.6689 30.1467 84.7558 29.5736 84.9297 29.2385C85.1036 28.9033 85.3971 28.7411 85.7992 28.7411ZM61.2482 18.5054C60.6178 18.5054 60.0635 18.6027 59.5962 18.7973C59.118 18.9919 58.7485 19.273 58.4876 19.6298C58.2268 19.9974 58.0964 20.4299 58.0964 20.9164C58.0964 21.4246 58.2268 21.8246 58.4768 22.1381C58.7267 22.4517 59.031 22.6787 59.3788 22.8193C59.7266 22.9707 60.1614 23.1112 60.6939 23.2518C61.1613 23.3707 61.509 23.4896 61.7373 23.5978C61.9655 23.7167 62.0742 23.8789 62.0742 24.0843C62.0742 24.2573 62.009 24.387 61.8677 24.4843C61.7264 24.5816 61.5417 24.6249 61.2917 24.6249C60.8895 24.6249 60.4222 24.5059 59.8679 24.2789C59.3136 24.0518 58.8354 23.7816 58.455 23.4464L57.6073 25.1547L57.7907 25.293C58.2283 25.6074 58.7335 25.8628 59.3136 26.052C59.9657 26.2791 60.6178 26.3872 61.2699 26.3872C61.8568 26.3872 62.3894 26.3007 62.8676 26.1169C63.3349 25.9331 63.7153 25.6628 63.9979 25.2952C64.2696 24.9384 64.4109 24.4951 64.4109 23.9654C64.4109 23.4464 64.2805 23.0247 64.0305 22.7112C63.7697 22.3976 63.4654 22.1598 63.1176 21.9976C62.7698 21.8462 62.3242 21.6949 61.7916 21.5435C61.3243 21.4138 60.9765 21.2948 60.7591 21.1759C60.5418 21.0678 60.4331 20.9164 60.4331 20.711C60.4331 20.5704 60.4874 20.4515 60.607 20.3758C60.7156 20.3001 60.8678 20.2677 61.0634 20.2677C61.3786 20.2677 61.7699 20.3542 62.259 20.5164C62.748 20.6785 63.1936 20.884 63.5958 21.1218L64.4326 19.3919L64.247 19.2794C63.8675 19.061 63.439 18.8822 62.9545 18.7432C62.3894 18.581 61.8242 18.5054 61.2482 18.5054ZM71.3558 18.6783H64.6609V20.4731H66.8672V26.2575H69.1387V20.4731H71.3558V18.6783ZM46.6084 18.6783H42.8697V26.2575H46.7715L47.0236 26.2522C47.5198 26.231 47.967 26.1463 48.3583 25.998C48.8039 25.825 49.1517 25.5763 49.4016 25.252C49.6516 24.9384 49.7712 24.56 49.7712 24.1383C49.7712 23.6518 49.6299 23.241 49.3582 22.8842C49.0756 22.5382 48.706 22.3219 48.2387 22.2246C48.6408 22.1057 48.956 21.9003 49.1843 21.6084C49.4125 21.3164 49.532 20.9705 49.532 20.592C49.532 20.2028 49.4125 19.8677 49.1734 19.5757C48.9343 19.2838 48.5974 19.0676 48.1518 18.9054C47.7062 18.754 47.1953 18.6783 46.6084 18.6783ZM56.9226 18.6783H50.695V26.2575H57.0313V24.5276H52.9556V23.3275H56.553V21.5976H52.9556V20.4082H56.9226V18.6783ZM46.6107 23.1971L46.7247 23.2043C46.9083 23.2231 47.0603 23.2749 47.1845 23.3599C47.3475 23.4788 47.4344 23.6518 47.4344 23.8572C47.4344 24.0843 47.3475 24.2573 47.1845 24.387C47.0106 24.5168 46.7823 24.5816 46.4889 24.5708H45.1195V23.1977L46.6107 23.1971ZM46.4889 20.365C46.7171 20.365 46.891 20.4191 47.0214 20.5272C47.1519 20.6461 47.2171 20.7975 47.2171 20.9921C47.2171 21.1975 47.1519 21.3489 47.0214 21.4678C46.891 21.5867 46.7171 21.6516 46.4889 21.6516H45.1195V20.365H46.4889Z" fill="#1A1A1A"></path>
</svg>
