<?xml version="1.0" encoding="UTF-8"?>
<svg xmlns="http://www.w3.org/2000/svg" width="200" height="80" viewBox="0 0 200 80" fill="none">
  <path d="M62.8508 44.838C62.8508 48.4307 58.38 48.2174 58.38 48.2174H53.9094V41.7257H58.38C62.9809 41.6949 62.8508 44.838 62.8508 44.838ZM53.9094 31.8254H57.3161C60.8536 32.0122 60.7201 34.646 60.7201 34.646C60.7201 37.9191 56.8084 37.9724 56.8084 37.9724H53.9094V31.8254ZM62.0238 39.249C62.0238 39.249 65.0839 37.9451 65.0566 34.4864C65.0566 34.4864 65.522 28.8182 58.0121 28.1268H49.6789V51.8893H59.2308C59.2308 51.8893 67.2118 51.9131 67.2118 45.1846C67.2117 45.1846 67.4004 40.6058 62.0238 39.249ZM40.4577 23.4707H75.5422V56.5322H40.4577V23.4707ZM22.3928 44.838C22.3928 48.4307 17.922 48.2174 17.922 48.2174H13.451V41.7257H17.922C22.5233 41.6949 22.3928 44.838 22.3928 44.838ZM13.451 31.8254H16.8584C20.396 32.0122 20.2622 34.646 20.2622 34.646C20.2622 37.9191 16.3508 37.9724 16.3508 37.9724H13.451V31.8254V31.8254ZM21.5661 39.249C21.5661 39.249 24.6267 37.9451 24.5992 34.4864C24.5992 34.4864 25.0642 28.8182 17.5543 28.1268H9.22072V51.8893H18.7732C18.7732 51.8893 26.7541 51.9131 26.7541 45.1846C26.7541 45.1846 26.9422 40.6058 21.5661 39.249ZM0 23.4707H35.0845V56.5322H0V23.4707ZM108.843 29.8304V34.2205C108.843 34.2205 104.558 31.5871 99.8223 31.5341C99.8223 31.5341 90.9876 31.3607 90.5894 40.0027C90.5894 40.0027 90.2703 47.9502 99.7158 48.403C99.7158 48.403 103.679 48.8804 109.055 45.4519V49.9985C109.055 49.9985 101.843 54.2834 93.4886 50.9831C93.4886 50.9831 86.4654 48.4185 86.1979 40.0027C86.1979 40.0027 85.9058 31.3469 95.2725 28.4736C95.2725 28.4736 97.7738 27.516 102.269 27.9416C102.269 27.9415 104.956 28.2072 108.843 29.8304ZM80.9154 56.5322H116V23.4707H80.9154V56.5322Z" fill="#1A1A1A"></path>
</svg>
