<svg width="200" height="80" viewBox="0 0 200 80" fill="none" xmlns="http://www.w3.org/2000/svg">
<path d="M37.3922 47.6885L20.6162 64.4638C20.2866 64.7934 20.2866 65.3298 20.6162 65.6658C20.7777 65.8338 20.991 65.9114 21.2172 65.9114C21.4369 65.9114 21.6501 65.8338 21.8182 65.6658L38.5942 48.8904C38.9238 48.5544 38.9238 48.0181 38.5942 47.6885C38.2582 47.3589 37.7218 47.3589 37.3922 47.6885Z" fill="white"/>
<path d="M37.4119 41.2913L14.4126 64.2958C14.0766 64.6254 14.0766 65.1618 14.4126 65.4914C14.5742 65.6594 14.7939 65.737 15.0137 65.737C15.2334 65.737 15.4466 65.6594 15.6082 65.4914L38.6074 42.4932C38.937 42.1636 38.937 41.6273 38.6074 41.2977C38.2714 40.9617 37.7415 40.9617 37.4119 41.2913Z" fill="white"/>
<path d="M21.4499 52.0569C21.1204 51.7273 20.584 51.7273 20.2609 52.0569L9.49471 62.8223C9.15867 63.1519 9.15867 63.6883 9.49471 64.0179C9.65628 64.1795 9.87601 64.2635 10.0957 64.2635C10.3154 64.2635 10.5287 64.1795 10.6967 64.0179L21.4499 53.2589C21.786 52.9293 21.786 52.3929 21.4499 52.0569Z" fill="white"/>
<path d="M37.4118 34.9068L24.7392 47.5787C24.4097 47.9083 24.4097 48.4446 24.7392 48.7806C24.9008 48.9422 25.114 49.0197 25.3402 49.0197C25.56 49.0197 25.7732 48.9357 25.9412 48.7806L38.6073 36.1087C38.9368 35.7792 38.9368 35.2364 38.6073 34.9133C38.2712 34.5708 37.7413 34.5708 37.4118 34.9068Z" fill="white"/>
<path d="M15.8664 51.262C15.5497 50.9324 15.0134 50.9324 14.6708 51.262L5.50734 60.4187C5.18424 60.7483 5.18424 61.2843 5.50734 61.6139C5.67538 61.7819 5.88864 61.8595 6.10833 61.8595C6.32158 61.8595 6.54131 61.7819 6.70935 61.6139L15.8599 52.4573C16.2024 52.1277 16.2024 51.5849 15.8664 51.262Z" fill="white"/>
<path d="M37.4117 28.5224L24.7586 41.1685C24.4289 41.498 24.4289 42.0344 24.7586 42.3639C24.9266 42.5255 25.1398 42.6095 25.3596 42.6095C25.5792 42.6095 25.7925 42.5255 25.9605 42.3639L38.6072 29.7178C38.9368 29.3883 38.9368 28.8584 38.6072 28.5224C38.2712 28.1928 37.7412 28.1928 37.4117 28.5224Z" fill="white"/>
<path d="M37.4117 22.138L24.7586 34.7905C24.4289 35.12 24.4289 35.6564 24.7586 35.9859C24.9266 36.1475 25.1398 36.2379 25.3596 36.2379C25.5792 36.2379 25.7925 36.1475 25.9605 35.9859L38.6072 23.3399C38.9368 23.0039 38.9368 22.4675 38.6072 22.138C38.2712 21.8084 37.7412 21.8084 37.4117 22.138Z" fill="white"/>
<path d="M12.9455 47.8049C12.6095 47.4753 12.0666 47.4753 11.7435 47.8049L2.44433 57.1036C2.11475 57.4332 2.11475 57.9696 2.44433 58.2992C2.61234 58.4672 2.83206 58.5448 3.04532 58.5448C3.25857 58.5448 3.47829 58.4672 3.64631 58.2992L12.952 49.0068C13.2686 48.6708 13.2686 48.1344 12.9455 47.8049Z" fill="white"/>
<path d="M6.5673 47.792C6.23769 47.4624 5.7078 47.4624 5.37176 47.792L0.247182 52.9165C-0.082394 53.2457 -0.082394 53.7821 0.247182 54.1117C0.408739 54.2797 0.621995 54.3573 0.848174 54.3573C1.06143 54.3573 1.28115 54.2733 1.4427 54.1117L6.5673 48.9875C6.90978 48.6579 6.90978 48.128 6.5673 47.792Z" fill="white"/>
<path d="M24.7586 29.6015C24.9266 29.7695 25.1398 29.8535 25.3596 29.8535C25.5793 29.8535 25.7926 29.7695 25.9606 29.6015L38.6072 16.9554C38.9368 16.6259 38.9368 16.0895 38.6072 15.76C38.2777 15.4304 37.7413 15.4304 37.4117 15.76L24.7586 28.4061C24.4354 28.7356 24.4354 29.272 24.7586 29.6015Z" fill="white"/>
<path d="M21.8764 26.0992C22.0444 26.2608 22.2576 26.3447 22.4773 26.3447C22.6971 26.3447 22.9168 26.2543 23.0783 26.0992L34.6587 14.5194C34.9883 14.1898 34.9883 13.6535 34.6587 13.3239C34.3292 12.9879 33.7863 12.9879 33.4632 13.3239L21.8764 24.9037C21.5533 25.2333 21.5533 25.7696 21.8764 26.0992Z" fill="white"/>
<path d="M15.498 26.0992C15.6596 26.2608 15.8793 26.3447 16.099 26.3447C16.3187 26.3447 16.532 26.2543 16.6936 26.0992L28.2675 14.5194C28.6035 14.1898 28.6035 13.6535 28.2675 13.3239C27.9444 12.9879 27.408 12.9879 27.072 13.3239L15.498 24.9037C15.1685 25.2333 15.1685 25.7696 15.498 26.0992Z" fill="white"/>
<path d="M13.8567 22.2026C14.0699 22.2026 14.2832 22.1185 14.4577 21.957L21.8893 14.5257C22.2253 14.1962 22.2253 13.6598 21.8893 13.3303C21.5532 12.9943 21.0233 12.9943 20.6938 13.3303L13.2622 20.7615C12.9261 21.0911 12.9261 21.621 13.2622 21.957C13.4237 22.1185 13.6369 22.2026 13.8567 22.2026Z" fill="white"/>
<path d="M13.8567 15.8181C14.0699 15.8181 14.2832 15.7341 14.4577 15.5725L15.511 14.5192C15.8406 14.1897 15.8406 13.6533 15.511 13.3238C15.1814 12.9942 14.6451 12.9877 14.3155 13.3238L13.2622 14.3706C12.9261 14.7002 12.9261 15.243 13.2622 15.5725C13.4237 15.7406 13.6369 15.8181 13.8567 15.8181Z" fill="white"/>
<path d="M18.2768 11.4046C18.4901 11.4046 18.7034 11.3206 18.8778 11.1591L19.9312 10.1058C20.2608 9.77621 20.2608 9.23986 19.9312 8.9103C19.6016 8.58074 19.0652 8.57428 18.7357 8.9103L17.6823 9.95714C17.3463 10.2867 17.3463 10.8295 17.6823 11.1591C17.8374 11.3206 18.0507 11.4046 18.2768 11.4046Z" fill="white"/>
<path d="M12.5254 30.4804C12.7386 30.4804 12.9519 30.3964 13.1264 30.2348L14.1798 29.1815C14.5093 28.852 14.5093 28.3156 14.1798 27.9861C13.8502 27.6565 13.3138 27.65 12.9842 27.9861L11.9309 29.0329C11.5948 29.3624 11.5948 29.9053 11.9309 30.2348C12.0924 30.3964 12.3057 30.4804 12.5254 30.4804Z" fill="white"/>
<path d="M39.9321 40.729C40.1454 40.729 40.3586 40.6451 40.5331 40.4835L41.5865 39.4302C41.9161 39.1006 41.9161 38.5643 41.5865 38.2347C41.2569 37.9052 40.7205 37.8987 40.3909 38.2347L39.3376 39.2816C39.0016 39.6112 39.0016 40.1539 39.3376 40.4835C39.4992 40.6451 39.7124 40.729 39.9321 40.729Z" fill="white"/>
<path d="M43.0985 37.5627C43.312 37.5627 43.525 37.4787 43.6998 37.3171L44.7528 36.2638C45.0824 35.9343 45.0824 35.3979 44.7528 35.0684C44.4233 34.7388 43.8871 34.7324 43.5575 35.0684L42.5041 36.1152C42.1681 36.4448 42.1681 36.9876 42.5041 37.3171C42.6656 37.4787 42.8791 37.5627 43.0985 37.5627Z" fill="white"/>
<path d="M21.1075 47.7274C21.3208 47.7274 21.534 47.6434 21.7085 47.4818L22.7619 46.4285C23.0915 46.099 23.0915 45.5626 22.7619 45.2331C22.4323 44.9035 21.8959 44.8971 21.5664 45.2331L20.5065 46.2799C20.1705 46.6095 20.1705 47.1523 20.5065 47.4818C20.6746 47.6434 20.8878 47.7274 21.1075 47.7274Z" fill="white"/>
<path d="M9.37186 71.3393C9.58507 71.3393 9.79833 71.2553 9.97284 71.0937L12.7193 68.3474C13.0489 68.0178 13.0489 67.4814 12.7193 67.1518C12.3897 66.8222 11.8533 66.8158 11.5238 67.1518L8.7773 69.8918C8.44126 70.2213 8.44126 70.7641 8.7773 71.0937C8.9324 71.2617 9.14566 71.3393 9.37186 71.3393Z" fill="white"/>
<path d="M31.8541 61.7239C32.0674 61.7239 32.2806 61.6399 32.4551 61.4783L35.2016 58.732C35.5311 58.4024 35.5311 57.8664 35.2016 57.5368C34.872 57.2072 34.3356 57.2008 34.0061 57.5368L31.2596 60.2763C30.9236 60.6059 30.9236 61.1487 31.2596 61.4783C31.4211 61.6399 31.6344 61.7239 31.8541 61.7239Z" fill="white"/>
<path d="M37.6508 55.9276C37.864 55.9276 38.0773 55.8436 38.2518 55.682L40.9982 52.9357C41.3278 52.6061 41.3278 52.0697 40.9982 51.7401C40.6687 51.4105 40.1323 51.4041 39.8027 51.7401L37.0562 54.48C36.7202 54.8096 36.7202 55.3524 37.0562 55.682C37.2178 55.8436 37.4311 55.9276 37.6508 55.9276Z" fill="white"/>
<path d="M40.9078 46.3121C41.1211 46.3121 41.3343 46.2281 41.5088 46.0666L44.2552 43.3202C44.5848 42.9907 44.5848 42.4543 44.2552 42.1248C43.9256 41.7952 43.3895 41.7888 43.0599 42.1248L40.3133 44.8646C39.9773 45.1942 39.9773 45.737 40.3133 46.0666C40.4684 46.2281 40.6816 46.3121 40.9078 46.3121Z" fill="white"/>
<path d="M3.10998 65.0518C3.32324 65.0518 3.53649 64.9678 3.71097 64.8062L4.76431 63.7531C5.09388 63.4235 5.09388 62.8871 4.76431 62.5575C4.43474 62.2279 3.89838 62.2215 3.5688 62.5575L2.51546 63.6042C2.17942 63.9338 2.17942 64.4766 2.51546 64.8062C2.67701 64.9678 2.89027 65.0518 3.10998 65.0518Z" fill="white"/>
</svg>
