<?xml version="1.0" encoding="UTF-8"?>
<svg xmlns="http://www.w3.org/2000/svg" width="163" height="27" viewBox="0 0 163 27" fill="none">
  <path d="M116.916 6.60467H124.938L114.868 24.1321H119.391L129.547 6.69364L135.947 6.60467L138.166 2.86786L119.05 2.95683L116.916 6.60467ZM91.3995 24.1321H95.9225L106.078 6.69364L112.479 6.60467L114.697 2.86786L95.5812 2.95683L93.4476 6.60467H101.47L91.3995 24.1321ZM142.945 10.0746L144.908 6.69364H156.429L154.295 10.0746H142.945ZM142.689 2.86786L130.4 24.1321H135.008L141.068 13.4555H152.588L146.7 24.1321H151.138L163 2.95683L142.689 2.86786ZM29.4424 24.1321L43.5236 2.95683L38.9152 3.0458L24.7487 24.1321H29.4424ZM91.1435 2.95683H75.9529L62.8105 24.1321H79.1958L81.5 20.2174H69.9791L73.6487 14.2562L82.0974 14.1673L84.6576 9.9856H76.0382L78.1717 6.60467H89.01L91.1435 2.95683ZM65.1147 2.95683L55.5565 18.082L52.9963 2.95683H48.8147L34.6482 24.1321H39.1712L49.3267 9.00691L51.9723 24.1321H56.2393L69.5524 2.95683H65.1147ZM12.3743 24.1321H19.1162L28.1623 10.3415H14.3372L16.4707 13.9893H20.823L15.9586 21.0181L7.25393 6.69364H25.6021L25.0901 7.49439H29.8691L32.9414 2.95683H0L12.3743 24.1321Z" fill="white"></path>
</svg>
