<?xml version="1.0" encoding="UTF-8"?>
<svg xmlns="http://www.w3.org/2000/svg" width="18" height="23" viewBox="0 0 18 23" fill="none">
  <path d="M0 20.002C0 21.1065 0.89543 22.002 2 22.002C3.10457 22.002 4 21.1065 4 20.002H0ZM2 0.00195312C0.89543 0.00195312 0 0.897384 0 2.00195C0 3.10652 0.89543 4.00195 2 4.00195V0.00195312ZM4 20.002V13.4536H0V20.002H4ZM2.45161 15.002H10.5V11.002H2.45161V15.002ZM10.5 0.00195312H2V4.00195H10.5V0.00195312ZM18 7.50195C18 3.35982 14.6421 0.00195312 10.5 0.00195312V4.00195C12.433 4.00195 14 5.56896 14 7.50195H18ZM10.5 15.002C14.6421 15.002 18 11.6441 18 7.50195H14C14 9.43495 12.433 11.002 10.5 11.002V15.002ZM4 13.4536C4 14.3087 3.30676 15.002 2.45161 15.002V11.002C1.09762 11.002 0 12.0996 0 13.4536H4Z" fill="white"></path>
</svg>
